<?xml version="1.0" encoding="utf-8"?>
<!-- Generator: Adobe Illustrator 15.0.0, SVG Export Plug-In . SVG Version: 6.00 Build 0)  -->
<!DOCTYPE svg PUBLIC "-//W3C//DTD SVG 1.1//EN" "http://www.w3.org/Graphics/SVG/1.1/DTD/svg11.dtd">
<svg version="1.1" id="Layer_1" xmlns="http://www.w3.org/2000/svg" xmlns:xlink="http://www.w3.org/1999/xlink" x="0px" y="0px"
	 width="60px" height="60px" viewBox="0 0 60 60" enable-background="new 0 0 60 60" xml:space="preserve">
<circle fill="#010202" stroke="#000000" stroke-miterlimit="10" cx="32.167" cy="15.484" r="1.351"/>
<circle fill="#010202" stroke="#000000" stroke-miterlimit="10" cx="24.06" cy="8.95" r="2.188"/>
<circle fill="#010202" stroke="#000000" stroke-miterlimit="10" cx="8.5" cy="8.667" r="3"/>
<circle fill="#010202" stroke="#000000" stroke-miterlimit="10" cx="51.622" cy="8.399" r="3"/>
<circle fill="#010202" stroke="#000000" stroke-miterlimit="10" cx="51.622" cy="53.38" r="3"/>
<circle fill="#010202" stroke="#000000" stroke-miterlimit="10" cx="8.5" cy="53.38" r="3"/>
<path fill="#010202" stroke="#000000" stroke-miterlimit="10" d="M33.233,10.687l-0.707,2.235c0,0-2.767,0.307-2.558-2.509
	c0,0,0.145-0.627,0.58-1.158c0.434-0.531,3.667-3.253,3.618-4.214c0,0,0.193-1.93-1.77-2.026c-1.962-0.097-2.074,1.737-2.058,1.801
	s-0.145,0.659,0.755,1.287l-1.576,1.03c0,0-2.284-2.686,0.386-4.922c3.748-2.525,6.579,1.456,5.764,3.515
	c-0.772,1.801-1.861,2.571-2.166,2.893c-0.306,0.321-1.908,1.281-1.94,2.103c-0.033,0.819,0.868,0.605,1.255,0.337
	C33.201,10.788,33.233,10.687,33.233,10.687z"/>
<circle fill="#010202" stroke="#000000" stroke-miterlimit="10" cx="44.655" cy="33.326" r="1.351"/>
<circle fill="#010202" stroke="#000000" stroke-miterlimit="10" cx="51.19" cy="25.22" r="2.188"/>
<path fill="#010202" stroke="#000000" stroke-miterlimit="10" d="M49.453,34.393l-2.235-0.707c0,0-0.307-2.767,2.509-2.558
	c0,0,0.627,0.145,1.158,0.579c0.53,0.434,3.253,3.667,4.214,3.618c0,0,1.93,0.193,2.026-1.77c0.097-1.962-1.736-2.074-1.801-2.059
	c-0.064,0.017-0.659-0.145-1.287,0.756l-1.029-1.576c0,0,2.686-2.283,4.922,0.387c2.525,3.747-1.455,6.579-3.515,5.765
	c-1.801-0.773-2.57-1.862-2.893-2.167c-0.321-0.306-1.281-1.908-2.103-1.94c-0.819-0.033-0.605,0.868-0.337,1.255
	C49.353,34.36,49.453,34.393,49.453,34.393z"/>
<circle fill="#010202" stroke="#000000" stroke-miterlimit="10" cx="14.596" cy="26.675" r="1.351"/>
<circle fill="#010202" stroke="#000000" stroke-miterlimit="10" cx="8.061" cy="34.781" r="2.188"/>
<path fill="#010202" stroke="#000000" stroke-miterlimit="10" d="M9.798,25.608l2.235,0.707c0,0,0.307,2.767-2.509,2.558
	c0,0-0.627-0.145-1.158-0.579c-0.53-0.434-3.253-3.667-4.214-3.618c0,0-1.93-0.193-2.026,1.77c-0.097,1.962,1.736,2.074,1.801,2.059
	c0.064-0.017,0.659,0.145,1.287-0.756l1.029,1.576c0,0-2.686,2.284-4.922-0.387c-2.525-3.747,1.455-6.579,3.515-5.765
	c1.801,0.773,2.57,1.862,2.893,2.167c0.321,0.306,1.281,1.908,2.103,1.94c0.819,0.033,0.605-0.868,0.337-1.255
	C9.898,25.64,9.798,25.608,9.798,25.608z"/>
<circle fill="#010202" stroke="#000000" stroke-miterlimit="10" cx="26.675" cy="45.06" r="1.351"/>
<circle fill="#010202" stroke="#000000" stroke-miterlimit="10" cx="34.781" cy="51.595" r="2.188"/>
<path fill="#010202" stroke="#000000" stroke-miterlimit="10" d="M25.608,49.857l0.707-2.235c0,0,2.767-0.307,2.559,2.509
	c0,0-0.145,0.627-0.58,1.158c-0.434,0.53-3.666,3.253-3.617,4.214c0,0-0.193,1.93,1.77,2.026c1.961,0.097,2.074-1.736,2.059-1.801
	c-0.018-0.064,0.145-0.659-0.756-1.287l1.576-1.029c0,0,2.283,2.686-0.386,4.922c-3.748,2.525-6.58-1.455-5.766-3.515
	c0.773-1.801,1.863-2.57,2.168-2.893c0.305-0.321,1.908-1.281,1.939-2.103c0.033-0.819-0.867-0.605-1.254-0.337
	C25.641,49.757,25.608,49.857,25.608,49.857z"/>
</svg>
