<?xml version="1.0" encoding="utf-8"?>
<!-- Generator: Adobe Illustrator 15.0.0, SVG Export Plug-In . SVG Version: 6.00 Build 0)  -->
<!DOCTYPE svg PUBLIC "-//W3C//DTD SVG 1.1//EN" "http://www.w3.org/Graphics/SVG/1.1/DTD/svg11.dtd">
<svg version="1.1" id="Layer_1" xmlns="http://www.w3.org/2000/svg" xmlns:xlink="http://www.w3.org/1999/xlink" x="0px" y="0px"
	 width="60px" height="60px" viewBox="0 0 60 60" enable-background="new 0 0 60 60" xml:space="preserve">
<circle fill="#FFFFFF" stroke="#000000" stroke-miterlimit="10" cx="30.23" cy="53.688" r="5.25"/>
<path fill="#FFFFFF" stroke="#000000" stroke-miterlimit="10" d="M34.375,36.75l-2.75,8.688c0,0-10.75,1.188-9.938-9.75
	c0,0,0.563-2.438,2.25-4.5S38.188,18.547,38,14.813c0,0,0.75-7.5-6.875-7.875s-8.063,6.75-8,7s-0.563,2.563,2.938,5l-6.125,4
	c0,0-8.875-10.438,1.5-19.125C36-6,47,9.468,43.833,17.468c-3,7-7.229,9.991-8.416,11.241S28,33.688,27.875,36.875
	s3.375,2.355,4.875,1.313S34.375,36.75,34.375,36.75z"/>
</svg>
