<?xml version="1.0" encoding="utf-8"?>
<!-- Generator: Adobe Illustrator 15.0.0, SVG Export Plug-In . SVG Version: 6.00 Build 0)  -->
<!DOCTYPE svg PUBLIC "-//W3C//DTD SVG 1.1//EN" "http://www.w3.org/Graphics/SVG/1.1/DTD/svg11.dtd">
<svg version="1.1" id="Layer_1" xmlns="http://www.w3.org/2000/svg" xmlns:xlink="http://www.w3.org/1999/xlink" x="0px" y="0px"
	 width="60px" height="60px" viewBox="0 0 60 60" enable-background="new 0 0 60 60" xml:space="preserve">
<g>
	<polygon fill="#FFFFFF" points="1,28.725 1,45.33 28.544,54.134 28.544,34.549 	"/>
	<g>
		<path d="M0.625,28.725c0,5.535,0,11.07,0,16.605c0,0.172,0.115,0.311,0.275,0.361c9.181,2.935,18.362,5.869,27.544,8.804
			c0.234,0.075,0.475-0.125,0.475-0.361c0-6.528,0-13.057,0-19.585c0-0.159-0.113-0.327-0.275-0.361
			c-9.181-1.941-18.363-3.883-27.544-5.825c-0.472-0.1-0.672,0.624-0.199,0.723c8.143,1.722,16.286,3.444,24.429,5.166
			c1.023,0.216,2.047,0.433,3.071,0.649c-0.483-0.103-0.231,2.882-0.231,3.878c0,4.936,0,9.871,0,14.806
			c0,0.479,0.556,0.213-0.922-0.259c-2.008-0.643-4.016-1.284-6.024-1.926c-5.273-1.686-10.546-3.371-15.819-5.057
			c-1.312-0.419-2.625-0.839-3.937-1.258c-0.594-0.19-0.091,0.344-0.091-0.058c0-0.958,0-1.917,0-2.875c0-4.477,0-8.952,0-13.429
			C1.375,28.241,0.625,28.241,0.625,28.725z"/>
	</g>
</g>
<g>
	<polygon fill="#3E98D4" points="3.987,36.928 3.991,43.143 25.923,49.957 25.936,42.12 	"/>
	<g>
		<path d="M3.612,36.928c0.001,2.071,0.003,4.144,0.004,6.215c0,0.171,0.115,0.312,0.275,0.361
			c7.311,2.271,14.621,4.543,21.932,6.814c0.234,0.073,0.474-0.124,0.475-0.361c0.004-2.612,0.008-5.225,0.013-7.837
			c0-0.162-0.114-0.323-0.275-0.361c-7.316-1.731-14.633-3.462-21.949-5.192c-0.47-0.111-0.67,0.611-0.199,0.723
			c5.165,1.222,10.33,2.444,15.495,3.666c2.096,0.495,4.191,0.991,6.287,1.487c0.181,0.043-0.107-0.55-0.108,0.112
			c-0.001,0.616-0.002,1.233-0.003,1.851c-0.002,1.706-0.005,3.412-0.008,5.117c0,0.233,0.702,0.144-0.468-0.22
			c-1.041-0.323-2.081-0.646-3.121-0.97c-3.383-1.051-6.766-2.103-10.148-3.153c-2.456-0.763-4.913-1.526-7.369-2.289
			c-0.293-0.092-0.077-0.49-0.078-1.616c-0.001-1.448-0.002-2.897-0.003-4.347C4.361,36.444,3.611,36.444,3.612,36.928z"/>
	</g>
</g>
<path fill="#FFFFFF" stroke="#000000" stroke-width="0.25" stroke-miterlimit="10" d="M15.845,38.368v1.358
	c0,0-1.752,1.842-3.351,1.064"/>
<path fill="#FFFFFF" stroke="#000000" stroke-width="0.25" stroke-miterlimit="10" d="M15.845,38.368l-3.446-2.601
	c0,0-2.75,2.52-0.84,4.443C13.475,42.12,15.081,39.208,15.845,38.368z"/>
<path fill="#010202" stroke="#000000" stroke-width="0.25" stroke-miterlimit="10" d="M12.479,38.74c0,0-0.229-0.396-0.021-0.674
	c0.214-0.275,0.516-0.562,0.804-0.365c0.288,0.189,0.563,0.564,0.132,1c-0.429,0.438-0.678,0.266-0.696,0.266
	c-0.018,0.012-0.547,0.967-0.547,0.967l-0.506-0.4L12.479,38.74z"/>
<g>
	<g>
		<path fill="#FFFFFF" d="M16.34,34.433c-1.91-1.99-3.478,1.684-3.709,1.511c0.101,0.075,0.961,0.724,1.718,1.295l-1.157-0.877
			c0,0,1.382-2.527,2.436-1.605l0.667,0.643c0,0,0.72,0.771-1.198,2.403c0.25,0.188,0.417,0.315,0.417,0.315
			S18.257,36.418,16.34,34.433z M15.095,37.804c0-0.001,0.001-0.001,0.002-0.002c-0.207-0.155-0.468-0.353-0.748-0.563
			L15.095,37.804z"/>
	</g>
	<g>
		<path fill="none" stroke="#000000" stroke-width="0.25" stroke-miterlimit="10" d="M16.34,34.433
			c-1.91-1.99-3.478,1.684-3.709,1.511c0.101,0.075,0.961,0.724,1.718,1.295l-1.157-0.877c0,0,1.382-2.527,2.436-1.605l0.667,0.643
			c0,0,0.72,0.771-1.198,2.403c0.25,0.188,0.417,0.315,0.417,0.315S18.257,36.418,16.34,34.433z M15.095,37.804
			c0-0.001,0.001-0.001,0.002-0.002c-0.207-0.155-0.468-0.353-0.748-0.563L15.095,37.804z"/>
	</g>
</g>
<g>
	<polygon fill="#3E98D4" points="3.987,30.187 3.987,33.835 12.172,35.768 12.172,32.017 	"/>
	<g>
		<path d="M3.612,30.187c0,1.216,0,2.433,0,3.648c0,0.162,0.114,0.323,0.275,0.361c2.729,0.645,5.457,1.289,8.186,1.933
			c0.236,0.056,0.475-0.11,0.475-0.361c0-1.25,0-2.501,0-3.751c0-0.16-0.114-0.325-0.275-0.361c-2.729-0.61-5.457-1.221-8.186-1.83
			c-0.471-0.105-0.671,0.617-0.199,0.723c2.2,0.492,4.399,0.984,6.599,1.476c0.449,0.101,0.897,0.201,1.346,0.301
			c0.382,0.086-0.035-0.563-0.035,0.166c0,1.092,0,2.185,0,3.277c0.158-0.12,0.316-0.241,0.475-0.361
			c-2.112-0.499-4.225-0.998-6.337-1.497c-0.493-0.116-0.986-0.232-1.479-0.349c-0.631-0.149-0.094,0.41-0.094-0.026
			c0-1.116,0-2.231,0-3.348C4.362,29.703,3.612,29.703,3.612,30.187z"/>
	</g>
</g>
<g>
	<polygon fill="#3E98D4" points="18.298,33.201 18.302,37.184 25.933,38.995 25.936,34.775 	"/>
	<g>
		<path d="M17.923,33.201c0.001,1.327,0.002,2.655,0.003,3.982c0,0.162,0.114,0.323,0.275,0.361
			c2.543,0.604,5.087,1.208,7.631,1.812c0.236,0.057,0.475-0.111,0.475-0.361c0.001-1.406,0.002-2.813,0.003-4.22
			c0-0.158-0.113-0.328-0.275-0.361c-2.546-0.525-5.092-1.05-7.638-1.574c-0.472-0.098-0.673,0.625-0.199,0.723
			c2.129,0.439,4.259,0.878,6.389,1.317c0.374,0.076,0.747,0.153,1.12,0.23c0.334,0.069-0.146-0.496-0.146-0.228
			c0,0.243,0,0.486,0,0.729c-0.001,1.127-0.002,2.255-0.003,3.383c0.158-0.12,0.316-0.241,0.475-0.361
			c-2.127-0.506-4.255-1.011-6.383-1.516c-0.373-0.089-0.747-0.177-1.12-0.266c-0.302-0.071,0.146,0.003,0.147,0.302
			c0-0.197,0-0.396,0-0.593c-0.001-1.12-0.002-2.24-0.003-3.36C18.673,32.718,17.923,32.718,17.923,33.201z"/>
	</g>
</g>
<path fill="#FFFFFF" stroke="#000000" stroke-width="0.25" stroke-miterlimit="10" d="M15.459,35.311c0,0-0.181,0.424-0.276-1.074
	l0.047-0.92l-1.187-0.046c0,0-0.107,0.057-0.033,1.082c-0.065,1.159,0.217,2.324,1.506,2.359
	C15.518,36.712,15.73,35.84,15.459,35.311z"/>
<g>
	<polygon fill="#FFFFFF" points="28.544,34.549 46.836,28.725 46.836,45.411 28.544,54.134 	"/>
	<g>
		<path d="M28.644,34.91c6.076-1.935,12.152-3.869,18.229-5.804c-0.635,0.202-0.411,1.161-0.411,2.596c0,2.108,0,4.218,0,6.326
			c0,1.694,0.458,6.929-0.295,7.288c-3.33,1.588-6.659,3.176-9.989,4.764c-1.814,0.865-3.63,1.73-5.445,2.597
			c-0.514,0.245-1.027,0.49-1.542,0.735c-1.141,0.544-0.271,0.066-0.271,0.658c0-6.508,0-13.015,0-19.521c0-0.483-0.75-0.483-0.75,0
			c0,6.528,0,13.057,0,19.585c0,0.303,0.314,0.443,0.564,0.324c6.097-2.908,12.194-5.815,18.292-8.723
			c0.116-0.056,0.186-0.201,0.186-0.324c0-5.563,0-11.124,0-16.687c0-0.236-0.24-0.436-0.475-0.362
			c-6.098,1.942-12.194,3.883-18.292,5.825C27.985,34.333,28.182,35.058,28.644,34.91z"/>
	</g>
</g>
<g>
	<polygon fill="#FFFFFF" points="46.836,28.959 45.72,27.855 28.544,33.505 5.437,28.959 20.895,25.37 21.433,24.368 18.446,24.368 
		1,28.959 28.544,34.784 	"/>
	<g>
		<path d="M47.102,28.694c-0.372-0.368-0.744-0.736-1.116-1.104c-0.092-0.091-0.239-0.138-0.365-0.097
			c-5.05,1.661-10.099,3.322-15.147,4.984c-3.978,1.307-9.12-0.768-13.383-1.607c-3.091-0.607-6.182-1.215-9.272-1.823
			c-0.743-0.146-1.486-0.292-2.229-0.438c0.956,0.188-0.689,0.861,0.612,0.559c0.583-0.136,1.167-0.271,1.751-0.407
			c3.288-0.764,6.577-1.527,9.865-2.291c1.875-0.436,3.041-0.238,3.939-1.912c0.133-0.248-0.032-0.564-0.324-0.564
			c-6.912,0-13.879,2.854-20.532,4.605c-0.348,0.092-0.37,0.646,0,0.724c8.695,1.838,17.39,3.678,26.084,5.516
			c2.417,0.512,4.312-0.537,6.684-1.291c4.422-1.408,8.845-2.816,13.267-4.225c0.459-0.146,0.263-0.871-0.199-0.724
			c-3.206,1.021-6.413,2.042-9.619,3.063c-2.158,0.688-6.898,3.094-8.857,2.68c-8.218-1.738-16.437-3.475-24.655-5.214
			c-0.82-0.173-1.641-0.346-2.461-0.52c0.729,0.154-0.497,0.833,0.922,0.459c0.831-0.218,1.662-0.437,2.493-0.656
			c4.34-1.142,8.681-2.285,13.021-3.427c0.995-0.262,3.253-0.291,3.26-0.304c-0.487,0.908-3.063,1.03-4.052,1.26
			c-3.817,0.886-7.634,1.772-11.451,2.659c-0.352,0.082-0.366,0.651,0,0.724c7.634,1.502,15.268,3.004,22.901,4.506
			c2.146,0.422,6.07-1.824,8.074-2.482c2.274-0.748,4.549-1.498,6.823-2.245c1.868-0.615,2.135-1.162,3.435,0.125
			C46.915,29.565,47.445,29.035,47.102,28.694z"/>
	</g>
</g>
<path fill="#010202" stroke="#000000" stroke-width="0.25" stroke-miterlimit="10" d="M30.651,36.792
	c0,0.257-0.219,0.476-0.484,0.476c-0.267,0-0.483-0.219-0.483-0.476c0-0.261,0.217-0.479,0.483-0.479
	C30.433,36.313,30.651,36.531,30.651,36.792z"/>
<path fill="#010202" stroke="#000000" stroke-width="0.25" stroke-miterlimit="10" d="M27.669,37.189
	c0,0.257-0.216,0.475-0.487,0.475c-0.268,0-0.484-0.218-0.484-0.475c0-0.262,0.216-0.478,0.484-0.478
	C27.453,36.712,27.669,36.928,27.669,37.189z"/>
<path fill="#010202" stroke="#000000" stroke-width="0.25" stroke-miterlimit="10" d="M27.669,40.841
	c0,0.27-0.216,0.479-0.487,0.479c-0.268,0-0.484-0.209-0.484-0.479c0-0.256,0.216-0.466,0.484-0.466
	C27.453,40.375,27.669,40.585,27.669,40.841z"/>
<path fill="#010202" stroke="#000000" stroke-width="0.25" stroke-miterlimit="10" d="M27.669,45.95
	c0,0.266-0.216,0.479-0.487,0.479c-0.268,0-0.484-0.213-0.484-0.479c0-0.258,0.216-0.471,0.484-0.471
	C27.453,45.479,27.669,45.692,27.669,45.95z"/>
<path fill="#010202" stroke="#000000" stroke-width="0.25" stroke-miterlimit="10" d="M27.669,51.733
	c0,0.26-0.216,0.479-0.487,0.479c-0.268,0-0.484-0.219-0.484-0.479c0-0.258,0.216-0.477,0.484-0.477
	C27.453,51.257,27.669,51.476,27.669,51.733z"/>
<path fill="#010202" stroke="#000000" stroke-width="0.25" stroke-miterlimit="10" d="M23.567,50.583
	c0,0.269-0.216,0.479-0.489,0.479c-0.266,0-0.483-0.21-0.483-0.479c0-0.258,0.218-0.467,0.483-0.467
	C23.351,50.116,23.567,50.325,23.567,50.583z"/>
<path fill="#010202" stroke="#000000" stroke-width="0.25" stroke-miterlimit="10" d="M20.092,49.491
	c0,0.256-0.217,0.466-0.489,0.466c-0.267,0-0.489-0.21-0.489-0.466c0-0.27,0.223-0.479,0.489-0.479
	C19.875,49.013,20.092,49.222,20.092,49.491z"/>
<path fill="#010202" stroke="#000000" stroke-width="0.25" stroke-miterlimit="10" d="M16.076,48.167
	c0,0.258-0.222,0.479-0.489,0.479c-0.271,0-0.489-0.221-0.489-0.479c0-0.257,0.218-0.479,0.489-0.479
	C15.854,47.688,16.076,47.91,16.076,48.167z"/>
<path fill="#010202" stroke="#000000" stroke-width="0.25" stroke-miterlimit="10" d="M11.373,46.896
	c0,0.269-0.22,0.478-0.489,0.478c-0.269,0-0.489-0.209-0.489-0.478c0-0.258,0.221-0.467,0.489-0.467
	C11.153,46.429,11.373,46.638,11.373,46.896z"/>
<path fill="#010202" stroke="#000000" stroke-width="0.25" stroke-miterlimit="10" d="M7.184,45.698
	c0,0.257-0.223,0.466-0.489,0.466c-0.272,0-0.49-0.209-0.49-0.466c0-0.27,0.218-0.479,0.49-0.479
	C6.961,45.22,7.184,45.429,7.184,45.698z"/>
<path fill="#010202" stroke="#000000" stroke-width="0.25" stroke-miterlimit="10" d="M3.251,44.317
	c0,0.258-0.221,0.479-0.487,0.479c-0.272,0-0.489-0.221-0.489-0.479c0-0.257,0.217-0.479,0.489-0.479
	C3.031,43.839,3.251,44.061,3.251,44.317z"/>
<path fill="#010202" stroke="#000000" stroke-width="0.25" stroke-miterlimit="10" d="M3.251,39.676
	c0,0.257-0.221,0.479-0.487,0.479c-0.272,0-0.489-0.222-0.489-0.479s0.217-0.479,0.489-0.479
	C3.031,39.197,3.251,39.419,3.251,39.676z"/>
<path fill="#010202" stroke="#000000" stroke-width="0.25" stroke-miterlimit="10" d="M3.251,35.463c0,0.27-0.221,0.479-0.487,0.479
	c-0.272,0-0.489-0.209-0.489-0.479c0-0.256,0.217-0.466,0.489-0.466C3.031,34.997,3.251,35.207,3.251,35.463z"/>
<path fill="#010202" stroke="#000000" stroke-width="0.25" stroke-miterlimit="10" d="M6.839,35.941c0,0.257-0.217,0.477-0.49,0.477
	c-0.266,0-0.489-0.22-0.489-0.477c0-0.26,0.223-0.479,0.489-0.479C6.622,35.463,6.839,35.682,6.839,35.941z"/>
<path fill="#010202" stroke="#000000" stroke-width="0.25" stroke-miterlimit="10" d="M19.002,38.592
	c0,0.262-0.216,0.479-0.486,0.479s-0.486-0.217-0.486-0.479c0-0.257,0.216-0.475,0.486-0.475S19.002,38.335,19.002,38.592z"/>
<path fill="#010202" stroke="#000000" stroke-width="0.25" stroke-miterlimit="10" d="M22.906,39.537
	c0,0.269-0.219,0.479-0.485,0.479c-0.273,0-0.489-0.21-0.489-0.479c0-0.258,0.216-0.467,0.489-0.467
	C22.687,39.07,22.906,39.279,22.906,39.537z"/>
<path fill="#010202" stroke="#000000" stroke-width="0.25" stroke-miterlimit="10" d="M3.167,31.603
	c0,0.257-0.222,0.466-0.488,0.466c-0.273,0-0.489-0.209-0.489-0.466c0-0.269,0.216-0.479,0.489-0.479
	C2.945,31.124,3.167,31.334,3.167,31.603z"/>
<path fill="#010202" stroke="#000000" stroke-width="0.25" stroke-miterlimit="10" d="M30.651,40.875
	c0,0.258-0.219,0.471-0.484,0.471c-0.267,0-0.483-0.213-0.483-0.471c0-0.266,0.217-0.478,0.483-0.478
	C30.433,40.397,30.651,40.609,30.651,40.875z"/>
<path fill="#010202" stroke="#000000" stroke-width="0.25" stroke-miterlimit="10" d="M30.651,45.95
	c0,0.266-0.219,0.479-0.484,0.479c-0.267,0-0.483-0.213-0.483-0.479c0-0.258,0.217-0.471,0.483-0.471
	C30.433,45.479,30.651,45.692,30.651,45.95z"/>
<path fill="#010202" stroke="#000000" stroke-width="0.25" stroke-miterlimit="10" d="M30.651,51.257
	c0,0.268-0.219,0.477-0.484,0.477c-0.267,0-0.483-0.209-0.483-0.477c0-0.259,0.217-0.469,0.483-0.469
	C30.433,50.788,30.651,50.998,30.651,51.257z"/>
<path fill="#010202" stroke="#000000" stroke-width="0.25" stroke-miterlimit="10" d="M35.162,49.368
	c0,0.257-0.217,0.473-0.489,0.473c-0.273,0-0.49-0.216-0.49-0.473c0-0.264,0.217-0.479,0.49-0.479
	C34.945,48.89,35.162,49.104,35.162,49.368z"/>
<path fill="#010202" stroke="#000000" stroke-width="0.25" stroke-miterlimit="10" d="M38.947,47.676
	c0,0.258-0.216,0.467-0.482,0.467c-0.279,0-0.495-0.209-0.495-0.467c0-0.269,0.216-0.479,0.495-0.479
	C38.731,47.197,38.947,47.407,38.947,47.676z"/>
<path fill="#010202" stroke="#000000" stroke-width="0.25" stroke-miterlimit="10" d="M42.733,45.95
	c0,0.266-0.217,0.479-0.483,0.479c-0.271,0-0.495-0.213-0.495-0.479c0-0.258,0.225-0.471,0.495-0.471
	C42.517,45.479,42.733,45.692,42.733,45.95z"/>
<path fill="#010202" stroke="#000000" stroke-width="0.25" stroke-miterlimit="10" d="M45.807,44.63
	c0,0.266-0.217,0.475-0.485,0.475c-0.276,0-0.493-0.209-0.493-0.475c0-0.261,0.217-0.47,0.493-0.47
	C45.59,44.16,45.807,44.369,45.807,44.63z"/>
<path fill="#010202" stroke="#000000" stroke-width="0.25" stroke-miterlimit="10" d="M45.807,39.93
	c0,0.259-0.217,0.468-0.485,0.468c-0.276,0-0.493-0.209-0.493-0.468c0-0.268,0.217-0.477,0.493-0.477
	C45.59,39.453,45.807,39.662,45.807,39.93z"/>
<path fill="#010202" stroke="#000000" stroke-width="0.25" stroke-miterlimit="10" d="M45.807,35.246
	c0,0.266-0.217,0.479-0.485,0.479c-0.276,0-0.493-0.213-0.493-0.479c0-0.257,0.217-0.471,0.493-0.471
	C45.59,34.775,45.807,34.989,45.807,35.246z"/>
<path fill="#010202" stroke="#000000" stroke-width="0.25" stroke-miterlimit="10" d="M45.807,31.377c0,0.261-0.217,0.47-0.485,0.47
	c-0.276,0-0.493-0.209-0.493-0.47c0-0.266,0.217-0.475,0.493-0.475C45.59,30.902,45.807,31.111,45.807,31.377z"/>
<g>
	<polygon fill="#FFFFFF" points="45.72,27.62 48.326,30.187 59,12.459 56.858,8.678 45.87,26.479 	"/>
	<g>
		<path d="M45.454,27.885c0.869,0.855,1.738,1.711,2.606,2.567c0.174,0.171,0.464,0.132,0.59-0.076
			c3.558-5.909,7.115-11.818,10.674-17.728c0.069-0.116,0.065-0.263,0-0.379c-0.714-1.26-1.428-2.521-2.142-3.781
			c-0.143-0.25-0.503-0.235-0.648,0c-2.2,3.565-4.4,7.129-6.601,10.694c-1.577,2.555-4.188,5.394-4.589,8.438
			c-0.063,0.479,0.688,0.472,0.75,0c0.484-3.675,4.348-7.834,6.26-10.933c1.352-2.189,2.703-4.378,4.055-6.568
			c0.25-0.405,0.5-0.81,0.749-1.214c-0.391,0.634-0.597,0.01,0.054,1.158c0.377,0.665,0.753,1.329,1.13,1.994
			c0.766,1.353-4.939,8.97-6.078,10.862c-1.243,2.064-2.486,4.129-3.729,6.194c-0.593,0.985-0.33,0.427-0.087,0.666
			c-0.821-0.808-1.642-1.616-2.462-2.424C45.64,27.016,45.109,27.545,45.454,27.885z"/>
	</g>
</g>
<path fill="#010202" stroke="#000000" stroke-width="0.25" stroke-miterlimit="10" d="M48.326,26.788
	c0,0.258-0.217,0.467-0.483,0.467s-0.482-0.209-0.482-0.467c0-0.268,0.216-0.478,0.482-0.478S48.326,26.521,48.326,26.788z"/>
<path fill="#010202" stroke="#000000" stroke-width="0.25" stroke-miterlimit="10" d="M53.091,19.406
	c0,0.256-0.217,0.472-0.483,0.472s-0.489-0.216-0.489-0.472c0-0.265,0.223-0.479,0.489-0.479S53.091,19.142,53.091,19.406z"/>
<path fill="#010202" stroke="#000000" stroke-width="0.25" stroke-miterlimit="10" d="M57.077,11.985
	c0,0.26-0.217,0.474-0.484,0.474c-0.277,0-0.494-0.214-0.494-0.474c0-0.263,0.217-0.476,0.494-0.476
	C56.86,11.51,57.077,11.723,57.077,11.985z"/>
<g>
	<polygon fill="#A5A4A4" points="48.326,30.187 46.836,30.187 46.851,28.725 	"/>
	<g>
		<path d="M48.326,29.812c-0.497,0-0.993,0-1.49,0c0.125,0.125,0.25,0.25,0.375,0.375c0.005-0.487,0.01-0.975,0.015-1.462
			c-0.214,0.088-0.427,0.177-0.641,0.265c0.492,0.488,0.984,0.975,1.476,1.462c0.345,0.34,0.875-0.19,0.531-0.531
			c-0.492-0.487-0.984-0.974-1.476-1.461c-0.234-0.231-0.638-0.062-0.641,0.265c-0.005,0.487-0.01,0.975-0.015,1.462
			c-0.002,0.204,0.172,0.375,0.375,0.375c0.497,0,0.993,0,1.49,0C48.81,30.562,48.81,29.812,48.326,29.812z"/>
	</g>
</g>
<g>
	<polygon fill="#FFFFFF" points="45.72,27.62 18.446,24.133 18.446,22.361 27.342,6.75 56.858,8.678 45.973,26.311 	"/>
	<g>
		<path d="M45.72,27.245c-8.735-1.117-17.471-2.234-26.206-3.351c-1.246-0.16-1.126-0.672-0.438-1.879
			c1.135-1.991,2.27-3.983,3.405-5.975c1.354-2.377,2.709-4.754,4.063-7.131c0.912-1.6,0.475-1.805,1.811-1.718
			c9.376,0.612,18.752,1.225,28.128,1.837c0.657,0.043,0.089-0.599-0.07-0.342c-0.404,0.655-0.809,1.31-1.212,1.964
			c-1.54,2.494-3.079,4.987-4.618,7.48c-1.778,2.881-4.571,6.01-5.224,9.39c-0.092,0.472,0.631,0.674,0.723,0.199
			c0.633-3.275,3.421-6.412,5.148-9.211c1.984-3.214,3.969-6.428,5.953-9.642c0.157-0.256-0.052-0.547-0.324-0.564
			C47.02,7.66,37.181,7.018,27.342,6.375c-0.128-0.008-0.262,0.077-0.324,0.186c-1.89,3.316-3.78,6.633-5.669,9.949
			c-1.459,2.561-3.278,4.664-3.278,7.623c0,0.224,0.172,0.349,0.375,0.375c9.091,1.163,18.183,2.325,27.273,3.487
			C46.198,28.056,46.192,27.306,45.72,27.245z"/>
	</g>
</g>
<g>
	<polygon fill="#FFFFFF" points="44.925,25.687 20.455,22.073 28.544,8.241 54.489,9.616 	"/>
	<g>
		<path d="M45.024,25.325c-7.61-1.124-15.222-2.248-22.833-3.371c-0.48-0.071-0.961-0.142-1.441-0.213c0,0-0.118,0.771,0.35-0.028
			c1-1.709,1.999-3.418,2.999-5.128c0.902-1.542,4.061-7.99,4.882-7.946c8.249,0.438,16.497,0.875,24.746,1.312
			c0.962,0.051,0.504-0.633-0.316,0.745c-1.096,1.842-2.191,3.683-3.287,5.524c-1.841,3.093-3.682,6.186-5.522,9.278
			c-0.247,0.417,0.401,0.794,0.648,0.379c3.188-5.357,6.376-10.714,9.564-16.071c0.151-0.255-0.047-0.55-0.324-0.564
			c-8.648-0.458-17.297-0.917-25.945-1.375c-0.13-0.007-0.26,0.076-0.324,0.186c-2.696,4.611-5.393,9.222-8.089,13.833
			c-0.111,0.19-0.021,0.515,0.224,0.551c8.157,1.204,16.313,2.409,24.47,3.613C45.298,26.118,45.502,25.396,45.024,25.325z"/>
	</g>
</g>
<g>
	<polygon fill="#3E97D3" points="22.906,22.427 29.804,10.191 53.408,11.51 44.925,25.687 	"/>
	<g>
		<path d="M23.229,22.616c1.608-2.853,3.217-5.706,4.825-8.559c1.685-2.989,1.078-3.529,4.079-3.361
			c4.132,0.23,8.264,0.461,12.396,0.692c1.967,0.11,3.934,0.22,5.9,0.33c0.723,0.041,1.446,0.081,2.169,0.121
			c1.199,0.067,0.147,0.047,0.446-0.453c-1.819,3.04-3.639,6.08-5.458,9.12c-0.883,1.476-1.766,2.951-2.648,4.427
			c-0.388,0.647,0.124,0.397-1.202,0.201c-6.91-1.023-13.82-2.046-20.731-3.069c-0.473-0.07-0.676,0.653-0.199,0.724
			c7.339,1.086,14.679,2.173,22.019,3.26c0.171,0.025,0.329-0.015,0.424-0.172c2.827-4.726,5.655-9.451,8.483-14.177
			c0.152-0.255-0.048-0.549-0.324-0.564c-7.868-0.439-15.736-0.879-23.604-1.319c-0.128-0.007-0.262,0.076-0.324,0.186
			c-2.299,4.079-4.598,8.157-6.897,12.236C22.344,22.659,22.992,23.037,23.229,22.616z"/>
	</g>
</g>
<polygon fill="#3E97D3" stroke="#000000" stroke-width="0.25" stroke-miterlimit="10" points="31.45,34.631 31.45,49.368 
	44.235,43.441 44.235,30.395 "/>
<g>
	<polygon fill="#3E97D3" points="47.36,24.069 50.372,26.788 53.275,21.97 50.249,19.406 	"/>
	<g>
		<path d="M47.095,24.334c1.004,0.906,2.008,1.813,3.012,2.719c0.181,0.163,0.46,0.139,0.59-0.076
			c0.968-1.606,1.936-3.212,2.903-4.818c0.081-0.135,0.067-0.348-0.059-0.455c-1.009-0.854-2.018-1.709-3.026-2.563
			c-0.187-0.158-0.454-0.142-0.59,0.076c-0.963,1.555-1.926,3.109-2.889,4.663c-0.255,0.413,0.394,0.789,0.648,0.379
			c0.963-1.555,1.926-3.109,2.889-4.663c-0.196,0.025-0.393,0.05-0.59,0.076c0.612,0.518,1.224,1.037,1.836,1.555
			c0.341,0.289,0.682,0.578,1.023,0.867c0.291,0.247,0.24-0.531-0.042-0.063c-0.917,1.523-1.835,3.046-2.753,4.568
			c0.196-0.025,0.393-0.05,0.59-0.076c-1.004-0.906-2.008-1.813-3.012-2.719C47.268,23.481,46.735,24.01,47.095,24.334z"/>
	</g>
</g>
<g>
	<polygon fill="#3E97D3" points="51.948,16.642 54.894,19.278 57.669,14.667 54.837,11.954 	"/>
	<g>
		<path d="M51.683,16.907c0.982,0.879,1.964,1.758,2.945,2.637c0.181,0.162,0.46,0.14,0.59-0.076
			c0.925-1.537,1.85-3.074,2.775-4.611c0.085-0.142,0.062-0.339-0.059-0.455c-0.944-0.904-1.889-1.809-2.832-2.713
			c-0.178-0.17-0.461-0.133-0.59,0.076c-0.963,1.563-1.926,3.125-2.889,4.688c-0.254,0.413,0.395,0.79,0.648,0.379
			c0.963-1.563,1.926-3.125,2.889-4.688c-0.196,0.025-0.393,0.05-0.59,0.076c0.573,0.548,1.146,1.097,1.718,1.645
			c0.319,0.306,0.639,0.612,0.958,0.917c0.273,0.262,0.231-0.526-0.056-0.048c-0.874,1.452-1.748,2.904-2.622,4.355
			c0.196-0.025,0.393-0.05,0.59-0.076c-0.982-0.879-1.964-1.758-2.945-2.637C51.854,16.055,51.322,16.583,51.683,16.907z"/>
	</g>
</g>
<g>
	<polygon fill="#010202" points="5.437,28.725 20.895,25.135 21.236,24.492 45.72,27.62 28.544,33.271 	"/>
	<g>
		<path d="M5.536,29.086c3.817-0.886,7.634-1.772,11.451-2.659c1.279-0.297,4.28-1.556,5.006-1.463
			c7.843,1.002,15.687,2.004,23.531,3.006c0.177,0.022,0.282-0.773-0.453-0.531c-0.711,0.234-1.423,0.468-2.134,0.703
			c-2.274,0.748-4.549,1.496-6.823,2.244c-2.296,0.756-6.085,2.796-8.262,2.367c-7.438-1.463-14.876-2.927-22.315-4.39
			c-0.472-0.093-0.674,0.63-0.199,0.723c7.551,1.485,15.102,2.972,22.653,4.457c1.951,0.384,4.719-1.248,6.524-1.842
			c3.769-1.24,7.537-2.479,11.306-3.719c0.426-0.14,0.309-0.685-0.1-0.737c-8.161-1.042-16.322-2.085-24.484-3.128
			c-0.123-0.016-0.269,0.082-0.324,0.186c-0.763,1.439-5.331,1.681-6.882,2.042c-2.897,0.673-5.795,1.346-8.693,2.019
			C4.866,28.472,5.065,29.195,5.536,29.086z"/>
	</g>
</g>
<g>
	<polygon fill="#3E97D3" points="21.236,24.492 21.135,31.816 37.845,26.618 	"/>
	<g>
		<path d="M20.861,24.492c-0.034,2.441-0.067,4.883-0.101,7.324c-0.003,0.238,0.243,0.434,0.475,0.361
			c5.57-1.732,11.14-3.465,16.71-5.198c0.431-0.134,0.304-0.685-0.1-0.737c-5.536-0.708-11.073-1.417-16.609-2.126
			c-0.479-0.062-0.473,0.689,0,0.75c5.536,0.708,11.073,1.417,16.609,2.126c-0.033-0.246-0.066-0.491-0.1-0.737
			c-4.367,1.359-8.734,2.717-13.101,4.076c-0.964,0.3-1.928,0.6-2.892,0.899c-1.004,0.313-0.245,0.692-0.235-0.019
			c0.031-2.24,0.062-4.48,0.093-6.721C21.618,24.008,20.868,24.009,20.861,24.492z"/>
	</g>
</g>
<g>
	<path fill="#EFF2F4" d="M14.775,30.564c0,0,0.154-1.001,0.824-1.224c0.666-0.213,0.17,0.132-0.415-0.616
		c-0.582-0.747-0.436-0.438-0.225-1.104c0.214-0.667,1.724-0.547,2.058-0.832c0.337-0.296,2.021-0.371,2.585-0.478
		c0.564-0.106,0.448-0.566,1.254-0.624c0.803-0.058,1.52,1.443,1.737,1.102c0.213-0.354,0.702-0.17,0,0.832
		c-0.707,0.989-0.449,1.772,0,1.721c0.444-0.041,0.904,0.224,0.731,0.846c-0.173,0.609-0.317,1.439-0.248,1.882
		c0.075,0.441-0.037,0.118-0.037,0.118L14.775,30.564z"/>
	<g>
		<path d="M14.992,30.624c0.104-0.539,0.522-0.944,1.031-1.183c0.188-0.088,0.115-0.355-0.054-0.411
			c-0.729-0.239-1.396-1.26-0.292-1.674c0.299-0.113,0.655-0.137,0.968-0.194c0.805-0.146,1.512-0.455,2.363-0.548
			c0.32-0.035,0.762-0.032,1.023-0.244c1.144-0.929,1.59,0.225,2.345,0.661c0.114,0.066,0.292,0.007,0.377-0.083
			c-0.351,0.373-0.981,1.388-0.81,1.983c0.104,0.361,0.208,0.551,0.59,0.627c0.706,0.141,0.285,2.192,0.342,2.737
			c0.128-0.053,0.256-0.105,0.384-0.159c-0.543-0.648-2.665-0.658-3.46-0.813c-1.655-0.325-3.31-0.65-4.965-0.975
			c-0.283-0.056-0.404,0.378-0.119,0.434c1.544,0.304,3.089,0.606,4.634,0.909c0.952,0.188,1.904,0.374,2.855,0.561
			c0.235,0.047,0.471,0.093,0.706,0.139c0.076,0.015-0.144-0.146,0.031,0.064c0.122,0.146,0.404,0.032,0.384-0.159
			c-0.08-0.771,0.671-2.292,0.024-2.939c-0.463-0.463-1.535,0.048-0.562-1.622c0.205-0.351,0.41-0.623,0.374-1.038
			c-0.024-0.272-0.35-0.355-0.559-0.233c-0.251,0.147-1.206-1.001-1.747-1.001c-0.254,0-0.592,0.1-0.786,0.28
			c-0.515,0.477-1.184,0.433-1.845,0.512c-0.915,0.109-1.774,0.455-2.668,0.668c-1.589,0.379-0.924,2.145,0.292,2.542
			c-0.018-0.137-0.036-0.273-0.054-0.411c-0.698,0.328-1.08,0.638-1.237,1.452C14.503,30.788,14.938,30.909,14.992,30.624z"/>
	</g>
</g>
<g>
	<path fill="#EFF2F4" d="M23.041,32.187c0,0-0.158-2.141,0.492-3.189c0.651-1.056,5.012-6.28,5.012-6.28l-1.846-1.599
		c0,0-0.479-2.194,0.972-2.19s1.146-0.227,1.22-0.457c0.077-0.229,0.299-0.229,1.277-0.229c0.984,0,1.215-0.116,1.283-0.3
		c0.08-0.196,3.176,0.529,3.789,0c0.619-0.541,1.529,0.3,1.574,0.462c0.033,0.148,0.989,1.368,0.345,2.023
		c-0.656,0.646-1.577,2.223-2.146,2.29c-0.569,0.082,1.886,0.835,3.144,1.775s2.564,3.714,2.593,4.232
		c0.038,0.518,0.038,0.518,0.038,0.518l-12.243,4.028L23.041,32.187z"/>
	<g>
		<path d="M23.266,32.187c-0.182-3.741,3.189-6.614,5.438-9.311c0.074-0.089,0.099-0.233,0-0.318c-1.154-0.999-3.5-2.424-0.182-3.45
			c0.87-0.269,1.233-0.621,2.401-0.678c1.275-0.063,2.611-0.019,3.919-0.106c4.235-0.285,0.674,3.017-0.074,4.375
			c-0.06,0.107-0.027,0.246,0.08,0.308c1.867,1.077,3.39,1.555,4.655,3.497c0.554,0.852,1.529,2.422,0.834,2.651
			c-2.129,0.7-4.257,1.4-6.385,2.101c-1.808,0.595-3.614,1.189-5.421,1.783c-1.214,0.4-4.132-0.813-5.429-1.068
			c-0.284-0.056-0.404,0.378-0.12,0.434c2.819,0.556,4.847,1.34,7.536,0.455c3.443-1.134,6.887-2.267,10.33-3.399
			c0.091-0.029,0.173-0.114,0.165-0.217c-0.137-1.86-1.368-3.667-2.696-4.909c-0.391-0.365-3.062-1.5-2.706-1.717
			c0.831-0.509,1.627-1.773,1.988-2.701c1.335-3.428-6.892-2.093-8.239-1.882c-1.556,0.243-4.39,1.885-2.341,3.659
			c0.843,0.729,1.507,0.698,0.909,1.417c-0.999,1.202-1.987,2.413-2.964,3.631c-1.41,1.757-2.262,3.08-2.146,5.446
			C22.83,32.476,23.28,32.477,23.266,32.187z"/>
	</g>
</g>
<g>
	<g>
		<path d="M16.307,27.706c0.806,0.673,1.818,0.161,2.665,0.059c0.522-0.063,1.007,0.044,1.546-0.05
			c0.647-0.112,0.73-0.252,1.079-0.795c0.099-0.154-0.338-0.395-0.443-0.231c-0.338,0.527-0.533,0.632-1.15,0.739
			c-0.436,0.076-0.816-0.037-1.256,0.003c-0.354,0.032-0.693,0.164-1.032,0.263c-0.177,0.052-0.963,0.014-1.17-0.158
			C16.355,27.375,16.051,27.493,16.307,27.706L16.307,27.706z"/>
	</g>
</g>
<g>
	<g>
		<path d="M16.622,29.727c0.921,0.092,1.848,0.154,2.774,0.156c0.383,0.001,0.805,0,1.167-0.141
			c0.466-0.181,0.537-1.211,0.922-1.308c-0.111-0.031-0.222-0.062-0.333-0.093c0.081,0.101-0.821,1.056-0.932,1.179
			c-0.315,0.349,0.52,1.235,0.736,1.409c0.138,0.111,0.604,0.031,0.376-0.15c-0.368-0.295-0.59-0.665-0.629-1.132
			c-0.008-0.094,0.351-0.411,0.411-0.482c0.136-0.161,0.679-0.666,0.484-0.909c-0.07-0.087-0.229-0.119-0.333-0.093
			c-0.311,0.078-0.419,0.396-0.562,0.659c-0.365,0.674-0.676,0.768-1.406,0.777c-0.88,0.012-1.766-0.063-2.641-0.15
			C16.357,29.42,16.319,29.696,16.622,29.727L16.622,29.727z"/>
	</g>
</g>
<g>
	<g>
		<path d="M29.257,23.825c0.274,0.535,0.782,0.796,1.358,0.867c0.889,0.109,3.235-0.809,3.235,0.691c0,0.231,0.492,0.286,0.492,0.02
			c0-0.535,0-1.071,0-1.606c0-0.232-0.492-0.286-0.492-0.021c0,0.536,0,1.071,0,1.606c0,0.231,0.492,0.286,0.492,0.02
			c0-2.479-3.851-0.154-4.623-1.654C29.615,23.546,29.127,23.573,29.257,23.825L29.257,23.825z"/>
	</g>
</g>
<g>
	<g>
		<path d="M29.4,23.267c0.627,0.047,1.339,0.124,1.951-0.047c0.409-0.114,0.313-0.33,0.299-0.675
			c-0.01-0.249,0.013-0.525-0.11-0.752c-0.104-0.193-0.743-0.671-0.687-0.896c-0.048,0.052-0.095,0.103-0.142,0.155
			c0.014-0.007,0.028-0.015,0.042-0.022c0.292-0.152,0.035-0.406-0.205-0.28c-0.328,0.171-0.146,0.417,0.038,0.642
			c0.232,0.283,0.484,0.446,0.557,0.828c0.049,0.25,0.003,0.504,0.063,0.754c-0.02-0.081,0.108-0.082-0.055-0.047
			c-0.08,0.017-0.165,0.02-0.246,0.025c-0.186,0.014-0.372,0.012-0.557,0.011c-0.258-0.002-0.517-0.015-0.773-0.035
			C29.348,22.909,29.073,23.242,29.4,23.267L29.4,23.267z"/>
	</g>
</g>
<g>
	<g>
		<path d="M34.831,22.567c-0.513,0.139-1.117,0.347-1.652,0.313c0.064,0.042,0.129,0.083,0.194,0.125
			c-0.001,0-0.001-0.001-0.002-0.002c-0.045,0.096-0.09,0.192-0.135,0.289c0.231-0.072,0.696-0.152,0.926-0.414
			c0.307-0.349,0.219-0.961,0.12-1.381c-0.064-0.276-0.559-0.204-0.494,0.071c0.075,0.325,0.205,0.9-0.099,1.114
			c-0.188,0.132-0.431,0.148-0.645,0.214c-0.112,0.035-0.191,0.179-0.135,0.289c0.134,0.257,0.672,0.1,0.876,0.064
			c0.416-0.071,0.828-0.177,1.236-0.288C35.336,22.876,35.118,22.489,34.831,22.567L34.831,22.567z"/>
	</g>
</g>
<g>
	<g>
		<path d="M27.947,20.46c0.355,0.244,0.661,0.173,1.044,0.053c0.276-0.086,0.531-0.203,0.795-0.322
			c0.223-0.1,0.314-0.482,0.473-0.542c-0.306,0.073-0.611,0.146-0.917,0.22c1.579,1.405,2.517-0.027,3.759-1.058
			c0.005-0.008,0.011-0.017,0.016-0.025c-0.023-0.067-0.029-0.104-0.007-0.172c-0.389,0.128-0.777,0.256-1.167,0.383
			c0.553,0.011,1.204,0.839,1.832,0.998c0.463,0.117,1.089,0.028,1.547-0.081c0.388-0.092,0.787-0.234,1.138-0.424
			c0.561-0.304-0.33-0.464-0.525-0.442c-0.248,0.028-1.13,0.404-1.008,0.391c0.195,0.111,0.401,0.174,0.619,0.191
			c-0.525,0.017-0.881-0.065-1.388-0.303c-0.359-0.168-0.65-0.716-1.075-0.724c-0.213-0.004-1.092,0.155-1.166,0.383
			c-0.085,0.257-0.19,0.327-0.426,0.54c-0.234,0.211-0.434,0.438-0.616,0.694c0.274-0.385-0.061-0.474-0.339-0.722
			c-0.141-0.125-0.774,0.166-0.916,0.22c-0.482,0.183-0.616,0.598-1.087,0.81c0.335-0.093,0.671-0.187,1.007-0.28
			c-0.133-0.053-0.266-0.106-0.399-0.159C28.871,19.903,28.076,20.548,27.947,20.46L27.947,20.46z"/>
	</g>
</g>
<g>
	<g>
		<path d="M34.8,28.286c0.395-0.553,0.22-1.252-0.384-1.564c-0.28-0.145-0.121-0.634-0.112-0.92
			c0.013-0.415-0.009-0.834-0.043-1.247c-0.011-0.134-0.507-0.073-0.494,0.074c0.027,0.337,0.039,0.674,0.044,1.011
			c0.004,0.29-0.156,0.865-0.02,1.125c0.085,0.161,0.396,0.239,0.532,0.375c0.32,0.323,0.229,0.833-0.008,1.165
			C34.251,28.396,34.712,28.41,34.8,28.286L34.8,28.286z"/>
	</g>
</g>
<g>
	<g>
		<path d="M26.308,33.063c0.315,0.039,0.537-0.157,0.634-0.443c0.113-0.336-0.027-0.765-0.082-1.097
			c-0.033-0.202-0.063-0.403-0.089-0.605c-0.01-0.078-0.018-0.156-0.023-0.234c-0.004-0.056,0.042-0.204-0.021-0.143
			c0.228-0.226-0.167-0.493-0.369-0.293c-0.229,0.227-0.087,0.709-0.048,0.979c0.049,0.338,0.115,0.674,0.157,1.014
			c0.013,0.108,0.023,0.28-0.051,0.373c-0.021,0.027-0.084,0.007,0.001,0.018C26.118,32.595,25.985,33.023,26.308,33.063
			L26.308,33.063z"/>
	</g>
</g>
<g>
	<g>
		<path d="M30.629,32.639c-0.237-0.264-0.557-0.662-0.356-1.021c0.23-0.416,0.455-0.582,0.418-1.106
			c-0.01-0.147-0.433-0.353-0.424-0.234c0.021,0.306-0.023,0.551-0.208,0.8c-0.123,0.166-0.249,0.294-0.285,0.505
			c-0.061,0.354,0.339,0.807,0.555,1.047C30.426,32.737,30.845,32.879,30.629,32.639L30.629,32.639z"/>
	</g>
</g>
<g>
	<g>
		<path d="M36.993,30.639c0.111-0.561,0.013-1.208-0.655-1.276c0.079,0.106,0.157,0.213,0.235,0.319
			c0.286-0.578-0.04-1.151-0.492-1.525c-0.213-0.176-0.584,0.07-0.332,0.278c0.287,0.237,0.576,0.633,0.385,1.022
			c-0.086,0.173,0.072,0.303,0.235,0.319c0.252,0.025,0.171,0.58,0.14,0.737C36.456,30.779,36.94,30.901,36.993,30.639
			L36.993,30.639z"/>
	</g>
</g>
<path fill="none" stroke="#000000" stroke-miterlimit="10" d="M28.918,22.941c0-0.253-0.375-0.225-0.375-0.225s0.45-0.063,0.375-0.2
	"/>
<path fill="none" stroke="#000000" stroke-width="0.25" stroke-miterlimit="10" d="M15.908,29.247c0,0,0.357-0.022,0.399,0.094"/>
<path fill="none" stroke="#000000" stroke-width="0.25" stroke-miterlimit="10" d="M22.229,29.12c0,0-0.169,0.047-0.313,0.449"/>
</svg>
