<?xml version="1.0" encoding="utf-8"?>
<!-- Generator: Adobe Illustrator 15.0.0, SVG Export Plug-In . SVG Version: 6.00 Build 0)  -->
<!DOCTYPE svg PUBLIC "-//W3C//DTD SVG 1.1//EN" "http://www.w3.org/Graphics/SVG/1.1/DTD/svg11.dtd">
<svg version="1.1" id="Layer_1" xmlns="http://www.w3.org/2000/svg" xmlns:xlink="http://www.w3.org/1999/xlink" x="0px" y="0px"
	 width="60px" height="60px" viewBox="0 0 60 60" enable-background="new 0 0 60 60" xml:space="preserve">
<g>
	<path fill="#FFFFFF" d="M46.917,30L54,36.583c0,0,2,0.583,3.5-1s1.417-2.831-0.833-4.249c-2.25-1.417-6.417-5.834-6.417-5.834
		L46.917,30z"/>
	<g>
		<path d="M46.387,30.53c1.651,1.535,3.303,3.069,4.954,4.604c1.33,1.235,2.269,2.663,4.282,2.24
			c3.123-0.656,4.814-3.904,2.185-6.15c-2.408-2.058-4.831-3.935-7.027-6.255c-0.36-0.381-0.901-0.222-1.178,0.152
			c-1.111,1.5-2.222,3-3.333,4.5c-0.577,0.778,0.727,1.525,1.295,0.757c1.111-1.5,2.222-3,3.333-4.5
			c-0.393,0.051-0.785,0.101-1.178,0.152c1.332,1.407,2.72,2.763,4.161,4.058c1.062,0.953,2.271,1.688,3.351,2.611
			c1.773,1.516-1.202,3.155-2.266,3.238c-0.519,0.04-0.737-0.165-0.511,0.046c-2.336-2.172-4.672-4.343-7.008-6.514
			C46.74,28.812,45.677,29.871,46.387,30.53z"/>
	</g>
</g>
<g>
	<path fill="#FFFFFF" d="M24.833,50.833l5.5,6.334c0,0,2.5,2.5,4.75,0s0.917-3.834,0-4.584s-5.917-6.5-5.917-6.5L24.833,50.833z"/>
	<g>
		<path d="M24.303,51.363c1.564,1.802,3.129,3.604,4.693,5.405c1.567,1.805,3.572,2.979,5.9,1.571
			c1.3-0.786,2.313-2.604,2.125-4.121c-0.145-1.172-1.101-1.839-1.874-2.608c-1.92-1.913-3.672-4.015-5.45-6.058
			c-0.26-0.299-0.799-0.287-1.061,0c-1.444,1.583-2.889,3.167-4.333,4.75c-0.65,0.713,0.407,1.776,1.061,1.061
			c1.444-1.583,2.889-3.167,4.333-4.75c-0.354,0-0.707,0-1.061,0c1.177,1.353,2.364,2.695,3.563,4.027
			c0.677,0.751,1.357,1.502,2.073,2.216c0.241,0.239,0.509,0.45,0.755,0.684c1.498,1.418-0.601,3.823-2.176,3.988
			c-1.667,0.174-3.138-2.216-4.035-3.248c-1.151-1.325-2.303-2.651-3.454-3.978C24.729,49.571,23.672,50.637,24.303,51.363z"/>
	</g>
</g>
<path fill="#DD0B15" stroke="#000000" stroke-miterlimit="10" d="M18,39.75l-4,4.583c0,0-2.25,1.501,1.5,4.584
	s3.667,3.833,3.667,3.833s0.714,1.64,3.583-0.569s11.667-10.098,11.667-10.098s4.916,0.416,6.833-1.25s1.417-6.583,1.417-6.583
	l11.417-12.417l-4.917-5.5c0,0-1.083-2.667-4.583-0.5s-4,2.25-4,2.25l-8.834-14.5c0,0-0.916-3.417-5.833-1.833
	s-10.833,4.417-13,6.75s-7.5,6.416-9.75,16.167c0,0-0.167,2.25,0,3.25S2.927,29.012,18,39.75z"/>
<g>
	<polygon fill="#FFFFFF" points="10.417,22.083 23.333,10.083 29.75,16.083 16.417,28.667 	"/>
	<g>
		<path d="M10.799,22.578c3.598-3.343,7.195-6.685,10.793-10.028c0.618-0.574,1.236-1.148,1.854-1.723
			c0.359-0.333,0.208-0.064-0.155-0.404c0.384,0.359,0.769,0.719,1.153,1.078c1.735,1.623,3.471,3.246,5.206,4.869
			c-0.094-0.26-0.188-0.521-0.283-0.781c-3.606,3.403-7.212,6.807-10.818,10.21c-0.686,0.647-1.372,1.294-2.058,1.941
			c-0.628,0.593,0.161,0.791-0.733-0.191c-1.748-1.917-3.495-3.835-5.243-5.752c-0.574-0.63-0.562,0.174-0.198,0.573
			c2,2.194,4,4.389,6,6.583c0.075,0.082,0.35,0.332,0.481,0.208c4.444-4.194,8.889-8.389,13.333-12.583
			c0.205-0.194-0.146-0.653-0.283-0.781c-2.139-2-4.278-4-6.417-6c-0.083-0.077-0.345-0.335-0.481-0.208c-4.305,4-8.611,8-12.917,12
			C9.747,21.856,10.541,22.818,10.799,22.578z"/>
	</g>
</g>
<g>
	<circle fill="#FFFFFF" cx="31.75" cy="31.334" r="7.75"/>
	<g>
		<path d="M38,31.334c-0.434,8.056-12.066,8.056-12.5,0C25.066,23.274,37.568,23.316,38,31.334c0.104,1.924,3.104,1.934,3,0
			c-0.282-5.233-4.017-8.968-9.25-9.25c-5.222-0.281-8.991,4.44-9.25,9.25c-0.281,5.223,4.441,8.991,9.25,9.25
			c5.223,0.281,8.991-4.44,9.25-9.25C41.104,29.4,38.104,29.41,38,31.334z"/>
	</g>
</g>
<ellipse fill="#FFFFFF" stroke="#000000" stroke-miterlimit="10" cx="31.75" cy="31.334" rx="2" ry="2.083"/>
</svg>
