<?xml version="1.0" encoding="utf-8"?>
<!-- Generator: Adobe Illustrator 15.0.0, SVG Export Plug-In . SVG Version: 6.00 Build 0)  -->
<!DOCTYPE svg PUBLIC "-//W3C//DTD SVG 1.1//EN" "http://www.w3.org/Graphics/SVG/1.1/DTD/svg11.dtd">
<svg version="1.1" id="Layer_1" xmlns="http://www.w3.org/2000/svg" xmlns:xlink="http://www.w3.org/1999/xlink" x="0px" y="0px"
	 width="60px" height="60px" viewBox="0 0 60 60" enable-background="new 0 0 60 60" xml:space="preserve">
<polygon fill="#E73738" stroke="#000000" stroke-miterlimit="10" points="12.048,50.43 12.048,46.5 1.5,52.292 12.048,58.289 
	12.048,54.257 45.518,54.153 47.445,56.842 58.5,56.842 53.733,52.395 58.5,48.155 47.547,48.259 45.518,50.43 "/>
<g>
	<g>
		<path fill="#010202" d="M37.092,3.011L24.414,15.487l17.67,17.957l12.679-12.478L37.092,3.011z M41.875,26.238L31.563,15.994
			l5.738-5.776l10.312,10.244L41.875,26.238z"/>
	</g>
</g>
<polygon id="XMLID_2_" fill="#010202" points="28.394,26.137 38.975,36.659 26.494,49.209 8.479,31.295 20.959,18.744 
	24.648,22.413 15.781,31.391 26.469,42.188 31.922,36.5 28.5,33.172 24.496,37.066 20.891,33.625 "/>
</svg>
