<?xml version="1.0" encoding="utf-8"?>
<!-- Generator: Adobe Illustrator 15.0.0, SVG Export Plug-In . SVG Version: 6.00 Build 0)  -->
<!DOCTYPE svg PUBLIC "-//W3C//DTD SVG 1.1//EN" "http://www.w3.org/Graphics/SVG/1.1/DTD/svg11.dtd">
<svg version="1.1" id="Layer_1" xmlns="http://www.w3.org/2000/svg" xmlns:xlink="http://www.w3.org/1999/xlink" x="0px" y="0px"
	 width="60px" height="60px" viewBox="0 0 60 60" enable-background="new 0 0 60 60" xml:space="preserve">
<path id="XMLID_1_" fill="#FFFFFF" stroke="#000000" stroke-width="0.25" stroke-miterlimit="10" d="M19.306,38.243l-1.829-1.827
	c0,0-0.638-1.005-1.827,0c-1.188,1.007-1.735,0.113-2.924-0.446c-1.188-0.559-1.713,0.217-2.926-5.586c0,0-0.256-2.943-3.18-3.947
	l2.023-1.816l15.607-9.022c0,0-0.559,1.81-0.195,2.358c0.366,0.548,2.465,2.284,4.112,0.274c0,0,3.29,0.731,2.102,3.473
	c-1.187,2.742,1.374,5.845,2.378,4.934v1.096l0.731,0.909c0,0,1.713,0.738,2.079,2.383c0.366,1.646-3.05,3.435-3.6,3.37
	c-0.548-0.063,0.149,0.832,0.149,0.832s2.467,1.735,3.838,2.102C37.217,37.696,29.813,38.971,19.306,38.243z"/>
<g>
	<g>
		<path d="M21.071,34.707c0.218,0.606,0.621,1.271,1.162,1.643c0.459,0.314,0.849,0.449,1.394,0.522
			c0.31,0.041,2.69-0.565,2.41-1.006c0.331,0.519,0.925,0.707,1.499,0.781c0.577,0.075,1.286-0.158,1.777-0.421
			c0.229-0.121,1.69-1.174,1.833-1.115c0.386,0.161,0.771,0.321,1.157,0.481c0.123,0.051,0.238-0.117,0.17-0.221
			c-0.437-0.655-0.873-1.311-1.309-1.966c-0.501-0.753-0.048-1.364,0.219-2.204c0.445-1.401,1.047-2.763,1.578-4.134
			c0.022-0.058-0.013-0.144-0.068-0.169c-1.492-0.69-2.69-1.271-4.304-1.523c-0.189-0.03-0.271,0.259-0.08,0.289
			c0.911,0.143,1.622,0.285,2.455,0.67c0.749,0.347,1.79,0.442,1.534,1.102c-0.617,1.593-1.24,3.169-1.757,4.796
			c-0.378,1.191,0.892,2.759,1.507,3.015c-1.083-0.451-0.998-0.675-1.933,0.034c-0.933,0.71-3.14,1.813-4.035,0.409
			c-0.042-0.065-0.135-0.1-0.205-0.054c-1.78,1.171-3.912,1.222-4.715-1.011C21.295,34.446,21.005,34.524,21.071,34.707
			L21.071,34.707z"/>
	</g>
</g>
<g>
	<g>
		<path d="M31.66,27.517c1.018,0.833,2.02,1.895,3.148,2.566c2.406,1.436-1.85,3.652-3.025,4.265
			c-0.258,0.134-0.03,0.522,0.227,0.389c1.384-0.721,4.915-2.304,3.687-4.402c-0.258-0.441-0.731-0.689-1.095-0.986
			c-0.874-0.717-1.749-1.433-2.623-2.149C31.756,27.016,31.436,27.333,31.66,27.517L31.66,27.517z"/>
	</g>
</g>
<g>
	<g>
		<path d="M17.324,23.687c0.003,0.832,0.088,2.247,0.951,2.662c0.26,0.125,0.489-0.263,0.228-0.389
			c-0.691-0.333-0.726-1.607-0.728-2.273C17.773,23.397,17.323,23.397,17.324,23.687L17.324,23.687z"/>
	</g>
</g>
<g>
	<g>
		<path d="M18.935,23.481c-0.02,0.804-0.089,2.549,0.85,2.89c0.273,0.1,0.39-0.335,0.12-0.434c-0.421-0.153-0.454-1.1-0.487-1.455
			c-0.03-0.332-0.042-0.668-0.033-1.002C19.393,23.191,18.942,23.192,18.935,23.481L18.935,23.481z"/>
	</g>
</g>
<ellipse fill="#FFFFFF" stroke="#000000" stroke-width="0.5" stroke-miterlimit="10" cx="35.999" cy="25.966" rx="2.056" ry="2.279"/>
<polygon fill="#060707" stroke="#000000" stroke-width="0.5" stroke-miterlimit="10" points="31.433,26.4 32.437,28.01 
	33.416,27.395 34.398,27.395 33.955,25.759 32.97,26.532 "/>
<path fill="#060707" d="M18.389,20.568l-0.057-0.876l-0.017-0.254l0.037-0.622c0,0-0.488,0.876-0.254,0.876"/>
<g>
	<g>
		<path d="M19.483,18.27c0.099,0.507,0.198,1.015,0.297,1.522c0.049,0.248,0.351,0.33,0.551,0.224
			c0.489-0.257,0.986-0.499,1.487-0.733c0.611-0.285,1.491-0.806,2.195-0.738c0.149,0.015,0.339-0.124,0.362-0.275
			c0.115-0.788,0.185-1.621,0.393-2.187c0.497-1.348-1.452-0.736-1.962-0.51c-0.441,0.195-0.059,0.842,0.379,0.647
			c0.275-0.122,0.528-0.222,0.816-0.295c0.271-0.069,0.085-0.182,0.043-0.041c-0.032,0.109-0.101,0.191-0.118,0.308
			c-0.092,0.626-0.184,1.252-0.276,1.879c0.121-0.092,0.241-0.184,0.362-0.275c-0.74-0.072-1.568,0.394-2.224,0.682
			c-0.623,0.273-1.235,0.575-1.837,0.892c0.184,0.075,0.368,0.149,0.551,0.224c-0.099-0.507-0.198-1.015-0.297-1.522
			C20.114,17.596,19.391,17.797,19.483,18.27L19.483,18.27z"/>
	</g>
</g>
<g>
	<path fill="#010202" d="M23.375,23.927c0,0,1.337-0.925,3.358-0.686c0,0-1.199-0.754-0.856-1.954l-2.502-1.987
		c0,0,1.577,1.782,0.274,2.313c0,0,2.33-0.737,1.748,1.217L23.375,23.927z"/>
	<g>
		<path d="M23.526,24.187c0.927-0.622,2.127-0.743,3.207-0.645c0.318,0.029,0.38-0.408,0.151-0.559
			c-0.548-0.361-0.852-0.959-0.719-1.615c0.02-0.097,0.008-0.224-0.077-0.292c-0.834-0.663-1.668-1.325-2.502-1.987
			c-0.299-0.238-0.682,0.126-0.424,0.424c0.394,0.454,1.115,1.445,0.335,1.842c-0.305,0.155-0.092,0.647,0.231,0.548
			c0.189-0.058,0.385-0.095,0.582-0.116c0.178-0.019,0.355-0.012,0.531,0.024c0.118,0.023,0.213,0.083,0.285,0.181
			c0.058,0.079,0.039,0.622,0.103,0.587c-0.669,0.363-1.337,0.726-2.006,1.088C22.883,23.853,23.186,24.371,23.526,24.187
			c0.515-0.279,1.03-0.559,1.544-0.838c0.568-0.308,0.777-0.542,0.704-1.263c-0.108-1.061-1.457-0.99-2.205-0.761
			c0.077,0.183,0.154,0.365,0.231,0.548c1.224-0.623,0.447-2.022-0.214-2.784c-0.141,0.141-0.283,0.283-0.424,0.424
			c0.781,0.621,1.562,1.241,2.342,1.861c0.245,0.194,0.028-0.004,0.021,0.165c-0.014,0.345,0.019,0.693,0.19,1.002
			c0.213,0.384,0.498,0.718,0.866,0.961c0.05-0.187,0.101-0.373,0.151-0.559c-1.175-0.107-2.503,0.051-3.51,0.726
			C22.904,23.882,23.204,24.402,23.526,24.187z"/>
	</g>
</g>
<g>
	<path fill="#3877BC" d="M24.034,44.712c0,0-2.01,5.246,8.683,13.197l18.643-19.464v-9.048l-12.702-1.555l-0.731,16.998
		L24.034,44.712z"/>
	<g>
		<path d="M23.672,44.612c-1.787,5.27,5.507,11.023,8.779,13.563c0.159,0.122,0.376,0.161,0.531,0
			c4.929-5.146,9.857-10.292,14.786-15.438c0.94-0.982,3.576-2.822,3.952-4.191c0.729-2.65,0.014-6.384,0.014-9.147
			c0-0.224-0.172-0.351-0.375-0.375c-4.234-0.519-8.468-1.037-12.702-1.555c-0.209-0.025-0.367,0.19-0.375,0.375
			c-0.234,5.457-0.47,10.914-0.704,16.371c-0.035,0.812,0.534,0.254-0.422,0.245c-1.566-0.015-3.132-0.029-4.698-0.044
			c-2.808-0.026-5.616-0.052-8.424-0.078c-0.484-0.005-0.483,0.745,0,0.75c4.63,0.043,9.261,0.086,13.892,0.129
			c0.211,0.002,0.366-0.172,0.375-0.375c0.136-3.159,0.271-6.318,0.408-9.478c0.084-1.959,0.168-3.918,0.253-5.876
			c0.069-1.627-0.433-1.285,0.467-1.175c3.72,0.455,7.439,0.91,11.159,1.365c0.871,0.107,0.396,0.172,0.396-0.148
			c0,0.835,0,1.671,0,2.506c0,1.97,0,3.939,0,5.909c0,1.145-3.286,3.781-4.324,4.865c-3.058,3.192-6.114,6.384-9.172,9.576
			c-1.197,1.25-2.395,2.5-3.592,3.75c-1.402,1.464-0.827,1.576-2.425,0.336c-2.825-2.191-8.538-7.348-7.076-11.66
			C24.552,44.353,23.827,44.157,23.672,44.612z"/>
	</g>
</g>
<polygon fill="#FFFFFF" stroke="#000000" stroke-miterlimit="10" points="48.322,29.026 48.322,25.194 40.027,24.555 40.027,27.479 
	"/>
<path fill="#FFFFFF" stroke="#000000" stroke-width="0.5" stroke-miterlimit="10" d="M46.323,25.04c0,0,5.127-1.216-0.722-6.882
	c0,0,2.312,1.828,2.801-1.828l1.677,1.097c0,0,1.189,0.64,1.737-0.091c0.549-0.731-0.091-1.645-1.097-2.467
	c-1.006-0.823-1.874-3.154-4.615-0.046c-3.153,3.153,2.604-2.97,1.6-3.975c-0.822-1.371-4.752,1.736-4.844,2.285
	s5.208-4.935,1.896-5.026c-1.349-0.822-3.45,2.65-3.725,2.924c-0.274,0.274,3.017-6.215-2.649-9.687c0,0,0.457,7.585,0,8.682
	c-0.457,1.096-0.456,8.133-0.456,8.133l3.105,5.849L46.323,25.04z"/>
<g>
	<path fill="#3877BC" d="M23.029,15.871c0,0-1.553,0.365-2.193,0c-0.64-0.365-2.193-5.757-2.102-7.768
		C18.825,6.093,7.848,23.81,7.848,23.81s-2.319,3.587-0.445,1.931C5.849,26.38,23.029,15.871,23.029,15.871z"/>
	<g>
		<path d="M22.97,15.654c-4.948,1.005-2.589-8.032-4.358-7.926c-1.287,0.077-3.289,4.07-3.864,4.921
			c-2.127,3.147-4.159,6.36-6.177,9.577C8.022,23.1,6.097,25.352,6.535,26.29c0.039,0.084,0.167,0.136,0.254,0.104
			c0.386-0.146,0.371-0.177,0.772-0.493c0.178-0.141-0.014-0.446-0.219-0.376c0.031,0.384,0.143,0.456,0.334,0.216
			c0.222-0.164,0.456-0.313,0.686-0.466c0.623-0.416,1.257-0.815,1.889-1.217c1.776-1.131,3.566-2.24,5.355-3.35
			c2.507-1.555,5.02-3.102,7.537-4.641c0.247-0.151,0.021-0.541-0.228-0.389c-2.708,1.657-5.411,3.323-8.109,4.997
			c-2.288,1.419-5.88,2.858-7.662,4.927c-0.117,0.135-0.064,0.314,0.099,0.376c-0.52-0.197,1.566-3.285,1.939-3.879
			c1.944-3.099,3.916-6.182,5.953-9.22c0.918-1.369,1.847-2.742,2.88-4.027c0.198-0.246,0.523-0.44,0.493-0.747
			c0.095,0.987,0.175,1.904,0.37,2.886c0.564,2.834,0.846,5.782,4.209,5.098C23.374,16.03,23.253,15.597,22.97,15.654z"/>
	</g>
</g>
<g>
	<path fill="#3877BC" d="M32.06,35.022c0,0,3.215,2.325,4.038,2.416c0.822,0.091-5.849,1.827-16.541,0.913
		c0,0-1.554,5.118,4.478,5.94c6.031,0.823,13.982,0.458,13.892,0.549c-0.092,0.091,0.001-10.418,0.001-10.418
		S37.36,32.555,32.06,35.022z"/>
	<g>
		<path d="M31.87,35.347c1.034,0.741,2.091,1.444,3.196,2.074c1.158,0.659,0.982-0.202-0.302,0.075
			c-4.93,1.064-10.221,0.86-15.208,0.48c-0.165-0.013-0.319,0.124-0.362,0.275c-2.628,9.436,14.165,6.156,18.631,6.95
			c0.285,0.051,0.526-0.166,0.461-0.461c-0.692-3.118-0.013-7.056,0.014-10.255c0.022-2.553-5.752-0.08-6.431,0.212
			c-0.442,0.191-0.061,0.838,0.379,0.648c1.855-0.801,5.314-2.558,5.292,0.457c-0.018,2.194-0.03,4.39-0.03,6.584
			c-0.001,0.744,0,1.487,0.02,2.23c0.015,0.567,0.781-0.155,0.109-0.168c-2.68-0.051-5.357,0.024-8.039-0.073
			c-3.497-0.128-9.568,0.18-9.848-4.526c-0.09-1.523-0.005-1.109,1.175-1.02c2.034,0.155,4.076,0.172,6.114,0.146
			c1.25-0.016,8.652,0.295,9.444-1.329c0.108-0.223,0.019-0.473-0.224-0.551c-1.465-0.469-2.776-1.512-4.014-2.399
			C31.854,34.416,31.481,35.067,31.87,35.347z"/>
	</g>
</g>
<g>
	<g>
		<path d="M16.465,27.713c-0.794,0.588-1.749,1.546-1.851,2.584c-0.203,2.073,2.585,3.064,4.088,3.769
			c1.793,0.841,4.09,1.37,3.928-1.47c-0.011-0.192-0.311-0.193-0.3,0c0.142,2.486-1.725,1.962-3.232,1.32
			c-1.404-0.598-4.145-1.649-4.207-3.385c-0.036-1.002,0.974-2.004,1.725-2.56C16.771,27.858,16.621,27.598,16.465,27.713
			L16.465,27.713z"/>
	</g>
</g>
<path fill="none" stroke="#000000" stroke-width="0.25" stroke-miterlimit="10" d="M16.358,30.312c0,0,1.877-0.914,2.264-0.365
	c0.386,0.548,0,1.529,0,1.529l1.392,0.086"/>
<g>
	<g>
		<path d="M17.898,30.153c0.121,0.427,0.242,0.853,0.362,1.279c0.132,0.465,0.855,0.267,0.724-0.199
			c-0.121-0.427-0.242-0.853-0.362-1.279C18.49,29.489,17.766,29.688,17.898,30.153L17.898,30.153z"/>
	</g>
</g>
</svg>
