<?xml version="1.0" encoding="utf-8"?>
<!-- Generator: Adobe Illustrator 15.0.0, SVG Export Plug-In . SVG Version: 6.00 Build 0)  -->
<!DOCTYPE svg PUBLIC "-//W3C//DTD SVG 1.1//EN" "http://www.w3.org/Graphics/SVG/1.1/DTD/svg11.dtd">
<svg version="1.1" id="Layer_1" xmlns="http://www.w3.org/2000/svg" xmlns:xlink="http://www.w3.org/1999/xlink" x="0px" y="0px"
	 width="60px" height="60px" viewBox="0 0 60 60" enable-background="new 0 0 60 60" xml:space="preserve">
<g>
	<rect fill="#F39428" width="60" height="60"/>
	<g>
		<path d="M58.875,0c0,20,0,40,0,60c0.375-0.375,0.75-0.75,1.125-1.125c-20,0-40,0-60,0C0.375,59.25,0.75,59.625,1.125,60
			c0-20,0-40,0-60C0.75,0.375,0.375,0.75,0,1.125c20,0,40,0,60,0c1.451,0,1.451-2.25,0-2.25c-20,0-40,0-60,0
			c-0.613,0-1.125,0.512-1.125,1.125c0,20,0,40,0,60c0,0.613,0.512,1.125,1.125,1.125c20,0,40,0,60,0
			c0.613,0,1.125-0.512,1.125-1.125c0-20,0-40,0-60C61.125-1.451,58.875-1.451,58.875,0z"/>
	</g>
</g>
<polygon fill="#F9F7F4" points="55.791,30.212 29.56,55.788 4.209,29.79 30.44,2.625 "/>
<line fill="#FFFFFF" stroke="#000000" stroke-miterlimit="10" x1="10.905" y1="15.77" x2="6.572" y2="11.603"/>
<polyline fill="none" stroke="#000000" stroke-miterlimit="10" points="12.563,14.11 8.676,10.52 14.965,10.449 11.027,6.848 "/>
<path fill="none" stroke="#000000" stroke-miterlimit="10" d="M42.959,51.521l3.521,3.729c0,0,0.791,0.646-0.979,2.229"/>
<polyline fill="none" stroke="#000000" stroke-miterlimit="10" points="48.375,54.896 46.271,49.188 52.01,51.198 "/>
<line fill="none" stroke="#000000" stroke-miterlimit="10" x1="47.454" y1="52.397" x2="49.348" y2="50.266"/>
<line fill="none" stroke="#000000" stroke-miterlimit="10" x1="48.75" y1="45.751" x2="53.188" y2="50.042"/>
<line fill="none" stroke="#000000" stroke-miterlimit="10" x1="49.98" y1="44.348" x2="54.335" y2="48.556"/>
<line fill="none" stroke="#000000" stroke-miterlimit="10" x1="53.836" y1="48.773" x2="56.227" y2="46.313"/>
<g>
	<g>
		<path d="M30.89,57.214c-9-9.451-18-18.902-27-28.354c-0.334-0.351-0.864,0.18-0.53,0.53c9,9.452,18,18.903,27,28.355
			C30.694,58.096,31.224,57.564,30.89,57.214L30.89,57.214z"/>
	</g>
</g>
<line fill="none" stroke="#000000" stroke-width="0.5" stroke-miterlimit="10" x1="37.445" y1="51.521" x2="10" y2="24.125"/>
<g>
	<g>
		<path d="M15.36,17.14c9.292,9.458,18.583,18.917,27.875,28.375c0.34,0.345,0.87-0.186,0.531-0.531
			C34.474,35.526,25.182,26.068,15.89,16.61C15.551,16.264,15.021,16.795,15.36,17.14L15.36,17.14z"/>
	</g>
</g>
<g>
	<g>
		<path d="M51.234,37.558c-9.49-9.524-18.979-19.048-28.469-28.573c-0.342-0.343-0.872,0.188-0.53,0.53
			c9.49,9.524,18.979,19.049,28.468,28.574C51.045,38.432,51.575,37.901,51.234,37.558L51.234,37.558z"/>
	</g>
</g>
<g>
	<g>
		<path d="M29.032,3.155c9.104,9.667,18.208,19.333,27.313,29c0.664,0.705,1.723-0.357,1.061-1.061
			c-9.104-9.667-18.208-19.333-27.313-29C29.428,1.389,28.37,2.452,29.032,3.155L29.032,3.155z"/>
	</g>
</g>
<g>
	<g>
		<path d="M30.36,2.36c-9.292,9.479-18.583,18.958-27.875,28.438c-0.339,0.345,0.191,0.876,0.53,0.531
			C12.307,21.849,21.599,12.369,30.89,2.89C31.229,2.544,30.699,2.014,30.36,2.36L30.36,2.36z"/>
	</g>
</g>
<g>
	<g>
		<path d="M28.655,57.28c9.583-9.208,19.167-18.417,28.75-27.625c0.698-0.671-0.363-1.73-1.061-1.061
			c-9.583,9.208-19.167,18.417-28.75,27.625C26.896,56.891,27.958,57.95,28.655,57.28L28.655,57.28z"/>
	</g>
</g>
<path fill="none" stroke="#000000" stroke-miterlimit="10" d="M32.875,51.521"/>
<g>
	<g>
		<path d="M32.095,52.052c0.024,0.022,0.049,0.044,0.073,0.065c0.303-0.393,0.606-0.785,0.909-1.178
			c-1.632-1.081-3.292-1.971-5.063-2.809c-1.944-0.921-2.494-3.229-4.409-3.979c-0.784-0.308,0.124-2.969,0.214-3.474
			c0.311-1.732,1.246-1.576,2.556-1.521c1.379,0.057,3.576-0.095,3.839,1.48c0.212,1.269,2.868,5.038,4.291,3.136
			c2.136-2.858,0.25-5.334-2.563-6.597c-0.875-0.393-1.639,0.899-0.758,1.295c0.742,0.333,1.401,0.751,2.048,1.255
			c0.776,1.03,0.854,2.014,0.231,2.95c-0.056,0.106-1.395-1.57-1.25-1.376c-0.577-0.776-0.482-2.705-1.595-3.027
			c-2.138-0.617-5.254-1.146-7.316-0.161c-1.244,0.595-1.042,2.851-1.271,3.857c-0.267,1.174-0.813,2.595,0.473,3.348
			c1.6,0.938,2.518,2.596,4.025,3.683c1.76,1.271,3.955,2.02,5.791,3.236c0.71,0.471,1.543-0.611,0.908-1.179
			c-0.024-0.021-0.049-0.044-0.073-0.065C32.437,50.349,31.372,51.405,32.095,52.052L32.095,52.052z"/>
	</g>
</g>
<path fill="none" stroke="#000000" stroke-miterlimit="10" d="M27.627,48.773c0,0,0.686-5.482,2.748-5.472s2.5,0,2.5,0"/>
<path fill="none" stroke="#000000" stroke-miterlimit="10" d="M25.696,47.364c0,0,0.683-4.989,1.931-5.239s3.78-0.686,3.78-0.686"/>
<g>
	<g>
		<path d="M24.457,45.25c-0.062-0.943,0.364-2.086,0.759-2.912c1.039-2.169,3.124-2.613,5.31-1.977
			c0.465,0.136,0.663-0.588,0.199-0.723c-2.306-0.673-4.51-0.28-5.874,1.813c-0.65,0.999-1.225,2.576-1.145,3.798
			C23.738,45.73,24.488,45.733,24.457,45.25L24.457,45.25z"/>
	</g>
</g>
<g>
	<g>
		<path d="M37,48.212c-0.951-0.808-1.867-1.818-2.989-2.389c-1.95-0.992-3.397,0.058-3.748,2.104
			c-0.081,0.473,0.642,0.676,0.724,0.199c0.689-4.024,3.983-0.659,5.482,0.616C36.835,49.054,37.368,48.526,37,48.212L37,48.212z"/>
	</g>
</g>
<path fill="none" stroke="#000000" stroke-miterlimit="10" d="M28.552,38.661l-1.739-1.849c0,0-2.242-0.5-3.09-0.938
	s-1.952,0-1.952,0"/>
<g>
	<g>
		<path d="M31.535,36.509c-1.736-1.219-3.494-2.422-5.327-3.491c-2.478-1.444-3.809-5.144-3.688-7.955
			c0.042-0.967-1.458-0.963-1.5,0c-0.123,2.838,1.166,6.275,3.065,8.376c0.874,0.967,2.506,1.555,3.592,2.261
			c1.047,0.681,2.078,1.388,3.1,2.104C31.571,38.361,32.32,37.06,31.535,36.509L31.535,36.509z"/>
	</g>
</g>
<g>
	<g>
		<path d="M27.627,34.086c-0.959-0.062-1.984-0.247-2.828-0.72c-0.509-0.286-0.578-0.884-0.917-1.31
			c-0.337-0.424-1.014-0.307-1.46-0.218c-0.948,0.191-0.546,1.637,0.398,1.447c0-0.046-0.001-0.091-0.001-0.137
			c0.045,0.116,0.092,0.231,0.142,0.345c0.136,0.275,0.306,0.494,0.508,0.724c0.407,0.462,1.059,0.707,1.621,0.906
			c0.799,0.284,1.693,0.408,2.538,0.462C28.593,35.647,28.587,34.147,27.627,34.086L27.627,34.086z"/>
	</g>
</g>
<g>
	<g>
		<path d="M26.649,31.691c0.125-0.281,0.249-0.563,0.373-0.844c0.223-0.502-0.031-1.128-0.647-1.128c-0.125,0-0.249,0-0.373,0
			c-0.967,0-0.967,1.5,0,1.5c0.125,0,0.249,0,0.373,0c-0.216-0.376-0.432-0.752-0.647-1.128c-0.125,0.281-0.249,0.563-0.373,0.844
			c-0.166,0.374-0.113,0.802,0.269,1.026C25.946,32.149,26.484,32.065,26.649,31.691L26.649,31.691z"/>
	</g>
</g>
<g>
	<g>
		<path d="M28.655,27.093c0.833-0.688,1.667-1.375,2.5-2.063c0.316-0.261,0.268-0.792,0-1.061c-0.125-0.125-0.25-0.25-0.374-0.375
			c-0.274-0.274-0.792-0.308-1.061,0c-0.708,0.813-1.417,1.625-2.126,2.438C26.962,26.758,28.019,27.823,28.655,27.093
			c0.708-0.813,1.417-1.625,2.126-2.438c-0.354,0-0.707,0-1.061,0c0.125,0.125,0.25,0.25,0.374,0.375c0-0.354,0-0.707,0-1.061
			c-0.833,0.688-1.667,1.375-2.5,2.063C26.848,26.648,27.916,27.703,28.655,27.093z"/>
	</g>
</g>
<g>
	<g>
		<path d="M28.157,24.905c0.312-0.279,0.624-0.559,0.936-0.838c0.499-0.446,0.098-1.28-0.53-1.28c-0.403,0-0.806,0-1.209,0
			c-0.967,0-0.967,1.5,0,1.5c0.403,0,0.806,0,1.209,0c-0.177-0.427-0.354-0.854-0.53-1.28c-0.312,0.279-0.624,0.559-0.936,0.838
			C26.375,24.491,27.439,25.548,28.157,24.905L28.157,24.905z"/>
	</g>
</g>
<g>
	<g>
		<path d="M28.741,30.011c0.664-0.39,1.314-0.805,1.909-1.295c0.345-0.285,0.132-0.107,0.009-0.169
			c0.139,0.069,0.268,0.184,0.386,0.279c0.347,0.28,0.668,0.593,0.99,0.9c1.106,1.055,2.161,2.167,3.199,3.29
			c0.33,0.355,0.858-0.177,0.531-0.531c-1.252-1.351-2.522-2.699-3.892-3.931c-0.298-0.268-0.852-0.879-1.319-0.751
			c-0.36,0.099-0.706,0.601-1.006,0.812c-0.382,0.269-0.784,0.513-1.187,0.75C27.946,29.608,28.323,30.257,28.741,30.011
			L28.741,30.011z"/>
	</g>
</g>
<g>
	<path d="M43.75,34.836l-3.434,3.223l-1.754,0.603l-1.117,0.426c0,0,1.668-2.715,2.117-3.087c0.449-0.371,2.313-2.625,2.313-2.625
		s1.625-0.982,1.75,0.29S43.75,34.836,43.75,34.836z"/>
	<g>
		<path d="M43.484,34.57c-1.054,0.99-2.108,1.979-3.162,2.969c-0.075,0.07-0.149,0.141-0.225,0.211
			c-0.126,0.118,0.276-0.107-0.011-0.009c-0.39,0.135-0.779,0.269-1.169,0.402c-0.529,0.182-1.05,0.383-1.572,0.582
			c0.141,0.184,0.282,0.367,0.424,0.551c0.86-1.398,1.773-2.635,2.857-3.856c0.403-0.455,1.058-1.5,1.465-1.737
			c0.541-0.314,1.104-0.567,1.199,0.398c0.027,0.269,0.021,0.592,0.097,0.856c0.127,0.437,0.686,0.299,0.737-0.1
			c0-0.001,0-0.001,0-0.002c0.063-0.479-0.688-0.473-0.75,0c0,0.001,0,0.001,0,0.002c0.245-0.033,0.491-0.066,0.736-0.1
			c-0.201-0.694,0.097-1.944-0.937-2.077c-0.813-0.104-1.438,0.3-1.926,0.882c-1.484,1.773-2.907,3.373-4.128,5.354
			c-0.162,0.264,0.109,0.671,0.424,0.551c0.907-0.346,2.444-0.568,3.14-1.221c1.11-1.042,2.221-2.084,3.331-3.126
			C44.368,34.77,43.837,34.24,43.484,34.57z"/>
	</g>
</g>
<line stroke="#000000" stroke-width="0.5" stroke-miterlimit="10" x1="44.808" y1="40.721" x2="42.959" y2="38.25"/>
<g>
	<g>
		<path d="M38.017,40.043c0.697,0,1.394,0,2.091,0c0.46,0,1.253,0.164,1.68-0.07c0.824-0.453,1.627-1.07,1.936-1.986
			c0.387-1.144,0.278-2.561,0.152-3.736c-0.051-0.476-0.802-0.48-0.75,0c0.117,1.096,0.143,2.229-0.068,3.314
			c-0.118,0.608-0.531,0.993-1.008,1.352c-0.172,0.13-0.358,0.241-0.542,0.353c-0.271,0.163,0.145,0.024-0.009,0.024
			c-1.16,0-2.321,0-3.481,0C37.533,39.293,37.533,40.043,38.017,40.043L38.017,40.043z"/>
	</g>
</g>
<g>
	<g>
		<path d="M28.969,30.84c0.565,0.004,1.13,0.008,1.696,0.012c-0.121-0.092-0.241-0.184-0.362-0.275
			c0.064,0.456,0.015,1.191,0.249,1.59c0.25,0.427,0.842,0.781,1.208,1.112c0.188,0.168,0.45,0.131,0.59-0.076
			c0.116-0.173,0.232-0.346,0.35-0.519c-0.233-0.063-0.466-0.126-0.699-0.189c0,0.39,0,0.78,0,1.17c0,0.483,0.75,0.483,0.75,0
			c0-0.39,0-0.78,0-1.17s-0.496-0.489-0.699-0.189c-0.116,0.173-0.232,0.346-0.35,0.519c0.196-0.025,0.393-0.051,0.59-0.076
			c-0.381-0.342-0.761-0.685-1.141-1.026c0.15,0.135,0.086,0.156,0.057-0.054c-0.022-0.158-0.044-0.316-0.066-0.475
			c-0.038-0.272-0.076-0.544-0.114-0.816c-0.023-0.163-0.211-0.274-0.362-0.275c-0.565-0.004-1.13-0.008-1.696-0.012
			C28.485,30.086,28.485,30.836,28.969,30.84L28.969,30.84z"/>
	</g>
</g>
<path stroke="#000000" stroke-width="0.25" stroke-miterlimit="10" d="M22.169,23.537l-0.417-1.162l1.058-1.182l3.644-4.068
	c0,0,1.295-0.563,1.67-0.25s1.219,2.375,1.703,2.313s-1.016,0.972-1.016,0.972l-0.854-1.097l-0.605-0.375
	c0,0,1.147,3.375,0.772,3.875s-0.938-1.188-1.75-0.063s-1.75,3.188-1.875,1.875s0.188-1.563-0.125-1.625s-0.742-0.063-0.652-0.75
	s0-1.211,0-1.211L23,22.688v1.269L22.169,23.537z"/>
<path stroke="#000000" stroke-width="0.25" stroke-miterlimit="10" d="M32.875,27.625c0,0-1.074-0.25-0.85-1.313
	s0.844-2.313,0.409-3.438S33.422,21.688,33.68,22s-0.008,3.063,0,3.813s-0.695,0.25,0,1.25S32.875,27.625,32.875,27.625z"/>
<path stroke="#000000" stroke-width="0.25" stroke-miterlimit="10" d="M38.017,37.563c0,0-1.61-1.188-1.282-2.125s0.619,0,0.619,0
	s0.271,0.108,0.896-0.602c0.625-0.711,0.563-2.283,0-2.341s-0.672-1.377-0.805-1.624s-0.711,0-0.711,0s-0.166,1.166-0.044,1.397
	s0.7,0.437,0.755,1.396s-0.883,0.96-1.195,0.585s-0.75-1.236-0.75-1.236s-0.701,0.629-0.788,0.651s0.726,1.571,0.788,2.016
	s-0.362,1.058-0.362,1.058l2.05,2.349L38.017,37.563z"/>
<g>
	<g>
		<path d="M23.988,37.984c-1.091-1.108-2.182-2.217-3.273-3.325c-0.34-0.345-0.87,0.186-0.53,0.531
			c1.091,1.108,2.182,2.217,3.273,3.325C23.797,38.86,24.327,38.33,23.988,37.984L23.988,37.984z"/>
	</g>
</g>
<g>
	<g>
		<path d="M33.454,42.738c-0.166,0.91-0.332,1.819-0.498,2.729c-0.172,0.945,1.273,1.35,1.447,0.398
			c0.166-0.909,0.332-1.819,0.498-2.729C35.073,42.191,33.628,41.787,33.454,42.738L33.454,42.738z"/>
	</g>
</g>
<g>
	<path d="M41.75,31.313c0,0-0.779-0.75-1.015-1.313s-0.546-1.936-0.36-2.279s1.928,1.404,1.928,1.404h-0.992
		c0,0-0.33,0.232-0.248,0.875S41.75,31.313,41.75,31.313z"/>
	<g>
		<path d="M42.016,31.047c-0.85-0.828-1.298-1.813-1.322-3.011c0.057-0.211-0.027-0.206-0.251,0.015
			c0.093,0.04,0.178,0.103,0.261,0.159c0.231,0.155,0.44,0.348,0.648,0.533c0.235,0.208,0.464,0.426,0.686,0.648
			c0.089-0.213,0.177-0.427,0.266-0.64c-0.562,0-1.142-0.155-1.471,0.382c-0.487,0.794,0.128,1.847,0.652,2.446
			C41.805,31.941,42.333,31.409,42.016,31.047c-0.313-0.356-0.901-1.212-0.454-1.646c-0.254,0.074-0.309,0.107-0.164,0.099
			c0.113,0,0.228,0,0.342,0c0.188,0,0.376,0,0.563,0c0.327,0,0.497-0.409,0.266-0.64c-0.392-0.391-1.839-2.079-2.459-1.404
			c-0.452,0.493-0.033,1.691,0.119,2.224c0.214,0.753,0.703,1.358,1.256,1.898C41.831,31.915,42.362,31.386,42.016,31.047z"/>
	</g>
</g>
<g>
	<polygon points="29.828,28.876 31.672,28.876 30.875,27.375 	"/>
	<g>
		<path d="M29.828,29.251c0.615,0,1.229,0,1.844,0c0.293,0,0.455-0.316,0.324-0.564c-0.266-0.5-0.531-1-0.797-1.501
			c-0.142-0.266-0.496-0.218-0.648,0c-0.349,0.5-0.698,1.001-1.047,1.501c-0.277,0.398,0.373,0.772,0.647,0.379
			c0.349-0.5,0.698-1.001,1.047-1.501c-0.216,0-0.432,0-0.648,0c0.266,0.5,0.531,1,0.796,1.501c0.108-0.188,0.216-0.376,0.324-0.564
			c-0.614,0-1.229,0-1.844,0C29.344,28.501,29.344,29.251,29.828,29.251z"/>
	</g>
</g>
<g>
	<path d="M34.607,24.905v0.592l0.32,0.172l0.006,1.068c0,0,0.977-0.307,1.014-0.727c0.039-0.418-0.688-1.41-1.014-1.258"/>
	<g>
		<path d="M34.232,24.905c0,0.197,0,0.395,0,0.592c0,0.128,0.07,0.262,0.186,0.324c0.107,0.057,0.214,0.115,0.32,0.172
			c-0.062-0.108-0.124-0.216-0.186-0.324c0.002,0.356,0.004,0.712,0.006,1.068c0.001,0.235,0.24,0.438,0.475,0.362
			c0.558-0.18,1.382-0.547,1.275-1.259c-0.088-0.593-0.759-1.643-1.475-1.449c-0.467,0.126-0.269,0.85,0.199,0.724
			c-0.065-0.005-0.057,0.011,0.027,0.047c0.082,0.065,0.149,0.148,0.217,0.227c0.138,0.162,0.243,0.368,0.297,0.572
			c0.037,0.141-0.624,0.377-0.74,0.414c0.158,0.121,0.316,0.241,0.475,0.362c-0.002-0.356-0.004-0.712-0.006-1.068
			c-0.001-0.128-0.07-0.262-0.186-0.324c-0.107-0.057-0.214-0.115-0.32-0.172c0.062,0.108,0.124,0.216,0.186,0.324
			c0-0.197,0-0.395,0-0.592C34.982,24.421,34.232,24.421,34.232,24.905L34.232,24.905z"/>
	</g>
</g>
<g>
	<path d="M35.949,28.5c0,0,1.271,0.626,2.067-1.125"/>
	<g>
		<path d="M35.76,28.824c1.103,0.524,2.112-0.289,2.581-1.259c0.209-0.434-0.438-0.814-0.648-0.379
			c-0.229,0.478-0.522,0.925-1.069,1.041c-0.121,0.025-0.257,0.007-0.375-0.02c-0.07-0.016-0.183-0.064-0.109-0.03
			C35.704,27.97,35.323,28.616,35.76,28.824L35.76,28.824z"/>
	</g>
</g>
<g>
	<line x1="43.219" y1="28.876" x2="40.318" y2="25.737"/>
	<g>
		<path d="M43.484,28.611c-0.967-1.046-1.934-2.092-2.9-3.139c-0.329-0.356-0.858,0.176-0.531,0.53
			c0.967,1.046,1.934,2.092,2.9,3.139C43.282,29.497,43.812,28.965,43.484,28.611L43.484,28.611z"/>
	</g>
</g>
<g>
	<line x1="44.808" y1="29.494" x2="48.125" y2="26.737"/>
	<g>
		<path d="M45.338,30.024c1.105-0.919,2.212-1.838,3.317-2.757c0.745-0.619-0.322-1.674-1.061-1.061
			c-1.105,0.919-2.212,1.838-3.317,2.757C43.532,29.583,44.6,30.638,45.338,30.024L45.338,30.024z"/>
	</g>
</g>
<g>
	<g>
		<path d="M47.454,27.67c1.723,0.035,3.402-0.045,4.946,0.368c0.468,0.125,0.666-0.599,0.199-0.724
			c-1.691-0.452-3.398-0.358-5.146-0.394C46.97,26.91,46.971,27.66,47.454,27.67L47.454,27.67z"/>
	</g>
</g>
<g>
	<path d="M39.875,24.375c0,0-1.672-1.688-2.43-3.25s-4.82-4.063-5.07-4s0.063,0.063,0-0.281s-0.125-0.408,0.875-0.063
		s2.465,1.907,2.826,1.407s1.189-1.938,1.369-1.063s0.213,2.25,0.571,3.063s2.433,2.512,2.302,3.35S39.875,24.375,39.875,24.375z"/>
	<g>
		<path d="M40.141,24.11c-1.562-1.597-2.401-3.636-4.121-5.073c-0.715-0.598-2.784-2.582-3.842-2.242
			c0.122,0.209,0.243,0.418,0.365,0.627c0.176-0.185,0.178-0.322,0.207-0.578c-0.017,0.142-0.334-0.017,0.594,0.382
			c0.326,0.141,0.627,0.379,0.917,0.58c0.485,0.335,1.467,1.261,2.081,0.647c0.374-0.375,0.691-1.717,0.857-0.48
			c0.105,0.788,0.188,1.561,0.456,2.314c0.156,0.439,2.964,3.558,2.12,3.726c-0.475,0.095-0.273,0.818,0.199,0.724
			c0.896-0.179,0.753-1.507,0.454-2.085c-0.342-0.661-0.957-1.229-1.443-1.779c-0.916-1.038-0.883-2.135-1.109-3.445
			c-0.202-1.171-0.932-1.127-1.579-0.216c-0.349,0.491-0.463,0.744-1.061,0.364c-0.414-0.263-0.803-0.564-1.215-0.83
			c-0.483-0.311-1.173-0.622-1.753-0.534c-0.12,0.019-0.236,0.147-0.262,0.262c-0.011,0.044-0.001,0.423,0.006,0.417
			c-0.249,0.261-0.006,0.746,0.365,0.627c0.324-0.104,1.458,0.846,1.711,1.015c0.871,0.581,1.696,1.231,2.434,1.976
			c0.752,0.759,1.181,1.843,1.835,2.693c0.388,0.503,0.809,0.985,1.252,1.439C39.948,24.986,40.479,24.456,40.141,24.11z"/>
	</g>
</g>
</svg>
