<?xml version="1.0" encoding="utf-8"?>
<!-- Generator: Adobe Illustrator 15.0.0, SVG Export Plug-In . SVG Version: 6.00 Build 0)  -->
<!DOCTYPE svg PUBLIC "-//W3C//DTD SVG 1.1//EN" "http://www.w3.org/Graphics/SVG/1.1/DTD/svg11.dtd">
<svg version="1.1" id="Layer_1" xmlns="http://www.w3.org/2000/svg" xmlns:xlink="http://www.w3.org/1999/xlink" x="0px" y="0px"
	 width="422px" height="592px" viewBox="0 0 422 592" enable-background="new 0 0 422 592" xml:space="preserve">
<g>
	<g>
		<path fill="#000000" d="M227.33,5.48c5.689-6.2,16.779-5.3,21.41,1.72c4.51,6.08,2.699,15.1-3.17,19.62
			c3.399,10.93,6.68,21.89,10.13,32.81c4.28-11.21,9.12-22.2,13.579-33.34c-5.75-5.47-6.069-15.64,0.141-20.87
			c6.34-6.22,18.189-4.02,21.88,4.06c3.79,7.05,0.101,16.28-7.12,19.41c1.12,9.5,2.221,19.01,3.43,28.5
			c5.521-9.52,11.48-18.77,17.07-28.26c-3.74-4.66-4.609-11.57-1.31-16.69c3.79-6.51,13.159-8.69,19.409-4.48
			c6.181,3.7,8.361,12.41,4.781,18.62c-1.761,3.47-5.201,5.55-8.681,6.96c-0.92,23.92-2.25,47.83-3.021,71.76
			c28.9,14.6,55.631,34.94,73.701,62.14c17.5,26.14,26.51,58.24,23.409,89.67c-0.09,9.46-2.649,18.65-4.56,27.86
			c-2.24,9.53-4.78,19.03-8.471,28.12c-2.399,5.86-5.359,11.69-10.01,16.09c-2.34,1.26-2.939-1.47-1.91-3.029
			c3.28-7.98,3.061-16.86,2.061-25.28c-6.391,21.91-13.689,43.67-24.11,64.03c-7.17,13.85-15.62,27.279-26.899,38.17
			c-6.771,6.63-15.021,11.959-24.221,14.439c-0.25-0.56-0.75-1.689-1-2.25c2.601-3.14,4.041-7.01,5.84-10.63
			c5.19-11.55,10.23-23.69,10.48-36.53c0.34-1.77-1.55-0.47-1.83,0.291c-21.199,24.799-44.77,47.77-71.38,66.739
			c-19.11,13.56-39.86,25-62.1,32.53c-18.9,6.29-38.98,9.98-58.93,8.18c-3.07-0.54-6.44-0.29-9.27-1.64l0.08-1.37
			c27.07-17.891,53.98-37.1,74.74-62.35c9.36-11.83,18.23-25.44,18.879-40.98c-15.739,12.92-34.04,22.33-52.759,30.12
			c-49.53,20.101-103.46,27.229-156.64,27.239c-1.78,0.19-4.83-0.18-3.77-2.739c12.53-9.92,24.27-21.04,33.43-34.21
			c11.33-16.23,19.35-35.33,20.13-55.28c-6.45,5.55-13.91,10.79-17.17,18.99c-1.01,2.01-3-0.49-3.26-1.75
			c-4.39-10.57-6.79-22.49-4.15-33.8c4.7-11.15,8.13-23.061,8.28-35.25c-1.01-0.43-2.01-0.86-3-1.3
			c-0.85-10.21-2.98-20.27-3.61-30.49c-0.29-10.3,3.43-22.11,13.26-26.98c22.88-8.48,45.89-16.67,68.83-24.96
			c0.64-5.08-0.73-10.71,1.8-15.39c12.17-4.37,24.19-9.47,36.08-14.67c0.61-5.34,0.89-10.72,1.39-16.07
			c0.8-15.01,7.54-29.9,19.31-39.49c6.2-5.16,13.43-9,21.01-11.72c-3.75-19.46-7.5-38.91-11.26-58.36
			c-8.53-0.34-15.48-9.17-13.02-17.53c1.83-8.771,13-13.46,20.58-8.681c6.98,3.771,8.94,13.46,4.71,20
			c6.79,9,13.66,17.95,20.5,26.92c2.91-12.28,6.091-24.5,8.9-36.8C222.51,22.85,220.98,11.48,227.33,5.48z M232.74,28.65
			c-3.28,13.15-6.29,26.37-9.75,39.47c-0.51,0.14-1.54,0.41-2.051,0.55c-7.709-9.51-14.87-19.46-22.35-29.15
			c-2.18,1.67-4.62,2.98-7.29,3.65c3.55,18.92,7.27,37.81,10.9,56.72c4.86-0.09,9.39-2.04,14.149-2.77
			c25.28-4.69,51.28-3.12,76.601,0.48c6.92,0.91,13.729,2.83,19.81,6.32c1.1-23.35,2.16-46.71,3.11-70.07
			c-3.17-0.06-6.21-1.01-8.9-2.64c-6.3,10.27-12.52,20.6-18.84,30.86c-0.45,1.06-2.92,1.31-2.89-0.23
			c-1.59-10.67-2.61-21.43-3.971-32.13c-3.26,0.23-6.51-0.22-9.47-1.61c-4.75,11.42-9.44,22.87-14.14,34.31
			c-0.7,1.52-1.49,4.02-3.44,2.2c-4.02-12-7.54-24.19-11.26-36.29C239.63,29.29,236.13,29.56,232.74,28.65z M240.59,120.74
			c-14.39,1.74-28.68,9.02-36.7,21.37c-2.16,2.7,2.55,6.16,4.33,3.15c7.459-10.75,19.83-17.41,32.7-18.94
			c14.34-1.96,28.73,1.54,42.18,6.3c3.36,1.03,4.69-4.4,1.42-5.25C270.6,122.09,255.51,118.95,240.59,120.74z M235.811,155.59
			c-2.141,0.57-2.41,2.74-2.17,4.63c2.829,2.01,5.81-0.3,8.639-1.05c11.48-3.65,24.891-4.43,35.561,1.96
			c5.17,2.81,8.551,7.68,12.141,12.15c2.6,1.43,5.109-1.82,3.51-4.13c-4.95-8.21-13.141-14.44-22.45-16.85
			C259.37,149.23,246.88,151.2,235.811,155.59z M305.46,161.53c-2.01,1.41-1.12,4.43,1.17,4.94c19.8,8.51,37.97,23.75,45.07,44.65
			c6.319,18.32,2.89,38.51-4.44,55.99c-1.109,3.05-3.13,5.8-3.67,9.03c0.391,2.63,4.24,3.24,5.27,0.72
			c4.74-9.62,8.431-19.84,10.371-30.41c2.859-15.31,1.35-31.71-5.86-45.65c-8.07-15.97-22.19-28.2-37.931-36.31
			C312.279,163.26,308.96,160.36,305.46,161.53z M155.54,173.37c-10.59,4.19-20.86,9.23-31.77,12.55c-1,4.64-0.61,9.39-0.46,14.1
			c-2.06,2.53-5.5,3.01-8.38,4.13c-19.4,6.75-38.65,13.92-57.96,20.9c-3.34,1.2-6.83,2.99-8.3,6.43c5.2,0.1,10.17-2.51,15.35-1.8
			c5.21,0.95,4.37,8.64,0.45,10.64c-7.2,3.8-14.32,8.25-19.44,14.71c-1.71,2.31-3.53,5.04-2.84,8.08
			c0.68,5.46,1.48,10.91,2.06,16.39c5.46-1.44,11.29-1.81,16.82-0.53c5.56,1.34,9.96,5.17,14.51,8.41
			c4.38,3.07,9.63,4.49,14.81,5.57c0.42,1.65-0.35,3.12-2.18,3.14c-7.97,0.35-16.17-2.72-21.55-8.7
			c-4.37-5.83-12.55-5.87-19.13-5.12c-0.27,11.17-2.81,22.19-6.83,32.58c-4.98,10.851-2.21,23.33,1.55,34.121
			c9.07-12.931,23.1-20.861,35.11-30.681c11.84-9.78,23.41-20.41,31.35-33.72c2.43-4.06,7.08-5.79,11.24-7.5
			c18.04-6.59,37.19-9.28,56.02-12.54c14.28-8.39,26.64-21.4,31.65-37.45c3.22-10.7,2.68-22.6-1.64-32.91
			c-5.88-10.05-14.69-19.13-26.02-22.72C171.93,168.89,163.19,170.16,155.54,173.37z M242.2,192.97
			c0.979,3.92,4.649,6.51,5.45,10.56c3.649,12.979-1.711,26.25-7.351,37.81c4.32,2.24,9.04-1.11,12.55-3.53
			c8.74-7.11,16.561-16.52,18.471-27.93c0.979-6.34,0.42-13.42-3.59-18.68c-2.931-3.9-8.07-5.46-12.791-5
			C249.92,186.47,245.66,189.56,242.2,192.97z M232.29,188.07c0,0.47,0,1.41,0,1.89c5.319,6.16,9,13.84,9.17,22.1
			c0.36,14.44-5.76,28.18-13.521,40.05c-1.01,1.52-0.649,2.68,1.08,3.49c2.92-1.67,4.07-5.08,5.84-7.77
			c7.201-12.87,12.431-28.02,9.311-42.88c-1.609-6.55-4.63-13.32-10.05-17.54C233.66,187.58,232.75,187.9,232.29,188.07z
			 M299.74,219.57c-6.631,31.92-25.78,60.89-52.131,79.991c-16.119,11.76-34.719,19.91-54.02,24.779c-1.66,0.18-2.81,1.32-3.38,2.85
			c1.1,0.931,2.33,1.221,3.69,0.851c17.4-4.37,34.23-11.271,49.32-21.021c27.89-17.899,49.011-46.14,57.99-78.06
			c0.8-3.12,1.92-6.29,1.38-9.54C301.63,219.45,300.68,219.5,299.74,219.57z M307.82,284.58c-1.93,20.55-12.51,39.8-27.74,53.55
			c-5.78,5.41-12.41,9.78-19.23,13.761c-2.42,0.619-1.55,4.649,1.08,3.42c25.771-13.48,45.91-39.09,49.26-68.4
			C311.8,284.6,309.561,283.92,307.82,284.58z M177.71,287.62c-9.68,9.47-21.37,16.67-33.58,22.42
			c-7.01,3.36-14.57,5.569-21.16,9.79c-12.28,7.6-22.06,20.13-24.4,34.59c1.33,0.41,3.66,0.95,3.79-1.17
			c2.91-12.23,10.98-22.92,21.51-29.66c6.38-4.34,13.85-6.52,20.78-9.77c10.83-4.99,21.22-11.1,30.36-18.8
			c2.48-2.14,5.13-4.22,6.75-7.14C180.61,286.83,178.76,285.97,177.71,287.62z M92.11,383.55c-3.19,0.729-6.52,0.841-9.62,1.91
			c-2.1,1.55,0.47,3.899,2.39,3.021c28.44-4.121,55.45-16.211,78.51-33.201c1.93-1.549,4.68-2.93,4.31-5.84
			c-0.65-0.01-1.96-0.029-2.61-0.039C143.76,366.05,118.7,378.189,92.11,383.55z"/>
	</g>
	<path fill="#000000" d="M144.13,193.52c7.48-4.51,14.79-9.55,22.82-13.04l1.29,0.36c1.42,3.38-3.2,3.77-5.23,5.15
		C156.69,188.39,151,193.02,144.13,193.52z"/>
	<path fill="#000000" d="M147.34,193.78c8.54-2.021,16.43-6.19,24.96-8.3c2.6,5.43-1.34,10.79-4.24,15.19
		c-8.5,0.38-16.31,5.52-20.44,12.88c-1.2,2.81-6,4.29-7.88,1.43c-1.36-4.7,1.49-9.38,5.31-11.96
		C148.21,200.96,147.29,196.94,147.34,193.78z"/>
	<path fill="#000000" d="M143.95,193.39c0.47,0.61,0.93,1.22,1.4,1.83c-0.67,2.68-0.08,6.56-3.25,7.78
		C143.83,200.07,144.04,196.71,143.95,193.39z"/>
	<g>
		<path fill="#000000" d="M3.22,509.74c-1.73-1.711-1.6-6.7,1.72-6.221c6.33,0.19,12.66,0.041,18.98,0.041
			c1.83-0.17,2.73,1.719,3.3,3.14c6.09,14.84,12.24,29.67,18.37,44.5c6.03-13.74,12.36-27.351,18.45-41.08
			c1.22-2.341,1.39-6.41,4.89-6.28c5.34-0.14,10.69-0.33,16.04-0.27c2.87,0.029,2.86,4.24,1.54,5.91
			c-2.09,0.939-4.61,0.379-6.86,0.75c-0.44,17.289-0.49,34.59-0.01,51.869c-0.17,4.051,5.15,1.851,7.62,2.42
			c0.27,0.26,0.81,0.801,1.08,1.061c1.94-1.471,4.4-1.12,6.65-1.54c1.02-0.761,1.43-2.03,1.98-3.12
			c5.88-14.29,11.05-28.859,16.46-43.33c-0.29-0.68-0.88-2.05-1.17-2.73c2.03-2.359,5.37-2.85,7.57-5.039
			c1.16-1.15,3.6-2.561,4.51-0.36c5.62,15.899,10.34,32.11,16.14,47.96c0.94,2.23,1.48,4.971,3.67,6.38c2.05,1,4.65,0.03,6.53,1.45
			c0.42,1.689,1.06,5.32-1.66,5.189c-7.01-0.08-14.02-0.02-21.02-0.109c-2.59,0.15-2.98-3.43-1.84-5.08
			c1.28-1.25,3.28-0.71,4.87-1.05c-1.34-5.36-3.15-10.58-4.86-15.82c-5.84-0.01-11.68-0.01-17.52,0
			c-1.83,5.29-4.17,10.431-5.41,15.91c2.24,0.28,4.76-0.431,6.84,0.681c0.88,1.539,0.76,3.59-0.08,5.129
			c-3.57,0.881-7.32,0.03-10.96,0.271c-3.51-0.2-7.23,0.659-10.53-0.86c-0.34,0.36-1.03,1.07-1.38,1.43
			c-8.74-0.08-17.5-0.049-26.24-0.09c-3.21,0.36-3-4.01-1.91-5.899c2.75-0.88,5.75-0.3,8.61-0.511
			c0.58-16.029,0.38-32.08,0.27-48.119c-7.26,16.24-14.74,32.39-21.66,48.789c-0.95,2.101-2.19,5.67-5.18,4.391
			c-1.69-1.74-2.24-4.21-3.21-6.359c-6.31-15.521-12.37-31.131-19.06-46.49c-0.07,14.119-0.52,28.24-0.03,42.35
			c0.26,1.67,0.01,3.77,1.26,5.09c2.37,1.051,5.4-0.34,7.64,1.07c0.75,1.76,0.21,3.699,0.04,5.54c-8.25,0.46-16.54,0.079-24.8,0.12
			c-2.93,0.039-2.72-4.69-1.03-6.07c2.36-0.45,4.8-0.1,7.17-0.49c2.02-1.46,1.82-4.25,2.19-6.439c1.12-15.86,1.14-31.771,0.85-47.66
			C9.11,509.92,6.13,510.23,3.22,509.74z M117.92,522.971c-2.39,6.5-4.86,12.969-7.1,19.529c4.46,0,8.93,0,13.39,0
			C122.13,535.98,120.03,529.48,117.92,522.971z"/>
	</g>
	<path fill="#000000" d="M150.11,509.04c-0.34-1.819-0.94-5.56,1.88-5.49c8.28,0.07,16.58,0.12,24.87-0.021
		c3.03-0.329,2.83,3.511,2.23,5.461c-2.14,1.949-5.55,0.619-8.21,1.15c-0.55,16.26-0.16,32.539-0.62,48.799
		c0,5.86-0.21,12.011-3.09,17.291c-3.4,6.25-8.8,12.119-16.03,13.58c-3.82,0.859-8.83-0.73-9.98-4.83
		c-1.17-3.36,1.46-7.15,4.96-7.42c3.79-0.74,7.18,1.56,9.69,4.149c1.25-2.069,2.58-4.2,2.79-6.67c1.07-8.31,0.72-16.7,0.77-25.05
		c-0.35-13.24,0.18-26.51-0.62-39.73C155.91,509.74,152.61,510.721,150.11,509.04z"/>
	<path fill="#000000" d="M280.1,509.13c1.891-2.76,4.75,1,7.07,1.21c11.92,0.86,23.91,0.811,35.84,0.141
		c2.95-0.01,5.34-2.041,8.11-2.78c2.409,5.11,2.17,10.989,3.39,16.44c1.08,2.58-2.52,4.399-4.529,3.189
		c-1.951-3.09-2.631-7.35-5.94-9.34c-4.38-1.23-9.021-0.85-13.521-1.141c-0.02,15.83-0.14,31.66,0.28,47.48
		c2.271,0.05,4.56-0.08,6.841,0.15c2.93,1.029,1.959,7.129-1.621,6.01c-8.229-0.561-16.6,0.66-24.74-0.721
		c0-1.75,0.07-3.49,0.301-5.209c2.75-0.181,5.51-0.181,8.27-0.36c0.26-15.78,0.28-31.56,0.28-47.351
		c-4.87,0.67-10.87-1.029-14.84,2.5c-2.07,2.17-2.97,5.11-4.64,7.551c-1.871,1.47-5.721-0.26-4.67-2.891
		C277.359,519.061,278.51,514.02,280.1,509.13z"/>
	<path fill="#000000" d="M249.9,510.96c5.41-1.76,11.319-1.06,16.569,0.91c1.3-1.28,4.091-3.08,5.101-0.55
		c0.63,4.84,1.07,9.75,1.38,14.64c0.1,2.46-4.101,3.41-4.74,0.89c-1.45-4.05-3.71-8.24-7.76-10.16c-3.4-1.209-7.72-1.25-10.47,1.391
		c-3.141,3.25-3,9.42,0.789,12.141c6.49,4.779,15.94,4.229,21.301,10.77c6.25,8.02,4.609,21.34-3.631,27.42
		c-7.369,5.02-17.76,3.74-24.66-1.54c-1.1,1.979-4.439,2.819-5.359,0.22c0.189-4.699,0.84-9.369,1.17-14.061
		c0.13-1.399,0.439-3.739,2.4-3.43c3.27-0.49,3.1,3.211,3.47,5.381c1.16,7.439,9.89,12.83,16.88,9.279
		c6.11-2.71,5.939-11.939,0.86-15.59c-5.2-3.96-12.171-4.48-17.38-8.439c-5.67-3.631-7.69-11.051-6.561-17.4
		C240.52,517.46,244.561,512.63,249.9,510.96z"/>
	<path fill="#000000" d="M375.22,518.221c9.62-9.671,25.62-10.5,37.25-4.061c0.48-2.23,3.431-3.85,5.06-1.68
		c0.921,5.75,1.57,11.58,2.301,17.369c0.199,2.871-4.66,3.51-5.26,0.74c-1.771-4.029-4.11-7.869-7.551-10.68
		c-7.109-6.49-19.85-5.15-25.16,3.01c-8.209,12.46-4.469,31.78,8.621,39.42c8.42,3.57,19.069,1.131,25.129-5.74
		c1.07-1.06,1.91-2.479,3.4-3.01c1.69,0.07,3.17,1.641,3.08,3.37c-4.65,7.84-13.061,13.46-22.17,14.399
		c-7.63,0.711-15.71-0.81-21.95-5.449c-5.909-4.08-9.18-10.95-10.68-17.78C364.93,537.689,367.55,525.9,375.22,518.221z"/>
	<path fill="#000000" d="M182.16,511.26c1.8-0.83,3.88-0.23,5.81-0.32c12.03,0.121,24.059,0.08,36.09-0.01
		c1.699,0.26,1.869,2.15,2.399,3.461c1.11,3.84,2.649,7.569,3.479,11.5c-0.35,1.689-2.22,2.899-3.899,2.459
		c-4.31-3.709-6.771-10.359-13.011-11.24c-9.959-0.5-19.929-0.609-29.899-0.689C180.62,516.359,180.65,512.52,182.16,511.26z"/>
	<path fill="#000000" d="M336.91,517.05c-3.42,0.32-3.36-6.21-0.03-6.01c7.39,0.06,14.79,0.17,22.181-0.021
		c3.489-0.66,4.17,5.4,0.969,5.99c-1.739,0.17-3.489,0.16-5.219,0.23c-0.351,15.65-0.281,31.31,0,46.97
		c1.909,0.09,3.84,0.06,5.76,0.3c2.959,0.5,2.619,6.27-0.641,5.94c-7.68-0.16-15.38,0.06-23.05-0.171
		c-2.521-0.25-2.399-4.159-1-5.559c2.55-0.57,5.22-0.271,7.81-0.66c0.42-15.561,0.61-31.141-0.01-46.69
		C341.42,517.17,339.16,517.17,336.91,517.05z"/>
	<path fill="#000000" d="M211.5,529.37c1.48-1.681,5.561-1.16,5.45,1.489c-0.16,5.761-0.08,11.531,0.239,17.281
		c0.061,2.18-2.729,2.409-4.34,2.399c-2.75-1.53-1.04-6.069-3.89-7.46c-5.91-0.85-11.92-0.391-17.86-0.66
		c-2.75,0.189-2.93-5.18-0.26-5.311c6.08-0.34,12.26,0.131,18.28-0.93C211.06,534.51,210.29,531.45,211.5,529.37z"/>
	<path fill="#000000" d="M228.4,553.561c1.58-1.65,4.039-0.15,4.939,1.459c-0.76,3.94-2.58,7.58-3.811,11.391
		c-0.609,1.73-1.369,4.21-3.68,4.029c-13.959,0.451-27.919-0.049-41.879,0.021c-2.57,0.45-3.39-2.51-2.7-4.431
		c0.2-1.709,2.55-1.26,3.75-1.439c7.98-0.14,15.96-0.21,23.94,0.17c3.94,0,8.24,0.25,11.72-1.97
		C223.9,560.311,225.74,556.561,228.4,553.561z"/>
</g>
</svg>
