<?xml version="1.0" encoding="utf-8"?>
<!-- Generator: Adobe Illustrator 15.0.0, SVG Export Plug-In . SVG Version: 6.00 Build 0)  -->
<!DOCTYPE svg PUBLIC "-//W3C//DTD SVG 1.1//EN" "http://www.w3.org/Graphics/SVG/1.1/DTD/svg11.dtd">
<svg version="1.1" id="Layer_1" xmlns="http://www.w3.org/2000/svg" xmlns:xlink="http://www.w3.org/1999/xlink" x="0px" y="0px"
	 width="60px" height="60px" viewBox="0 0 60 60" enable-background="new 0 0 60 60" xml:space="preserve">
<path fill="#EDDA32" stroke="#000000" stroke-miterlimit="10" d="M25.778,19.478c0,0-24.583,6.86-24.417,20.61l1,3.891
	c0,0,4.583-11.335,24.583-12.834v-2.667l-13.167,2.083c0,0-1-0.167-0.917-0.917s8.25-6.333,12.917-7.333V19.478z"/>
<path fill="#EFD938" stroke="#000000" stroke-miterlimit="10" d="M40.361,19.478v3.667c0,0,9.5,1.833,11.834,6.917h-1.084
	c0,0-9.416-0.333-9.832-0.75c-0.418-0.417,0.25,2.417,0.25,2.417s15.5,3.499,16.332,9.666
	C58.695,47.562,62.529,23.145,40.361,19.478z"/>
<g>
	<g>
		<path fill="#EFD938" d="M41.529,31.729c-7.5-0.667-16.432-0.771-20.267,0.167s-18.65,5-18.9,11.333c0,0,1.166,12.5,27.083,12
			c25.917-0.5,28.977-11.313,29.079-13.569C58.623,39.403,49.029,32.396,41.529,31.729z M29.445,46.062
			c-9.75,0.083-16.75-2.249-18.667-5.333c0,0,2.611-4.667,17.597-5.417c14.986-0.75,21.125,3,21.125,3S39.195,45.979,29.445,46.062z
			"/>
	</g>
	<g>
		<path fill="none" stroke="#000000" stroke-miterlimit="10" d="M41.529,31.729c-7.5-0.667-16.432-0.771-20.267,0.167
			s-18.65,5-18.9,11.333c0,0,1.166,12.5,27.083,12c25.917-0.5,28.977-11.313,29.079-13.569
			C58.623,39.403,49.029,32.396,41.529,31.729z M29.445,46.062c-9.75,0.083-16.75-2.249-18.667-5.333c0,0,2.611-4.667,17.597-5.417
			c14.986-0.75,21.125,3,21.125,3S39.195,45.979,29.445,46.062z"/>
	</g>
</g>
<path fill="#010202" stroke="#000000" stroke-miterlimit="10" d="M41.529,31.729c0,0-0.229-1.479-0.25-2.417
	s-0.271-9.833-0.271-9.833l-2.375-2.104H26.07l-0.292,2.104L26,31.315C26,31.315,34.176,31.083,41.529,31.729z"/>
<path fill="#010202" stroke="#000000" stroke-miterlimit="10" d="M12.945,49.315c0,0-5.398-2.686-5.398-4.479
	c0,0-0.018-1.962,3.892-4.768c0,0-0.359,1.74,2.324,3.158C13.762,43.227,11.111,42.981,12.945,49.315z"/>
<path fill="#010202" stroke="#000000" stroke-miterlimit="10" d="M46.852,40.068c-0.193,0.118,2.094,3.994,0.928,7.077
	c0,0,5.207-1.292,6.416-5.417c0,0-0.166-1.979-4.695-3.417C49.5,38.312,47.047,39.95,46.852,40.068z"/>
<path fill="#E7F1F2" d="M27.273,17.921c0,0-0.453,9.078,0.984,10.953l12.5,0.125l-0.25-5c0,0,0.188-4.813-2.875-6.313L27.273,17.921
	z"/>
<ellipse fill="none" stroke="#000000" stroke-miterlimit="10" cx="34.727" cy="22.369" rx="3.031" ry="2.182"/>
<line fill="none" stroke="#000000" stroke-miterlimit="10" x1="34.727" y1="24.812" x2="34.727" y2="26.812"/>
<line fill="none" stroke="#000000" stroke-miterlimit="10" x1="37.07" y1="24.188" x2="39.195" y2="26.374"/>
<line fill="none" stroke="#000000" stroke-miterlimit="10" x1="32.883" y1="24.551" x2="30.443" y2="26.812"/>
<line fill="none" stroke="#000000" stroke-miterlimit="10" x1="31.32" y1="22.369" x2="29.445" y2="22.369"/>
<line fill="none" stroke="#000000" stroke-miterlimit="10" x1="32.547" y1="20.979" x2="29.974" y2="19.028"/>
<line fill="none" stroke="#000000" stroke-miterlimit="10" x1="34.727" y1="20.187" x2="34.727" y2="18.499"/>
<line fill="none" stroke="#000000" stroke-miterlimit="10" x1="36.893" y1="20.844" x2="37.758" y2="19.57"/>
<line fill="none" stroke="#000000" stroke-miterlimit="10" x1="37.758" y1="22.369" x2="39.195" y2="22.369"/>
<g>
	<g>
		<path d="M23.071,18.042c-1.75-0.375-3.5-0.75-5.25-1.125c-0.417-0.089,0.31,0.846,0.622,0.913c1.75,0.375,3.5,0.75,5.25,1.125
			C24.11,19.045,23.384,18.109,23.071,18.042L23.071,18.042z"/>
	</g>
</g>
<g>
	<g>
		<path d="M24.938,15.189c-1.375-1.167-2.75-2.333-4.125-3.5c-0.315-0.267-1.43,0.224-1.11,0.495c1.375,1.167,2.75,2.333,4.125,3.5
			C24.142,15.951,25.257,15.46,24.938,15.189L24.938,15.189z"/>
	</g>
</g>
<g>
	<g>
		<path d="M29.427,12.975c-0.833-1.792-1.667-3.583-2.5-5.375c-0.229-0.491-1.422-0.15-1.214,0.298
			c0.833,1.792,1.667,3.583,2.5,5.375C28.441,13.764,29.635,13.423,29.427,12.975L29.427,12.975z"/>
	</g>
</g>
<g>
	<g>
		<path d="M33.775,13.003c0.49-2.063,0.979-4.125,1.469-6.188c0.086-0.361-0.939-1.037-1.035-0.633
			c-0.49,2.063-0.98,4.125-1.469,6.188C32.654,12.731,33.68,13.407,33.775,13.003L33.775,13.003z"/>
	</g>
</g>
<g>
	<g>
		<path d="M39.576,14.245c1.396-1.552,2.791-3.104,4.188-4.656c0.541-0.602-0.512-0.271-0.762,0.009
			c-1.396,1.552-2.793,3.104-4.188,4.656C38.273,14.855,39.324,14.525,39.576,14.245L39.576,14.245z"/>
	</g>
</g>
<g>
	<g>
		<path d="M43.955,16.814c1.709-0.979,3.416-1.958,5.125-2.938c-0.014,0.008-0.883-0.53-1.145-0.38
			c-1.709,0.979-3.418,1.958-5.125,2.938C42.824,16.426,43.693,16.964,43.955,16.814L43.955,16.814z"/>
	</g>
</g>
<g>
	<g>
		<path d="M45.424,19.849c1.414-0.177,2.83-0.354,4.244-0.531c0.809-0.102,0.395-1.104-0.334-1.013
			c-1.414,0.177-2.83,0.354-4.244,0.531C44.281,18.938,44.695,19.94,45.424,19.849L45.424,19.849z"/>
	</g>
</g>
</svg>
