<?xml version="1.0" encoding="UTF-8" standalone="no"?>
<!-- Generator: Adobe Illustrator 12.0.0, SVG Export Plug-In . SVG Version: 6.00 Build 51448)  -->
<svg
   xmlns:dc="http://purl.org/dc/elements/1.1/"
   xmlns:cc="http://web.resource.org/cc/"
   xmlns:rdf="http://www.w3.org/1999/02/22-rdf-syntax-ns#"
   xmlns:svg="http://www.w3.org/2000/svg"
   xmlns="http://www.w3.org/2000/svg"
   xmlns:sodipodi="http://sodipodi.sourceforge.net/DTD/sodipodi-0.dtd"
   xmlns:inkscape="http://www.inkscape.org/namespaces/inkscape"
   version="1.0"
   id="Layer_1"
   width="286.28699"
   height="77.668915"
   viewBox="0 0 290.898 100.239"
   overflow="visible"
   enable-background="new 0 0 290.898 100.239"
   xml:space="preserve"
   sodipodi:version="0.32"
   inkscape:version="0.45.1"
   sodipodi:docname="Monopoly[1] [Converted].svg"
   inkscape:output_extension="org.inkscape.output.svg.inkscape"
   sodipodi:docbase="C:\Users\Virgile"><metadata
   id="metadata2651"><rdf:RDF><cc:Work
       rdf:about=""><dc:format>image/svg+xml</dc:format><dc:type
         rdf:resource="http://purl.org/dc/dcmitype/StillImage" /></cc:Work></rdf:RDF></metadata><defs
   id="defs2649">
	
	
	
</defs><sodipodi:namedview
   inkscape:window-height="748"
   inkscape:window-width="1024"
   inkscape:pageshadow="2"
   inkscape:pageopacity="0.0"
   guidetolerance="10.0"
   gridtolerance="10.0"
   objecttolerance="10.0"
   borderopacity="1.0"
   bordercolor="#666666"
   pagecolor="#ffffff"
   id="base"
   inkscape:zoom="2.3238385"
   inkscape:cx="145.44901"
   inkscape:cy="50.119499"
   inkscape:window-x="1392"
   inkscape:window-y="-8"
   inkscape:current-layer="Layer_1" />

<g
   transform="matrix(1.2905935,0,0,1.2905935,-39.291069,-4.1067751)"
   id="g2442">
		<g
   id="g2444">
			<path
   style="fill:none;stroke:#ed1c24;stroke-width:6;stroke-linecap:round;stroke-linejoin:round"
   id="path2446"
   d="M 283.287,34.425 C 283.287,32.831 281.995,31.538 280.4,31.538 L 280.4,31.533 L 168.361,31.533 L 168.373,31.521 C 162.014,24.816 153.061,20.642 143.144,20.642 C 133.227,20.642 124.273,24.816 117.915,31.521 L 117.927,31.533 L 5.89,31.533 L 5.89,31.534 C 4.295,31.534 3.003,32.826 3.003,34.421 L 3,34.421 L 3,74.964 C 3,76.559 4.292,77.851 5.887,77.851 L 5.887,77.833 L 141.273,77.833 L 148.921,77.833 L 280.4,77.833 L 280.4,77.851 C 281.994,77.851 283.287,76.559 283.287,74.964 L 283.287,34.425" />
		</g>
		<g
   id="g2448">
			<path
   style="fill:#ed1c24;stroke:#ed1c24;stroke-width:5.50509977;stroke-linecap:round;stroke-linejoin:round"
   id="path2450"
   d="M 283.287,34.425 C 283.287,32.831 281.995,31.538 280.4,31.538 L 280.4,31.533 L 168.361,31.533 L 168.373,31.521 C 162.014,24.816 153.061,20.642 143.144,20.642 C 133.227,20.642 124.273,24.816 117.915,31.521 L 117.927,31.533 L 5.89,31.533 L 5.89,31.534 C 4.295,31.534 3.003,32.826 3.003,34.421 L 3,34.421 L 3,74.964 C 3,76.559 4.292,77.851 5.887,77.851 L 5.887,77.833 L 141.273,77.833 L 148.921,77.833 L 280.4,77.833 L 280.4,77.851 C 281.994,77.851 283.287,76.559 283.287,74.964 L 283.287,34.425" />
		</g>
		<g
   id="g2452">
			<path
   style="fill:none;stroke:#ffffff;stroke-width:2.93600011;stroke-linecap:round;stroke-linejoin:round"
   id="path2454"
   d="M 283.287,34.425 C 283.287,32.831 281.995,31.538 280.4,31.538 L 280.4,31.533 L 168.361,31.533 L 168.373,31.521 C 162.014,24.816 153.061,20.642 143.144,20.642 C 133.227,20.642 124.273,24.816 117.915,31.521 L 117.927,31.533 L 5.89,31.533 L 5.89,31.534 C 4.295,31.534 3.003,32.826 3.003,34.421 L 3,34.421 L 3,74.964 C 3,76.559 4.292,77.851 5.887,77.851 L 5.887,77.833 L 141.273,77.833 L 148.921,77.833 L 280.4,77.833 L 280.4,77.851 C 281.994,77.851 283.287,76.559 283.287,74.964 L 283.287,34.425" />
		</g>
		<g
   id="g2456">
			<g
   id="g2458">
				<polygon
   style="fill:#ffffff"
   id="polygon2460"
   points="29.11,72.155 41.492,52.511 43.811,72.199 48.973,71.368 45.954,45.467 44.992,37.155 40.529,44.243 29.11,62.399 17.691,44.243 13.229,37.155 12.266,45.467 9.247,71.368 14.41,72.199 16.729,52.511 29.11,72.155 " />
			</g>
			<path
   style="fill:#ffffff"
   id="path2462"
   d="M 87.886,55.114 C 87.886,65.002 79.836,73.052 69.948,73.052 C 60.06,73.052 52.01,65.002 52.01,55.114 C 52.01,45.227 60.06,37.176 69.948,37.176 C 79.836,37.176 87.886,45.227 87.886,55.114 z M 57.261,55.114 C 57.261,62.114 62.949,67.802 69.949,67.802 C 76.949,67.802 82.637,62.114 82.637,55.114 C 82.637,48.114 76.949,42.426 69.949,42.426 C 62.949,42.426 57.261,48.114 57.261,55.114 z " />
			<g
   id="g2464">
				<polygon
   style="fill:#ffffff"
   id="polygon2466"
   points="97.67,50.105 120.421,73.468 120.421,38.074 115.171,38.949 115.171,60.562 92.42,37.199 92.42,72.199 97.67,71.324 97.67,50.105 " />
			</g>
			<g
   id="g2468">
				<polygon
   style="fill:#ffffff"
   id="polygon2470"
   points="235.188,38.095 229.938,38.97 229.938,72.221 249.189,72.221 250.939,66.971 235.188,66.971 235.188,38.095 " />
			</g>
			<g
   id="g2472">
				<polygon
   style="fill:#ffffff"
   id="polygon2474"
   points="264.208,57.696 257.952,71.302 263.289,72.221 277.945,40.152 273.177,38.052 266.658,52.271 255.107,38.052 251.083,41.464 264.208,57.696 " />
			</g>
			<path
   style="fill:#ffffff"
   id="path2476"
   d="M 170.862,58.133 L 170.862,71.258 L 165.612,72.133 L 165.612,38.008 L 175.237,38.008 C 180.794,38.008 185.3,42.514 185.3,48.071 C 185.3,53.627 180.794,58.134 175.237,58.134 L 170.862,58.134 L 170.862,58.133 z M 170.862,53.758 L 170.862,53.758 L 175.237,53.758 C 178.387,53.758 180.925,51.22 180.925,48.07 C 180.925,44.92 178.387,42.382 175.237,42.382 L 170.862,42.382 L 170.862,53.758" />
			<path
   style="fill:#ffffff"
   id="path2478"
   d="M 161.237,55.114 C 161.237,65.002 153.187,73.052 143.299,73.052 C 133.411,73.052 125.361,65.002 125.361,55.114 C 125.361,45.227 133.411,37.176 143.299,37.176 C 153.187,37.177 161.237,45.227 161.237,55.114 z M 130.612,55.114 C 130.612,62.114 136.3,67.802 143.3,67.802 C 150.3,67.802 155.988,62.114 155.988,55.114 C 155.988,48.114 150.3,42.426 143.3,42.426 C 136.299,42.427 130.612,48.114 130.612,55.114 z " />
			<path
   style="fill:#ffffff"
   id="path2480"
   d="M 225.338,55.114 C 225.338,65.002 217.288,73.052 207.4,73.052 C 197.512,73.052 189.462,65.002 189.462,55.114 C 189.462,45.227 197.512,37.176 207.4,37.176 C 217.288,37.176 225.338,45.227 225.338,55.114 z M 194.713,55.114 C 194.713,62.114 200.401,67.802 207.401,67.802 C 214.401,67.802 220.089,62.114 220.089,55.114 C 220.089,48.114 214.401,42.426 207.401,42.426 C 200.4,42.427 194.713,48.114 194.713,55.114 z " />
		</g>
		<g
   id="g2482">
			<g
   id="g2484">
				<polygon
   style="fill:#ffffff"
   id="polygon2486"
   points="152.103,23.959 148.987,17.338 145.677,14.223 136.33,15.001 128.735,20.065 126.398,27.27 129.124,32.333 133.019,33.501 152.103,23.959 " />
			</g>
			<g
   id="g2488">
				<path
   style="fill:#00c0f3"
   id="path2490"
   d="M 195.6,35.559 C 195.461,35.431 195.321,35.304 195.182,35.177 L 189.803,30.145 L 187.798,28.275 C 187.548,27.928 187.027,27.813 187.143,27.215 C 187.22,27.061 187.008,26.984 187.143,26.868 C 187.143,26.328 187.201,25.73 186.912,25.364 C 186.546,25.075 186.738,24.381 186.584,23.918 C 186.507,23.475 186.468,23.031 186.237,22.704 C 185.967,22.145 185.254,21.933 184.733,21.566 C 184.714,21.161 184.541,20.872 184.348,20.622 C 183.577,19.87 182.092,20.024 181.09,20.333 C 180.647,20.429 180.338,20.892 179.876,20.814 C 175.885,17.19 172.068,13.469 168.174,9.787 C 168,9.652 167.943,9.421 167.884,9.209 C 167.672,8.476 168.115,7.917 168.597,7.551 C 169.465,6.992 170.255,7.802 171.142,7.782 C 171.913,7.821 172.569,7.396 172.858,6.876 C 172.878,6.76 172.897,6.703 172.954,6.645 C 172.896,6.395 173.031,6.279 173.012,6.047 L 173.031,6.047 C 173.031,5.662 172.896,5.372 172.819,5.026 C 172.298,4.081 171.103,3.503 169.831,3.426 C 168.906,3.272 168.038,3.542 167.228,3.812 C 165.262,4.622 164.124,6.145 163.854,8.227 L 163.816,8.227 C 163.777,9.923 164.201,11.273 165.108,12.275 C 168.829,15.861 172.627,19.428 176.347,23.033 C 176.578,23.496 176.097,23.843 176.097,24.363 L 176.078,24.363 C 176.001,24.942 176.193,25.327 176.27,25.828 C 176.347,26.156 176.637,26.426 176.54,26.811 C 176.54,27.254 175.846,26.946 175.827,27.37 C 175.191,27.832 174.709,28.43 174.073,28.912 C 173.707,29.143 173.533,28.7 173.244,28.662 C 170.969,30.744 168.328,32.576 165.417,34.214 C 165.224,34.272 165.012,34.445 164.838,34.253 C 164.626,33.829 164.703,33.192 164.588,32.711 C 164.453,32.249 164.472,31.69 164.048,31.439 C 163.932,31.516 163.913,31.67 163.894,31.844 C 163.894,31.96 163.817,32.056 163.779,32.153 C 163.451,33.098 162.93,33.907 161.947,34.389 C 161.793,34.428 161.638,34.331 161.58,34.196 C 161.407,32.461 161.156,30.803 160.578,29.377 C 159.595,26.794 158.168,24.5 156.182,22.629 C 155.816,22.128 155.18,21.819 154.717,21.376 C 154.563,21.145 154.235,21.067 154.196,20.72 C 154.524,20.392 154.947,20.122 155.333,19.852 C 156.394,18.831 157.531,17.886 157.801,16.324 C 157.762,16.189 157.724,16.054 157.666,15.9 C 157.492,15.65 157.106,15.457 156.702,15.553 C 156.355,15.63 156.201,15.861 156.027,16.093 C 155.372,17.481 154.215,18.522 152.904,19.447 C 152.75,19.486 152.557,19.563 152.422,19.466 C 151.824,19.023 151.362,18.464 150.726,18.059 C 150.552,17.77 150.244,17.597 150.013,17.327 C 149.222,16.305 148.297,15.399 147.584,14.32 L 147.488,14.108 C 146.235,12.643 145.29,10.908 144.423,9.173 C 144.134,8.556 143.806,7.978 143.035,7.727 C 140.856,7.168 138.659,7.823 136.673,8.305 C 132.374,9.847 128.711,12.315 126.012,15.207 C 125.067,16.19 124.258,17.27 123.544,18.407 C 123.158,18.793 123.043,19.332 122.715,19.757 C 122.542,20.393 122.175,20.875 122.021,21.53 C 121.731,22.128 121.693,23.419 122.04,23.998 C 124.257,25.83 126.205,27.873 127.728,30.186 C 127.844,30.302 127.882,30.552 128.133,30.456 C 128.442,30.244 128.673,29.935 128.885,29.627 C 129.791,27.525 131.102,25.694 132.663,24.055 C 135.806,20.72 140.374,17.385 145.889,16.672 C 146.429,16.691 147.007,16.518 147.489,16.73 C 147.605,16.846 147.739,16.98 147.643,17.154 C 146.544,17.327 145.426,17.462 144.404,17.828 L 144.404,17.905 C 145.349,18.85 146.274,19.795 147.277,20.681 L 147.527,20.797 C 148.491,20.681 149.398,20.411 150.265,20.065 L 150.593,20.065 C 150.747,20.2 150.94,20.257 150.979,20.45 C 150.921,20.527 150.902,20.624 150.825,20.681 C 149.63,21.356 148.28,21.742 146.911,22.012 C 143.827,22.59 140.877,23.554 138.004,24.576 C 134.11,26.079 131.006,28.297 128.712,31.054 C 127.768,32.192 127.209,33.56 126.842,35.122 L 126.823,35.122 C 126.803,35.27 126.788,35.417 126.777,35.562 L 178.875,35.562 C 179.027,35.351 179.292,35.227 179.435,35.006 C 179.917,34.543 180.495,34.081 180.823,33.579 C 180.726,33.27 181.015,33.174 181.112,32.962 C 181.748,32.364 182.326,31.67 183.367,31.4 C 183.868,31.246 184.408,30.359 184.948,31.053 C 186.531,32.6 188.209,34.066 189.856,35.561 L 195.6,35.561 L 195.6,35.559 z " />
				<path
   style="fill:#00c0f3"
   id="path2492"
   d="M 114.4,35.559 C 114.207,35.439 114.015,35.318 113.825,35.196 L 113.536,35.099 C 112.976,35.755 112.514,34.791 112.013,34.637 C 111.666,34.463 111.377,33.981 110.876,34.174 C 110.606,34.116 110.606,33.846 110.433,33.731 C 110.047,33.037 109.43,32.536 109.026,31.861 C 108.968,31.244 108.775,30.666 108.891,29.991 L 108.91,29.991 C 108.871,29.721 108.987,29.355 108.814,29.181 C 108.621,28.969 108.236,29.007 107.946,29.046 C 106.365,29.296 105.652,30.492 105.343,31.803 L 105.324,31.803 L 105.304,32.131 L 105.285,32.131 L 105.265,32.69 L 105.226,32.69 C 105.284,32.825 105.168,32.863 105.091,32.921 C 103.317,33.634 101.486,34.424 99.866,35.369 C 99.77,35.432 99.674,35.494 99.577,35.558 L 114.4,35.558 L 114.4,35.559 z " />
				<path
   style="fill:#00c0f3"
   id="path2494"
   d="M 189.853,35.559 C 190.874,36.485 191.883,37.422 192.85,38.396 C 194.913,40.169 196.821,42.021 198.788,43.871 C 199.135,44.083 199.328,44.642 199.926,44.43 C 201.025,43.987 201.796,43.273 202.047,42.194 L 202.066,42.194 C 202.182,41.596 201.738,41.423 201.488,41.076 C 199.507,39.257 197.576,37.371 195.602,35.559 L 189.853,35.559 z " />
				<path
   style="fill:#00c0f3"
   id="path2496"
   d="M 99.579,35.559 C 97.357,37.017 94.908,38.683 94.354,41.269 L 94.334,41.269 L 94.315,41.654 L 94.276,41.654 C 94.295,42.04 94.449,42.425 94.334,42.811 C 94.315,42.85 94.354,42.927 94.276,42.927 C 94.353,43.1 94.16,43.178 94.256,43.332 C 94.237,44.142 95.394,44.084 95.548,44.778 C 95.972,45.183 96.628,44.856 97.09,44.701 C 99.924,43.043 103.067,41.886 106.46,41.443 C 107.096,41.385 107.867,41.308 108.484,41.501 C 108.947,41.982 109.718,42.233 110.142,42.754 C 110.123,43.197 110.007,43.564 109.892,43.93 C 109.892,44.046 109.815,44.142 109.796,44.258 C 109.757,44.412 109.815,44.528 109.931,44.605 C 114.307,47.304 119.416,48.808 124.66,49.752 C 128.304,50.407 132.121,50.6 135.957,50.793 L 136.15,50.89 L 136.092,50.986 C 135.552,51.159 134.955,51.198 134.434,51.391 C 134.304,54.558 133.558,60.914 133.139,62.365 C 135.419,65.589 138.927,67.694 143.176,67.694 C 146.162,67.694 148.906,66.654 151.064,64.918 L 151.052,64.906 C 153.462,61.185 158.281,52.268 159.072,47.112 C 159.111,46.919 159.149,46.707 159.342,46.65 L 162.755,45.686 C 169.04,43.777 174.823,40.5 179.026,36.529 C 179.046,36.259 178.853,36.163 178.756,35.95 C 178.75,35.786 178.797,35.663 178.871,35.561 L 126.773,35.561 C 126.577,38.004 127.494,39.865 129.441,40.866 C 130.135,41.251 130.944,41.328 131.735,41.502 C 131.87,41.694 132.063,41.849 132.044,42.138 C 131.947,42.176 131.832,42.234 131.716,42.176 C 125.546,40.949 119.555,38.756 114.4,35.56 L 99.579,35.56 L 99.579,35.559 z " />
				<path
   style="fill:#ffffff;stroke:#ffffff;stroke-width:0.5;stroke-linecap:square;stroke-miterlimit:2"
   id="path2498"
   d="M 171.777,5.603 C 171.873,5.815 171.873,6.046 171.873,6.316 C 171.7,6.625 171.237,6.721 170.852,6.663 C 169.965,6.027 168.577,6.008 167.652,6.605 C 167.421,6.894 166.996,7.087 166.919,7.492 C 166.861,7.588 166.765,7.646 166.784,7.82 C 166.745,7.916 166.668,7.993 166.668,8.109 C 166.552,8.572 166.533,9.459 166.861,9.844 C 166.977,10.172 167.266,10.345 167.401,10.654 C 168.095,11.502 168.943,12.196 169.773,12.948 L 171.431,14.51 C 171.836,14.972 172.337,15.435 172.819,15.859 C 174.728,17.768 176.771,19.561 178.68,21.488 C 178.796,21.874 178.14,21.835 177.889,22.028 C 177.735,22.124 177.561,22.201 177.388,22.163 C 176.906,21.855 176.54,21.431 176.135,21.064 C 172.858,17.844 169.426,14.779 166.129,11.598 C 165.416,10.962 165.108,10.056 164.973,9.015 L 164.953,8.263 L 164.973,8.263 L 164.992,7.954 L 165.011,7.954 C 165.378,6.392 166.264,5.101 168.019,4.638 C 169.387,4.389 170.948,4.678 171.777,5.603 z "
   stroke-miterlimit="2" />
				<path
   style="stroke:#000000;stroke-width:0;stroke-linecap:square;stroke-miterlimit:2"
   id="path2500"
   d="M 138.792,9.555 C 139.813,12.004 141.317,14.124 142.898,16.187 C 142.975,16.245 142.917,16.399 142.937,16.515 C 141.876,16.92 140.758,17.286 139.717,17.768 C 138.04,18.559 136.633,19.503 135.225,20.486 C 134.666,20.467 134.589,19.908 134.261,19.618 C 132.796,17.825 131.099,16.167 129.442,14.51 C 129.422,14.375 129.384,14.317 129.384,14.163 C 130.386,13.064 131.833,12.293 133.182,11.445 C 134.744,10.558 136.44,9.768 138.233,9.286 C 138.521,9.208 138.695,9.363 138.792,9.555 z "
   stroke-miterlimit="2" />
				<path
   style="fill:#ffffff;stroke:#ffffff;stroke-width:0.5;stroke-linecap:square;stroke-miterlimit:2"
   id="path2502"
   d="M 183.846,21.585 C 184.058,21.835 184.02,22.298 184.155,22.587 C 184.483,22.76 184.965,22.703 185.254,22.972 C 185.659,23.3 185.697,23.84 185.794,24.38 C 185.659,24.496 185.871,24.553 185.794,24.708 L 185.794,25.055 L 185.774,25.055 C 185.716,25.151 185.794,25.305 185.697,25.363 C 185.967,25.768 186.141,26.212 186.064,26.848 L 186.044,26.848 C 185.928,28.082 185.08,28.756 184.001,29.296 C 183.751,29.296 183.48,29.489 183.288,29.296 C 183.346,29.046 183.538,28.872 183.655,28.679 C 184.021,28.139 184.272,27.465 184.426,26.732 C 184.406,26.655 184.406,26.578 184.31,26.539 C 183.77,26.867 183.597,27.484 183.172,27.908 C 182.767,28.313 182.42,28.776 181.784,29.007 C 181.495,29.065 181.225,28.949 181.09,28.776 C 180.974,28.602 180.994,28.39 180.994,28.159 C 181.437,27.658 182.015,27.215 182.305,26.578 C 182.497,26.385 182.613,26.135 182.671,25.826 C 182.902,25.614 182.941,25.286 182.979,24.939 C 182.96,24.881 182.883,24.785 182.806,24.843 C 182.17,25.517 181.649,26.231 180.801,26.713 C 180.628,26.752 180.415,26.733 180.319,26.597 C 180.242,26.385 180.107,26.076 180.184,25.845 L 180.184,25.633 C 180.222,25.537 180.299,25.44 180.299,25.324 C 180.376,24.996 180.608,24.784 180.723,24.495 C 180.646,24.321 180.839,24.36 180.877,24.283 C 181.339,23.743 181.937,23.319 182.111,22.567 L 182.15,22.567 C 182.189,22.162 182.015,21.815 181.841,21.507 C 181.802,21.141 182.304,21.218 182.535,21.083 C 183.094,20.911 183.595,21.238 183.846,21.585 z "
   stroke-miterlimit="2" />
				<path
   style="stroke:#000000;stroke-width:0;stroke-linecap:square;stroke-miterlimit:2"
   id="path2504"
   d="M 124.14,21.604 C 126.049,23.166 127.61,24.958 129.056,26.848 C 129.095,26.944 129.114,27.021 129.095,27.137 C 129.056,27.253 128.941,27.368 128.922,27.503 C 128.768,27.696 128.671,27.946 128.517,28.12 C 128.267,28.217 128.17,27.966 128.035,27.87 C 126.724,26.154 125.163,24.593 123.543,23.108 C 123.37,23.011 123.466,22.722 123.446,22.529 L 123.466,22.529 C 123.505,22.182 123.659,21.989 123.755,21.7 C 123.812,21.604 124.004,21.489 124.14,21.604 z "
   stroke-miterlimit="2" />
				<path
   style="fill:#ffffff;stroke:#ffffff;stroke-width:0.5;stroke-linecap:square;stroke-miterlimit:2"
   id="path2506"
   d="M 153.482,22.01 C 153.694,22.164 153.944,22.299 153.983,22.588 C 153.559,22.877 152.826,22.993 152.981,23.706 C 153.058,23.841 153.193,23.937 153.367,23.995 C 153.656,24.015 153.829,23.764 154.08,23.667 C 155.603,23.416 156.297,24.708 156.953,25.518 C 157.608,26.521 158.283,27.465 158.707,28.641 C 158.957,29.065 159.112,29.547 159.266,30.049 C 159.536,30.492 159.594,31.109 159.748,31.63 C 159.825,32.151 159.94,32.652 159.998,33.211 C 159.921,33.77 160.21,34.098 160.114,34.695 C 159.979,35.023 159.535,34.83 159.227,34.849 C 157.955,34.579 156.74,34.155 155.313,34.271 C 154.947,34.02 154.985,33.519 154.735,33.21 C 154.388,32.689 154.003,32.149 153.27,31.88 C 152.846,31.86 152.421,31.995 152.017,32.111 C 151.998,32.169 151.959,32.304 152.037,32.323 C 152.711,32.882 153.502,33.364 153.444,34.444 C 153.386,34.444 153.386,34.502 153.386,34.54 C 153.347,35.099 152.576,35.176 152.21,35.504 C 152.171,35.794 152.287,35.986 152.403,36.16 C 152.943,36.719 153.695,36.199 154.254,36.006 C 155.102,34.984 157.011,35.215 158.206,35.601 C 159.979,36.43 162.177,35.813 163.469,34.675 C 163.604,34.56 163.642,34.752 163.662,34.829 L 163.662,35.06 L 163.642,35.06 C 163.681,35.369 163.469,35.465 163.488,35.735 C 163.449,35.851 163.372,35.947 163.372,36.063 C 162.562,38.164 160.885,39.899 158.205,40.381 C 156.971,40.535 155.737,40.362 154.716,39.803 C 154.504,39.764 154.523,39.938 154.426,40.034 C 153.675,41.673 152.383,42.964 150.59,43.87 C 148.354,44.911 144.942,44.718 143.226,43.079 C 143.187,42.944 143.284,42.906 143.322,42.829 C 145.076,43.099 146.657,42.116 147.332,40.92 C 147.756,40.303 148.026,39.57 148.546,39.011 C 149.317,38.24 150.243,37.43 151.496,37.103 C 151.669,37.006 151.746,36.872 151.746,36.64 C 151.669,36.447 151.592,36.274 151.361,36.197 C 149.491,36.1 148.276,37.431 147.351,38.472 C 147.12,38.8 146.908,39.127 146.715,39.493 L 146.715,39.59 C 146.676,39.706 146.561,39.802 146.542,39.937 C 146.465,39.975 146.484,40.052 146.446,40.129 C 146.137,40.9 145.366,41.44 144.441,41.671 C 142.976,41.941 141.511,41.112 140.797,40.187 C 140.585,39.994 140.585,39.57 140.199,39.589 C 140.16,40.341 140.527,40.881 140.758,41.498 C 141.683,43.85 144.383,45.565 147.467,45.662 C 149.106,45.701 150.59,45.296 151.882,44.544 C 152.903,44.081 153.655,43.406 154.311,42.654 C 154.792,42.346 155.467,42.905 155.718,42.288 C 155.968,42.076 156.026,41.671 156.412,41.536 C 157.164,41.556 157.974,41.556 158.706,41.459 C 158.841,41.498 158.86,41.613 158.841,41.768 L 158.821,41.768 C 157.298,45.161 153.365,47.956 148.642,47.687 C 144.439,47.571 140.814,45.258 138.424,42.79 C 138.212,42.559 138.212,42.173 138.096,41.865 C 137.768,41.518 137.653,42.077 137.383,42.154 C 136.477,42.752 134.935,42.694 134.029,42.038 C 133.258,41.402 132.526,40.669 132.776,39.416 C 132.834,39.436 132.815,39.377 132.815,39.339 C 132.988,38.722 133.548,38.318 134.261,38.125 C 134.473,38.086 134.762,38.029 134.84,37.836 C 134.84,37.489 134.531,37.335 134.242,37.219 C 133.76,36.93 132.989,37.643 132.931,36.872 C 132.854,36.66 132.815,36.409 132.796,36.12 L 132.776,35.619 L 132.796,35.619 L 132.815,35.31 L 132.834,35.31 C 132.988,34.693 133.143,34.096 133.393,33.575 C 133.856,32.727 134.415,31.936 135.032,31.184 C 136.15,29.97 137.499,28.89 138.946,27.888 C 140.199,26.982 141.78,26.249 143.264,25.613 C 141.76,25.574 140.507,26.307 139.216,26.847 C 135.418,28.736 132.333,31.107 130.714,34.539 C 130.117,35.58 129.924,37.623 130.695,38.665 L 131.081,39.224 C 131.158,39.302 131.12,39.475 131.12,39.61 C 130.754,39.841 130.329,39.494 130.002,39.321 C 128.71,38.53 128.286,36.892 128.614,35.215 C 129.25,32.844 130.812,31.128 132.643,29.605 C 135.149,27.446 138.677,25.711 142.186,24.689 C 145.078,23.59 148.316,23.359 151.189,22.183 C 151.748,22.048 152.191,21.566 152.809,21.604 L 153.482,22.01 z "
   stroke-miterlimit="2" />
				<path
   style="fill:#00c0f3;stroke:#ffffff;stroke-width:0.30000001;stroke-linecap:square;stroke-miterlimit:2"
   id="path2508"
   d="M 136.574,22.819 C 136.805,23.243 137.056,23.648 137.23,24.111 L 137.172,24.246 C 134.743,25.21 132.661,26.559 130.791,27.967 L 130.753,27.967 C 130.753,27.755 130.945,27.639 131.023,27.466 C 132.315,25.442 134.011,23.726 135.978,22.164 C 136.304,22.279 136.382,22.607 136.574,22.819 z "
   stroke-miterlimit="2" />
				<path
   style="fill:#ffffff;stroke:#ffffff;stroke-width:0.5;stroke-linecap:square;stroke-miterlimit:2"
   id="path2510"
   d="M 181.012,22.395 C 181.051,22.646 180.916,22.8 180.8,22.954 C 180.453,23.32 180.048,23.629 179.701,24.015 L 179.701,24.131 C 179.662,24.246 179.643,24.381 179.547,24.459 C 179.026,25.172 179.007,26.599 179.47,27.389 C 179.662,27.639 179.701,28.006 179.932,28.237 C 180.009,29.086 180.53,29.683 181.416,29.914 C 181.686,30.165 181.956,30.415 182.226,30.666 C 182.226,30.84 182.072,30.878 181.956,30.975 C 181.339,31.187 180.895,31.592 180.529,32.016 C 180.375,32.093 180.182,32.266 180.008,32.132 C 179.276,31.284 178.755,30.3 178.022,29.452 C 177.791,29.066 177.501,28.777 177.29,28.391 L 177.29,28.295 C 177.386,28.198 177.406,28.025 177.521,27.929 C 177.714,27.601 177.849,27.235 177.791,26.714 C 177.463,26.193 177.078,25.769 177.135,24.96 L 177.116,24.555 L 177.135,24.555 C 177.328,23.764 177.868,23.302 178.504,22.839 C 179.178,22.357 180.085,22.357 180.933,22.318 L 181.012,22.395 z "
   stroke-miterlimit="2" />
				<path
   style="fill:#00c0f3;stroke:#ffffff;stroke-width:0.2;stroke-linecap:square;stroke-miterlimit:2"
   id="path2512"
   d="M 144.459,26.713 C 144.555,26.752 144.459,26.906 144.555,26.944 C 144.536,27.137 144.42,27.253 144.324,27.387 C 143.842,27.271 143.091,27.117 142.724,27.522 C 142.203,27.985 141.818,28.544 141.664,29.257 C 141.606,29.257 141.644,29.334 141.625,29.373 C 141.644,29.662 141.413,29.835 141.528,30.105 C 141.548,30.163 141.489,30.278 141.586,30.298 C 141.47,30.317 141.605,30.529 141.432,30.452 C 141.239,30.24 141.162,29.97 141.182,29.623 C 141.124,29.45 141.201,29.18 141.105,29.006 C 141.201,28.891 141.144,28.678 141.163,28.524 L 141.183,28.524 C 141.279,27.695 141.723,27.155 142.243,26.635 C 142.821,26.193 144.055,26.039 144.459,26.713 z "
   stroke-miterlimit="2" />
				<path
   style="fill:#00c0f3;stroke:#ffffff;stroke-width:0.30000001;stroke-linecap:square;stroke-miterlimit:2"
   id="path2514"
   d="M 156.855,27.754 C 157.009,27.889 156.932,28.178 156.952,28.41 C 156.778,28.641 156.585,28.853 156.277,28.969 C 155.987,29.027 155.679,28.988 155.486,28.834 C 155.312,28.603 155.1,28.41 155.12,28.043 L 155.14,28.043 C 155.159,27.715 155.352,27.542 155.583,27.369 C 155.776,27.272 156.046,27.176 156.277,27.272 C 156.528,27.369 156.721,27.581 156.855,27.754 z "
   stroke-miterlimit="2" />
				<path
   style="fill:#ffffff;stroke:#ffffff;stroke-width:0.5;stroke-linecap:square;stroke-miterlimit:2"
   id="path2516"
   d="M 186.834,29.046 C 189.918,31.803 192.868,34.675 195.934,37.451 C 197.38,38.916 198.999,40.285 200.445,41.75 C 200.522,41.962 200.831,42.02 200.715,42.386 C 200.541,42.675 200.368,43.003 199.982,43.138 C 199.635,43.138 199.442,42.887 199.25,42.714 C 197.958,41.519 196.763,40.323 195.491,39.07 C 194.296,38.009 193.158,36.949 192.021,35.869 C 189.919,33.961 187.857,32.014 185.813,30.066 C 185.505,29.758 186.006,29.623 186.083,29.391 C 186.333,29.277 186.429,28.834 186.834,29.046 z "
   stroke-miterlimit="2" />
				<path
   style="fill:#ffffff;stroke:#ffffff;stroke-width:0.5;stroke-linecap:square;stroke-miterlimit:2"
   id="path2518"
   d="M 176.423,29.721 C 177.002,30.531 177.599,31.321 178.177,32.131 C 178.389,32.208 178.389,32.401 178.447,32.574 C 178.62,32.96 179.006,33.191 178.987,33.711 C 178.775,34.001 178.525,34.29 178.177,34.502 C 177.599,34.579 177.541,33.962 177.252,33.711 C 176.461,32.497 175.575,31.378 174.727,30.241 C 174.65,30.164 174.707,30.01 174.688,29.894 C 174.996,29.624 175.286,29.315 175.671,29.084 C 176.096,29.085 176.231,29.47 176.423,29.721 z "
   stroke-miterlimit="2" />
				<path
   style="fill:#ffffff;stroke:#ffffff;stroke-width:0.5;stroke-linecap:square;stroke-miterlimit:2"
   id="path2520"
   d="M 107.733,30.704 C 107.753,30.743 107.714,30.8 107.753,30.82 C 107.849,31.572 108.042,32.227 108.254,32.922 C 108.813,33.809 109.449,34.657 109.835,35.679 C 109.874,35.852 109.97,35.987 109.989,36.161 C 109.931,36.161 109.95,36.219 109.95,36.257 C 109.488,37.395 109.006,38.493 108.601,39.65 L 108.37,39.804 C 105.016,39.862 102.085,40.961 99.251,42.252 C 98.287,42.695 97.478,43.254 96.552,43.736 C 96.166,43.698 95.916,43.408 95.588,43.235 C 95.491,43.139 95.434,43.004 95.434,42.83 C 95.28,42.155 95.415,41.365 95.511,40.709 C 95.665,40.593 95.704,40.362 95.82,40.188 C 96.687,39.166 97.863,38.337 99.02,37.489 C 100.697,36.313 102.741,35.234 104.823,34.539 C 105.035,34.539 105.093,34.693 105.132,34.848 C 105.093,35.021 105.19,35.079 105.19,35.234 C 105.383,35.928 105.691,36.506 106.154,36.988 C 106.231,37.123 106.424,37.123 106.559,37.084 C 106.713,36.988 106.732,36.814 106.732,36.602 C 106.635,36.582 106.712,36.467 106.655,36.409 C 106.25,35.638 106.212,34.269 106.482,33.402 C 106.385,32.303 106.636,31.32 107.311,30.703 C 107.386,30.608 107.714,30.511 107.733,30.704 z "
   stroke-miterlimit="2" />
				<path
   style="fill:#00c0f3;stroke:#ffffff;stroke-width:0.30000001;stroke-linecap:square;stroke-miterlimit:2"
   id="path2522"
   d="M 146.599,32.247 L 146.638,32.768 C 146.561,32.826 146.561,32.884 146.542,32.98 C 146.388,33.211 146.176,33.423 145.848,33.501 C 145.347,33.598 144.961,33.308 144.634,33.077 C 144.557,32.787 144.364,32.614 144.441,32.248 C 144.499,32.132 144.538,32.036 144.576,31.92 C 144.749,31.65 145.097,31.476 145.482,31.457 C 146.04,31.456 146.464,31.822 146.599,32.247 z "
   stroke-miterlimit="2" />
				<path
   style="fill:#00c0f3;stroke:#ffffff;stroke-width:0.2;stroke-linecap:square;stroke-miterlimit:2"
   id="path2524"
   d="M 136.439,33.808 C 135.918,34.251 135.205,34.54 134.646,34.945 C 134.299,35.022 134.28,34.695 134.125,34.56 L 134.125,34.463 C 134.665,34.058 135.282,33.634 135.976,33.364 C 136.228,33.422 136.343,33.654 136.439,33.808 z "
   stroke-miterlimit="2" />
				<path
   style="fill:#00c0f3;stroke:#ffffff;stroke-width:0.2;stroke-linecap:square;stroke-miterlimit:2"
   id="path2526"
   d="M 137.114,35.081 C 136.304,35.447 135.591,35.968 134.839,36.373 C 134.646,36.257 134.473,36.103 134.434,35.872 C 134.993,35.294 135.841,34.908 136.593,34.523 C 136.902,34.579 137.056,34.811 137.114,35.081 z "
   stroke-miterlimit="2" />
				<path
   style="fill:#ffffff;stroke:#ffffff;stroke-width:0.5;stroke-linecap:square;stroke-miterlimit:2"
   id="path2528"
   d="M 112.515,36.7 L 112.515,36.912 L 112.495,36.912 C 111.801,38.281 111.242,39.727 110.703,41.211 C 110.356,41.404 110.066,41.057 109.835,40.922 C 109.681,40.826 109.758,40.575 109.739,40.401 C 109.778,40.305 109.855,40.208 109.855,40.112 C 110.376,38.762 110.877,37.451 111.494,36.198 C 111.86,35.947 112.188,36.41 112.477,36.545 L 112.515,36.7 z "
   stroke-miterlimit="2" />
				<path
   style="stroke:#ffffff;stroke-width:0.2;stroke-linecap:square;stroke-miterlimit:2"
   id="path2530"
   d="M 100.716,37.683 C 100.774,37.799 100.755,37.933 100.755,38.069 C 100.177,38.531 99.463,38.917 98.866,39.361 C 97.96,40.036 97.073,40.768 96.128,41.404 C 97.266,39.939 98.827,38.743 100.37,37.548 C 100.504,37.375 100.658,37.586 100.716,37.683 z "
   stroke-miterlimit="2" />
				<path
   style="stroke:#ffffff;stroke-width:0.2;stroke-linecap:square;stroke-miterlimit:2"
   id="path2532"
   d="M 101.391,39.572 C 101.603,40.131 100.986,40.131 100.716,40.343 C 99.328,40.96 98.191,41.731 96.899,42.406 L 96.899,42.252 C 98.094,41.115 99.482,40.131 101.083,39.283 C 101.294,39.225 101.333,39.457 101.391,39.572 z "
   stroke-miterlimit="2" />
				<path
   style="fill:#ffffff;stroke:#ffffff;stroke-width:0.5;stroke-linecap:square;stroke-miterlimit:2"
   id="path2534"
   d="M 139.37,59.294 L 139.351,59.294 C 139.293,59.622 139.447,59.776 139.524,60.007 C 140.295,60.759 141.028,61.53 141.972,62.166 C 142.165,62.262 142.377,62.455 142.666,62.436 C 143.938,61.877 145.191,61.221 146.387,60.566 L 146.637,60.566 C 147.678,61.357 148.546,62.282 149.721,62.995 C 149.856,63.091 150.068,63.091 150.184,62.995 C 151.071,61.723 151.881,60.392 152.613,59.023 C 153.269,57.751 154.04,56.536 154.579,55.187 C 154.676,55.129 154.695,54.994 154.733,54.898 C 154.868,54.512 155.08,54.223 155.215,53.818 L 155.235,53.818 C 155.293,53.683 155.293,53.49 155.408,53.394 C 155.717,52.546 156.063,51.736 156.333,50.85 C 156.815,49.597 157.143,48.209 157.471,46.84 L 157.49,46.84 C 157.471,46.628 157.567,46.185 157.24,46.339 C 155.678,47.457 153.827,48.556 151.726,48.884 C 147.677,49.616 143.706,48.575 140.641,46.512 L 140.468,46.512 C 140.237,46.608 140.292,46.917 140.333,47.264 C 140.594,50.725 140.738,53.087 139.37,59.294 z "
   stroke-miterlimit="2" />
				<g
   id="g2536">
					
						<ellipse
   style="fill:#00c0f3;stroke:#ffffff;stroke-width:0.30000001"
   sodipodi:ry="0.81800002"
   sodipodi:rx="1.193"
   sodipodi:cy="54.508999"
   sodipodi:cx="148.498"
   id="ellipse2538"
   ry="0.81800002"
   rx="1.193"
   cy="54.508999"
   cx="148.498"
   transform="matrix(-0.3224,0.9466,-0.9466,-0.3224,247.9671,-68.491)" />
					<path
   style="fill:#00c0f3;stroke:#ffffff;stroke-width:0.30000001"
   id="path2540"
   d="" />
				</g>
				<g
   id="g2542">
					
						<ellipse
   style="fill:#00c0f3;stroke:#ffffff;stroke-width:0.30000001"
   sodipodi:ry="0.81800002"
   sodipodi:rx="1.193"
   sodipodi:cy="57.689999"
   sodipodi:cx="147.101"
   id="ellipse2544"
   ry="0.81800002"
   rx="1.193"
   cy="57.689999"
   cx="147.101"
   transform="matrix(-0.3222,0.9467,-0.9467,-0.3222,249.1068,-62.981)" />
					<path
   style="fill:#00c0f3;stroke:#ffffff;stroke-width:0.30000001"
   id="path2546"
   d="" />
				</g>
				<polygon
   style="fill:#00c0f3;stroke:#ffffff;stroke-width:0.30000001"
   id="polygon2548"
   points="144.835,49.183 144.112,53.617 149.607,51.159 153.415,53.713 155.342,48.46 154.041,49.038 152.98,51.93 149.751,49.906 145.703,51.689 145.896,49.568 144.835,49.183 " />
			</g>
			<g
   id="g2550">
				<line
   style="fill:none"
   id="line2552"
   y2="99.091003"
   x2="143.19501"
   y1="0"
   x1="143.19501" />
			</g>
			<g
   id="g2554">
				<line
   style="fill:none"
   id="line2556"
   y2="99.091003"
   x2="143.19501"
   y1="0"
   x1="143.19501" />
			</g>
			<g
   id="g2558">
				<line
   style="fill:none"
   id="line2560"
   y2="100.091"
   x2="143.19501"
   y1="1"
   x1="143.19501" />
			</g>
			<g
   id="g2562">
				<line
   style="fill:none"
   id="line2564"
   y2="100.091"
   x2="143.19501"
   y1="1"
   x1="143.19501" />
			</g>
			<g
   id="g2566">
				<line
   style="fill:none"
   id="line2568"
   y2="100.091"
   x2="143.19501"
   y1="1"
   x1="143.19501" />
			</g>
			<g
   id="g2570">
				<line
   style="fill:none"
   id="line2572"
   y2="100.239"
   x2="143.26401"
   y1="1.148"
   x1="143.26401" />
			</g>
			<path
   id="path2574"
   d="M 195.6,35.559 C 195.461,35.431 195.321,35.304 195.182,35.177 L 189.803,30.145 L 187.798,28.275 C 187.548,27.928 187.027,27.813 187.143,27.215 C 187.22,27.061 187.008,26.984 187.143,26.868 C 187.143,26.328 187.201,25.73 186.912,25.364 C 186.546,25.075 186.738,24.381 186.584,23.918 C 186.507,23.475 186.468,23.031 186.237,22.704 C 185.967,22.145 185.254,21.933 184.733,21.566 C 184.714,21.161 184.541,20.872 184.348,20.622 C 183.577,19.87 182.092,20.024 181.09,20.333 C 180.647,20.429 180.338,20.892 179.876,20.814 C 175.885,17.19 172.068,13.469 168.174,9.787 C 168,9.652 167.943,9.421 167.884,9.209 C 167.672,8.476 168.115,7.917 168.597,7.551 C 169.465,6.992 170.255,7.802 171.142,7.782 C 171.913,7.821 172.569,7.396 172.858,6.876 C 172.878,6.76 172.897,6.703 172.954,6.645 C 172.896,6.395 173.031,6.279 173.012,6.047 L 173.031,6.047 C 173.031,5.662 172.896,5.372 172.819,5.026 C 172.298,4.081 171.103,3.503 169.831,3.426 C 168.906,3.272 168.038,3.542 167.228,3.812 C 165.262,4.622 164.124,6.145 163.854,8.227 L 163.816,8.227 C 163.777,9.923 164.201,11.273 165.108,12.275 C 168.829,15.861 172.627,19.428 176.347,23.033 C 176.578,23.496 176.097,23.843 176.097,24.363 L 176.078,24.363 C 176.001,24.942 176.193,25.327 176.27,25.828 C 176.347,26.156 176.637,26.426 176.54,26.811 C 176.54,27.254 175.846,26.946 175.827,27.37 C 175.191,27.832 174.709,28.43 174.073,28.912 C 173.707,29.143 173.533,28.7 173.244,28.662 C 170.969,30.744 168.328,32.576 165.417,34.214 C 165.224,34.272 165.012,34.445 164.838,34.253 C 164.626,33.829 164.703,33.192 164.588,32.711 C 164.453,32.249 164.472,31.69 164.048,31.439 C 163.932,31.516 163.913,31.67 163.894,31.844 C 163.894,31.96 163.817,32.056 163.779,32.153 C 163.451,33.098 162.93,33.907 161.947,34.389 C 161.793,34.428 161.638,34.331 161.58,34.196 C 161.407,32.461 161.156,30.803 160.578,29.377 C 159.595,26.794 158.168,24.5 156.182,22.629 C 155.816,22.128 155.18,21.819 154.717,21.376 C 154.563,21.145 154.235,21.067 154.196,20.72 C 154.524,20.392 154.947,20.122 155.333,19.852 C 156.394,18.831 157.531,17.886 157.801,16.324 C 157.762,16.189 157.724,16.054 157.666,15.9 C 157.492,15.65 157.106,15.457 156.702,15.553 C 156.355,15.63 156.201,15.861 156.027,16.093 C 155.372,17.481 154.215,18.522 152.904,19.447 C 152.75,19.486 152.557,19.563 152.422,19.466 C 151.824,19.023 151.362,18.464 150.726,18.059 C 150.552,17.77 150.244,17.597 150.013,17.327 C 149.222,16.305 148.297,15.399 147.584,14.32 L 147.488,14.108 C 146.235,12.643 145.29,10.908 144.423,9.173 C 144.134,8.556 143.806,7.978 143.035,7.727 C 140.856,7.168 138.659,7.823 136.673,8.305 C 132.374,9.847 128.711,12.315 126.012,15.207 C 125.067,16.19 124.258,17.27 123.544,18.407 C 123.158,18.793 123.043,19.332 122.715,19.757 C 122.542,20.393 122.175,20.875 122.021,21.53 C 121.731,22.128 121.693,23.419 122.04,23.998 C 124.257,25.83 126.205,27.873 127.728,30.186 C 127.844,30.302 127.882,30.552 128.133,30.456 C 128.442,30.244 128.673,29.935 128.885,29.627 C 129.791,27.525 131.102,25.694 132.663,24.055 C 135.806,20.72 140.374,17.385 145.889,16.672 C 146.429,16.691 147.007,16.518 147.489,16.73 C 147.605,16.846 147.739,16.98 147.643,17.154 C 146.544,17.327 145.426,17.462 144.404,17.828 L 144.404,17.905 C 145.349,18.85 146.274,19.795 147.277,20.681 L 147.527,20.797 C 148.491,20.681 149.398,20.411 150.265,20.065 L 150.593,20.065 C 150.747,20.2 150.94,20.257 150.979,20.45 C 150.921,20.527 150.902,20.624 150.825,20.681 C 149.63,21.356 148.28,21.742 146.911,22.012 C 143.827,22.59 140.877,23.554 138.004,24.576 C 134.11,26.079 131.006,28.297 128.712,31.054 C 127.768,32.192 127.209,33.56 126.842,35.122 L 126.823,35.122 C 126.803,35.27 126.788,35.417 126.777,35.562 L 178.875,35.562 C 179.027,35.351 179.292,35.227 179.435,35.006 C 179.917,34.543 180.495,34.081 180.823,33.579 C 180.726,33.27 181.015,33.174 181.112,32.962 C 181.748,32.364 182.326,31.67 183.367,31.4 C 183.868,31.246 184.408,30.359 184.948,31.053 C 186.531,32.6 188.209,34.066 189.856,35.561 L 195.6,35.561 L 195.6,35.559 z " />
			<path
   id="path2576"
   d="M 114.4,35.559 C 114.207,35.439 114.015,35.318 113.825,35.196 L 113.536,35.099 C 112.976,35.755 112.514,34.791 112.013,34.637 C 111.666,34.463 111.377,33.981 110.876,34.174 C 110.606,34.116 110.606,33.846 110.433,33.731 C 110.047,33.037 109.43,32.536 109.026,31.861 C 108.968,31.244 108.775,30.666 108.891,29.991 L 108.91,29.991 C 108.871,29.721 108.987,29.355 108.814,29.181 C 108.621,28.969 108.236,29.007 107.946,29.046 C 106.365,29.296 105.652,30.492 105.343,31.803 L 105.324,31.803 L 105.304,32.131 L 105.285,32.131 L 105.265,32.69 L 105.226,32.69 C 105.284,32.825 105.168,32.863 105.091,32.921 C 103.317,33.634 101.486,34.424 99.866,35.369 C 99.77,35.432 99.674,35.494 99.577,35.558 L 114.4,35.558 L 114.4,35.559 z " />
			<path
   id="path2578"
   d="M 189.853,35.559 C 190.874,36.485 191.883,37.422 192.85,38.396 C 194.913,40.169 196.821,42.021 198.788,43.871 C 199.135,44.083 199.328,44.642 199.926,44.43 C 201.025,43.987 201.796,43.273 202.047,42.194 L 202.066,42.194 C 202.182,41.596 201.738,41.423 201.488,41.076 C 199.507,39.257 197.576,37.371 195.602,35.559 L 189.853,35.559 z " />
			<path
   id="path2580"
   d="M 99.579,35.559 C 97.357,37.017 94.908,38.683 94.354,41.269 L 94.334,41.269 L 94.315,41.654 L 94.276,41.654 C 94.295,42.04 94.449,42.425 94.334,42.811 C 94.315,42.85 94.354,42.927 94.276,42.927 C 94.353,43.1 94.16,43.178 94.256,43.332 C 94.237,44.142 95.394,44.084 95.548,44.778 C 95.972,45.183 96.628,44.856 97.09,44.701 C 99.924,43.043 103.067,41.886 106.46,41.443 C 107.096,41.385 107.867,41.308 108.484,41.501 C 108.947,41.982 109.718,42.233 110.142,42.754 C 110.123,43.197 110.007,43.564 109.892,43.93 C 109.892,44.046 109.815,44.142 109.796,44.258 C 109.757,44.412 109.815,44.528 109.931,44.605 C 114.307,47.304 119.416,48.808 124.66,49.752 C 128.304,50.407 132.121,50.6 135.957,50.793 L 136.15,50.89 L 136.092,50.986 C 135.552,51.159 134.955,51.198 134.434,51.391 C 134.304,54.558 133.558,60.914 133.139,62.365 C 135.419,65.589 138.927,67.694 143.176,67.694 C 146.162,67.694 148.906,66.654 151.064,64.918 L 151.052,64.906 C 153.462,61.185 158.281,52.268 159.072,47.112 C 159.111,46.919 159.149,46.707 159.342,46.65 L 162.755,45.686 C 169.04,43.777 174.823,40.5 179.026,36.529 C 179.046,36.259 178.853,36.163 178.756,35.95 C 178.75,35.786 178.797,35.663 178.871,35.561 L 126.773,35.561 C 126.577,38.004 127.494,39.865 129.441,40.866 C 130.135,41.251 130.944,41.328 131.735,41.502 C 131.87,41.694 132.063,41.849 132.044,42.138 C 131.947,42.176 131.832,42.234 131.716,42.176 C 125.546,40.949 119.555,38.756 114.4,35.56 L 99.579,35.56 L 99.579,35.559 z " />
			<path
   style="fill:none;stroke:#000000;stroke-width:0.40000001"
   id="path2582"
   d="M 151.053,64.905 C 153.463,61.184 158.282,52.267 159.073,47.111 C 159.112,46.918 159.15,46.706 159.343,46.649 L 162.756,45.685 C 169.041,43.776 174.824,40.499 179.027,36.528 C 179.047,36.258 178.854,36.162 178.757,35.949 C 178.737,35.448 179.219,35.332 179.432,35.005 C 179.914,34.542 180.492,34.08 180.82,33.578 C 180.723,33.269 181.012,33.173 181.109,32.961 C 181.745,32.363 182.323,31.669 183.364,31.399 C 183.865,31.245 184.405,30.358 184.945,31.052 C 187.509,33.558 190.323,35.852 192.849,38.397 C 194.912,40.17 196.82,42.022 198.787,43.872 C 199.134,44.084 199.327,44.643 199.925,44.431 C 201.024,43.988 201.795,43.274 202.046,42.195 L 202.065,42.195 C 202.181,41.597 201.737,41.424 201.487,41.077 C 199.366,39.13 197.303,37.106 195.183,35.178 L 189.804,30.146 L 187.799,28.276 C 187.549,27.929 187.028,27.814 187.144,27.216 C 187.221,27.062 187.009,26.985 187.144,26.869 C 187.144,26.329 187.202,25.731 186.913,25.365 C 186.547,25.076 186.739,24.382 186.585,23.919 C 186.508,23.476 186.469,23.032 186.238,22.705 C 185.968,22.146 185.255,21.934 184.734,21.567 C 184.715,21.162 184.542,20.873 184.349,20.623 C 183.578,19.871 182.093,20.025 181.091,20.334 C 180.648,20.43 180.339,20.893 179.877,20.815 C 175.886,17.191 172.069,13.47 168.175,9.788 C 168.001,9.653 167.944,9.422 167.885,9.21 C 167.673,8.477 168.116,7.918 168.598,7.552 C 169.466,6.993 170.256,7.803 171.143,7.783 C 171.914,7.822 172.57,7.397 172.859,6.877 C 172.879,6.761 172.898,6.704 172.955,6.646 C 172.897,6.396 173.032,6.28 173.013,6.048 L 173.032,6.048 C 173.032,5.663 172.897,5.373 172.82,5.027 C 172.299,4.082 171.104,3.504 169.832,3.427 C 168.907,3.273 168.039,3.543 167.229,3.813 C 165.263,4.623 164.125,6.146 163.855,8.228 L 163.817,8.228 C 163.778,9.924 164.202,11.274 165.109,12.276 C 168.83,15.862 172.628,19.429 176.348,23.034 C 176.579,23.497 176.098,23.844 176.098,24.364 L 176.079,24.364 C 176.002,24.943 176.194,25.328 176.271,25.829 C 176.348,26.157 176.638,26.427 176.541,26.812 C 176.541,27.255 175.847,26.947 175.828,27.371 C 175.192,27.833 174.71,28.431 174.074,28.913 C 173.708,29.144 173.534,28.701 173.245,28.663 C 170.97,30.745 168.329,32.577 165.418,34.215 C 165.225,34.273 165.013,34.446 164.839,34.254 C 164.627,33.83 164.704,33.193 164.589,32.712 C 164.454,32.25 164.473,31.691 164.049,31.44 C 163.933,31.517 163.914,31.671 163.895,31.845 C 163.895,31.961 163.818,32.057 163.78,32.154 C 163.452,33.099 162.931,33.908 161.948,34.39 C 161.794,34.429 161.639,34.332 161.581,34.197 C 161.408,32.462 161.157,30.804 160.579,29.378 C 159.596,26.795 158.169,24.501 156.183,22.63 C 155.817,22.129 155.181,21.82 154.718,21.377 C 154.564,21.146 154.236,21.068 154.197,20.721 C 154.525,20.393 154.948,20.123 155.334,19.853 C 156.395,18.832 157.532,17.887 157.802,16.325 C 157.763,16.19 157.725,16.055 157.667,15.901 C 157.493,15.651 157.107,15.458 156.703,15.554 C 156.356,15.631 156.202,15.862 156.028,16.094 C 155.373,17.482 154.216,18.523 152.905,19.448 C 152.751,19.487 152.558,19.564 152.423,19.467 C 151.825,19.024 151.363,18.465 150.727,18.06 C 150.553,17.771 150.245,17.598 150.014,17.328 C 149.223,16.306 148.298,15.4 147.585,14.321 L 147.489,14.109 C 146.236,12.644 145.291,10.909 144.424,9.174 C 144.135,8.557 143.807,7.979 143.036,7.728 C 140.857,7.169 138.66,7.824 136.674,8.306 C 132.375,9.848 128.712,12.316 126.013,15.208 C 125.068,16.191 124.259,17.271 123.545,18.408 C 123.159,18.794 123.044,19.333 122.716,19.758 C 122.543,20.394 122.176,20.876 122.022,21.531 C 121.732,22.129 121.694,23.42 122.041,23.999 C 124.258,25.831 126.206,27.874 127.729,30.187 C 127.845,30.303 127.883,30.553 128.134,30.457 C 128.443,30.245 128.674,29.936 128.886,29.628 C 129.792,27.526 131.103,25.695 132.664,24.056 C 135.807,20.721 140.375,17.386 145.89,16.673 C 146.43,16.692 147.008,16.519 147.49,16.731 C 147.606,16.847 147.74,16.981 147.644,17.155 C 146.545,17.328 145.427,17.463 144.405,17.829 L 144.405,17.906 C 145.35,18.851 146.275,19.796 147.278,20.682 L 147.528,20.798 C 148.492,20.682 149.399,20.412 150.266,20.066 L 150.594,20.066 C 150.748,20.201 150.941,20.258 150.98,20.451 C 150.922,20.528 150.903,20.625 150.826,20.682 C 149.631,21.357 148.281,21.743 146.912,22.013 C 143.828,22.591 140.878,23.555 138.005,24.577 C 134.111,26.08 131.007,28.298 128.713,31.055 C 127.769,32.193 127.21,33.561 126.843,35.123 L 126.824,35.123 C 126.477,37.783 127.383,39.808 129.446,40.868 C 130.14,41.253 130.949,41.33 131.74,41.504 C 131.875,41.696 132.068,41.851 132.049,42.14 C 131.952,42.178 131.837,42.236 131.721,42.178 C 125.32,40.906 119.113,38.593 113.83,35.199 L 113.541,35.102 C 112.981,35.758 112.519,34.794 112.018,34.64 C 111.671,34.466 111.382,33.984 110.881,34.177 C 110.611,34.119 110.611,33.849 110.438,33.734 C 110.052,33.04 109.435,32.539 109.031,31.864 C 108.973,31.247 108.78,30.669 108.896,29.994 L 108.915,29.994 C 108.876,29.724 108.992,29.358 108.819,29.184 C 108.626,28.972 108.241,29.01 107.951,29.049 C 106.37,29.299 105.657,30.495 105.348,31.806 L 105.329,31.806 L 105.309,32.134 L 105.29,32.134 L 105.27,32.693 L 105.231,32.693 C 105.289,32.828 105.173,32.866 105.096,32.924 C 103.322,33.637 101.491,34.427 99.871,35.372 C 97.577,36.876 94.935,38.572 94.357,41.271 L 94.337,41.271 L 94.318,41.656 L 94.279,41.656 C 94.298,42.042 94.452,42.427 94.337,42.813 C 94.318,42.852 94.357,42.929 94.279,42.929 C 94.356,43.102 94.163,43.18 94.259,43.334 C 94.24,44.144 95.397,44.086 95.551,44.78 C 95.975,45.185 96.631,44.858 97.093,44.703 C 99.927,43.045 103.07,41.888 106.463,41.445 C 107.099,41.387 107.87,41.31 108.487,41.503 C 108.95,41.984 109.721,42.235 110.145,42.756 C 110.126,43.199 110.01,43.566 109.895,43.932 C 109.895,44.048 109.818,44.144 109.799,44.26 C 109.76,44.414 109.818,44.53 109.934,44.607 C 114.31,47.306 119.419,48.81 124.663,49.754 C 128.307,50.409 132.124,50.602 135.96,50.795 L 136.153,50.892 L 136.095,50.988 C 135.555,51.161 134.958,51.2 134.437,51.393 C 134.307,54.56 133.561,60.916 133.142,62.367 C 135.422,65.591 138.93,67.696 143.179,67.696 C 146.165,67.696 148.909,66.656 151.067,64.92 L 151.053,64.905 z " />
			<path
   style="fill:#ffffff"
   id="path2584"
   d="M 171.777,5.603 C 171.873,5.815 171.873,6.046 171.873,6.316 C 171.7,6.625 171.237,6.721 170.852,6.663 C 169.965,6.027 168.577,6.008 167.652,6.605 C 167.421,6.894 166.996,7.087 166.919,7.492 C 166.861,7.588 166.765,7.646 166.784,7.82 C 166.745,7.916 166.668,7.993 166.668,8.109 C 166.552,8.572 166.533,9.459 166.861,9.844 C 166.977,10.172 167.266,10.345 167.401,10.654 C 168.095,11.502 168.943,12.196 169.773,12.948 L 171.431,14.51 C 171.836,14.972 172.337,15.435 172.819,15.859 C 174.728,17.768 176.771,19.561 178.68,21.488 C 178.796,21.874 178.14,21.835 177.889,22.028 C 177.735,22.124 177.561,22.201 177.388,22.163 C 176.906,21.855 176.54,21.431 176.135,21.064 C 172.858,17.844 169.426,14.779 166.129,11.598 C 165.416,10.962 165.108,10.056 164.973,9.015 L 164.953,8.263 L 164.973,8.263 L 164.992,7.954 L 165.011,7.954 C 165.378,6.392 166.264,5.101 168.019,4.638 C 169.387,4.389 170.948,4.678 171.777,5.603 z " />
			<path
   style="fill:#ffffff"
   id="path2586"
   d="M 138.792,9.555 C 139.813,12.004 141.317,14.124 142.898,16.187 C 142.975,16.245 142.917,16.399 142.937,16.515 C 141.876,16.92 140.758,17.286 139.717,17.768 C 138.04,18.559 136.633,19.503 135.225,20.486 C 134.666,20.467 134.589,19.908 134.261,19.618 C 132.796,17.825 131.099,16.167 129.442,14.51 C 129.422,14.375 129.384,14.317 129.384,14.163 C 130.386,13.064 131.833,12.293 133.182,11.445 C 134.744,10.558 136.44,9.768 138.233,9.286 C 138.521,9.208 138.695,9.363 138.792,9.555 z " />
			<path
   style="fill:#ffffff"
   id="path2588"
   d="M 183.846,21.585 C 184.058,21.835 184.02,22.298 184.155,22.587 C 184.483,22.76 184.965,22.703 185.254,22.972 C 185.659,23.3 185.697,23.84 185.794,24.38 C 185.659,24.496 185.871,24.553 185.794,24.708 L 185.794,25.055 L 185.774,25.055 C 185.716,25.151 185.794,25.305 185.697,25.363 C 185.967,25.768 186.141,26.212 186.064,26.848 L 186.044,26.848 C 185.928,28.082 185.08,28.756 184.001,29.296 C 183.751,29.296 183.48,29.489 183.288,29.296 C 183.346,29.046 183.538,28.872 183.655,28.679 C 184.021,28.139 184.272,27.465 184.426,26.732 C 184.406,26.655 184.406,26.578 184.31,26.539 C 183.77,26.867 183.597,27.484 183.172,27.908 C 182.767,28.313 182.42,28.776 181.784,29.007 C 181.495,29.065 181.225,28.949 181.09,28.776 C 180.974,28.602 180.994,28.39 180.994,28.159 C 181.437,27.658 182.015,27.215 182.305,26.578 C 182.497,26.385 182.613,26.135 182.671,25.826 C 182.902,25.614 182.941,25.286 182.979,24.939 C 182.96,24.881 182.883,24.785 182.806,24.843 C 182.17,25.517 181.649,26.231 180.801,26.713 C 180.628,26.752 180.415,26.733 180.319,26.597 C 180.242,26.385 180.107,26.076 180.184,25.845 L 180.184,25.633 C 180.222,25.537 180.299,25.44 180.299,25.324 C 180.376,24.996 180.608,24.784 180.723,24.495 C 180.646,24.321 180.839,24.36 180.877,24.283 C 181.339,23.743 181.937,23.319 182.111,22.567 L 182.15,22.567 C 182.189,22.162 182.015,21.815 181.841,21.507 C 181.802,21.141 182.304,21.218 182.535,21.083 C 183.094,20.911 183.595,21.238 183.846,21.585 z " />
			<path
   style="fill:#ffffff"
   id="path2590"
   d="M 124.14,21.604 C 126.049,23.166 127.61,24.958 129.056,26.848 C 129.095,26.944 129.114,27.021 129.095,27.137 C 129.056,27.253 128.941,27.368 128.922,27.503 C 128.768,27.696 128.671,27.946 128.517,28.12 C 128.267,28.217 128.17,27.966 128.035,27.87 C 126.724,26.154 125.163,24.593 123.543,23.108 C 123.37,23.011 123.466,22.722 123.446,22.529 L 123.466,22.529 C 123.505,22.182 123.659,21.989 123.755,21.7 C 123.812,21.604 124.004,21.489 124.14,21.604 z " />
			<path
   style="fill:#ffffff"
   id="path2592"
   d="M 153.482,22.01 C 153.694,22.164 153.944,22.299 153.983,22.588 C 153.559,22.877 152.826,22.993 152.981,23.706 C 153.058,23.841 153.193,23.937 153.367,23.995 C 153.656,24.015 153.829,23.764 154.08,23.667 C 155.603,23.416 156.297,24.708 156.953,25.518 C 157.608,26.521 158.283,27.465 158.707,28.641 C 158.957,29.065 159.112,29.547 159.266,30.049 C 159.536,30.492 159.594,31.109 159.748,31.63 C 159.825,32.151 159.94,32.652 159.998,33.211 C 159.921,33.77 160.21,34.098 160.114,34.695 C 159.979,35.023 159.535,34.83 159.227,34.849 C 157.955,34.579 156.74,34.155 155.313,34.271 C 154.947,34.02 154.985,33.519 154.735,33.21 C 154.388,32.689 154.003,32.149 153.27,31.88 C 152.846,31.86 152.421,31.995 152.017,32.111 C 151.998,32.169 151.959,32.304 152.037,32.323 C 152.711,32.882 153.502,33.364 153.444,34.444 C 153.386,34.444 153.386,34.502 153.386,34.54 C 153.347,35.099 152.576,35.176 152.21,35.504 C 152.171,35.794 152.287,35.986 152.403,36.16 C 152.943,36.719 153.695,36.199 154.254,36.006 C 155.102,34.984 157.011,35.215 158.206,35.601 C 159.979,36.43 162.177,35.813 163.469,34.675 C 163.604,34.56 163.642,34.752 163.662,34.829 L 163.662,35.06 L 163.642,35.06 C 163.681,35.369 163.469,35.465 163.488,35.735 C 163.449,35.851 163.372,35.947 163.372,36.063 C 162.562,38.164 160.885,39.899 158.205,40.381 C 156.971,40.535 155.737,40.362 154.716,39.803 C 154.504,39.764 154.523,39.938 154.426,40.034 C 153.675,41.673 152.383,42.964 150.59,43.87 C 148.354,44.911 144.942,44.718 143.226,43.079 C 143.187,42.944 143.284,42.906 143.322,42.829 C 145.076,43.099 146.657,42.116 147.332,40.92 C 147.756,40.303 148.026,39.57 148.546,39.011 C 149.317,38.24 150.243,37.43 151.496,37.103 C 151.669,37.006 151.746,36.872 151.746,36.64 C 151.669,36.447 151.592,36.274 151.361,36.197 C 149.491,36.1 148.276,37.431 147.351,38.472 C 147.12,38.8 146.908,39.127 146.715,39.493 L 146.715,39.59 C 146.676,39.706 146.561,39.802 146.542,39.937 C 146.465,39.975 146.484,40.052 146.446,40.129 C 146.137,40.9 145.366,41.44 144.441,41.671 C 142.976,41.941 141.511,41.112 140.797,40.187 C 140.585,39.994 140.585,39.57 140.199,39.589 C 140.16,40.341 140.527,40.881 140.758,41.498 C 141.683,43.85 144.383,45.565 147.467,45.662 C 149.106,45.701 150.59,45.296 151.882,44.544 C 152.903,44.081 153.655,43.406 154.311,42.654 C 154.792,42.346 155.467,42.905 155.718,42.288 C 155.968,42.076 156.026,41.671 156.412,41.536 C 157.164,41.556 157.974,41.556 158.706,41.459 C 158.841,41.498 158.86,41.613 158.841,41.768 L 158.821,41.768 C 157.298,45.161 153.365,47.956 148.642,47.687 C 144.439,47.571 140.814,45.258 138.424,42.79 C 138.212,42.559 138.212,42.173 138.096,41.865 C 137.768,41.518 137.653,42.077 137.383,42.154 C 136.477,42.752 134.935,42.694 134.029,42.038 C 133.258,41.402 132.526,40.669 132.776,39.416 C 132.834,39.436 132.815,39.377 132.815,39.339 C 132.988,38.722 133.548,38.318 134.261,38.125 C 134.473,38.086 134.762,38.029 134.84,37.836 C 134.84,37.489 134.531,37.335 134.242,37.219 C 133.76,36.93 132.989,37.643 132.931,36.872 C 132.854,36.66 132.815,36.409 132.796,36.12 L 132.776,35.619 L 132.796,35.619 L 132.815,35.31 L 132.834,35.31 C 132.988,34.693 133.143,34.096 133.393,33.575 C 133.856,32.727 134.415,31.936 135.032,31.184 C 136.15,29.97 137.499,28.89 138.946,27.888 C 140.199,26.982 141.78,26.249 143.264,25.613 C 141.76,25.574 140.507,26.307 139.216,26.847 C 135.418,28.736 132.333,31.107 130.714,34.539 C 130.117,35.58 129.924,37.623 130.695,38.665 L 131.081,39.224 C 131.158,39.302 131.12,39.475 131.12,39.61 C 130.754,39.841 130.329,39.494 130.002,39.321 C 128.71,38.53 128.286,36.892 128.614,35.215 C 129.25,32.844 130.812,31.128 132.643,29.605 C 135.149,27.446 138.677,25.711 142.186,24.689 C 145.078,23.59 148.316,23.359 151.189,22.183 C 151.748,22.048 152.191,21.566 152.809,21.604 L 153.482,22.01 z " />
			<path
   id="path2594"
   d="M 136.574,22.819 C 136.805,23.243 137.056,23.648 137.23,24.111 L 137.172,24.246 C 134.743,25.21 132.661,26.559 130.791,27.967 L 130.753,27.967 C 130.753,27.755 130.945,27.639 131.023,27.466 C 132.315,25.442 134.011,23.726 135.978,22.164 C 136.304,22.279 136.382,22.607 136.574,22.819 z " />
			<path
   style="fill:#ffffff"
   id="path2596"
   d="M 181.012,22.395 C 181.051,22.646 180.916,22.8 180.8,22.954 C 180.453,23.32 180.048,23.629 179.701,24.015 L 179.701,24.131 C 179.662,24.246 179.643,24.381 179.547,24.459 C 179.026,25.172 179.007,26.599 179.47,27.389 C 179.662,27.639 179.701,28.006 179.932,28.237 C 180.009,29.086 180.53,29.683 181.416,29.914 C 181.686,30.165 181.956,30.415 182.226,30.666 C 182.226,30.84 182.072,30.878 181.956,30.975 C 181.339,31.187 180.895,31.592 180.529,32.016 C 180.375,32.093 180.182,32.266 180.008,32.132 C 179.276,31.284 178.755,30.3 178.022,29.452 C 177.791,29.066 177.501,28.777 177.29,28.391 L 177.29,28.295 C 177.386,28.198 177.406,28.025 177.521,27.929 C 177.714,27.601 177.849,27.235 177.791,26.714 C 177.463,26.193 177.078,25.769 177.135,24.96 L 177.116,24.555 L 177.135,24.555 C 177.328,23.764 177.868,23.302 178.504,22.839 C 179.178,22.357 180.085,22.357 180.933,22.318 L 181.012,22.395 z " />
			<path
   id="path2598"
   d="M 144.459,26.713 C 144.555,26.752 144.459,26.906 144.555,26.944 C 144.536,27.137 144.42,27.253 144.324,27.387 C 143.842,27.271 143.091,27.117 142.724,27.522 C 142.203,27.985 141.818,28.544 141.664,29.257 C 141.606,29.257 141.644,29.334 141.625,29.373 C 141.644,29.662 141.413,29.835 141.528,30.105 C 141.548,30.163 141.489,30.278 141.586,30.298 C 141.47,30.317 141.605,30.529 141.432,30.452 C 141.239,30.24 141.162,29.97 141.182,29.623 C 141.124,29.45 141.201,29.18 141.105,29.006 C 141.201,28.891 141.144,28.678 141.163,28.524 L 141.183,28.524 C 141.279,27.695 141.723,27.155 142.243,26.635 C 142.821,26.193 144.055,26.039 144.459,26.713 z " />
			<path
   id="path2600"
   d="M 156.855,27.754 C 157.009,27.889 156.932,28.178 156.952,28.41 C 156.778,28.641 156.585,28.853 156.277,28.969 C 155.987,29.027 155.679,28.988 155.486,28.834 C 155.312,28.603 155.1,28.41 155.12,28.043 L 155.14,28.043 C 155.159,27.715 155.352,27.542 155.583,27.369 C 155.776,27.272 156.046,27.176 156.277,27.272 C 156.528,27.369 156.721,27.581 156.855,27.754 z " />
			<path
   style="fill:#ffffff"
   id="path2602"
   d="M 186.834,29.046 C 189.918,31.803 192.868,34.675 195.934,37.451 C 197.38,38.916 198.999,40.285 200.445,41.75 C 200.522,41.962 200.831,42.02 200.715,42.386 C 200.541,42.675 200.368,43.003 199.982,43.138 C 199.635,43.138 199.442,42.887 199.25,42.714 C 197.958,41.519 196.763,40.323 195.491,39.07 C 194.296,38.009 193.158,36.949 192.021,35.869 C 189.919,33.961 187.857,32.014 185.813,30.066 C 185.505,29.758 186.006,29.623 186.083,29.391 C 186.333,29.277 186.429,28.834 186.834,29.046 z " />
			<path
   style="fill:#ffffff"
   id="path2604"
   d="M 176.423,29.721 C 177.002,30.531 177.599,31.321 178.177,32.131 C 178.389,32.208 178.389,32.401 178.447,32.574 C 178.62,32.96 179.006,33.191 178.987,33.711 C 178.775,34.001 178.525,34.29 178.177,34.502 C 177.599,34.579 177.541,33.962 177.252,33.711 C 176.461,32.497 175.575,31.378 174.727,30.241 C 174.65,30.164 174.707,30.01 174.688,29.894 C 174.996,29.624 175.286,29.315 175.671,29.084 C 176.096,29.085 176.231,29.47 176.423,29.721 z " />
			<path
   style="fill:#ffffff"
   id="path2606"
   d="M 107.733,30.704 C 107.753,30.743 107.714,30.8 107.753,30.82 C 107.849,31.572 108.042,32.227 108.254,32.922 C 108.813,33.809 109.449,34.657 109.835,35.679 C 109.874,35.852 109.97,35.987 109.989,36.161 C 109.931,36.161 109.95,36.219 109.95,36.257 C 109.488,37.395 109.006,38.493 108.601,39.65 L 108.37,39.804 C 105.016,39.862 102.085,40.961 99.251,42.252 C 98.287,42.695 97.478,43.254 96.552,43.736 C 96.166,43.698 95.916,43.408 95.588,43.235 C 95.491,43.139 95.434,43.004 95.434,42.83 C 95.28,42.155 95.415,41.365 95.511,40.709 C 95.665,40.593 95.704,40.362 95.82,40.188 C 96.687,39.166 97.863,38.337 99.02,37.489 C 100.697,36.313 102.741,35.234 104.823,34.539 C 105.035,34.539 105.093,34.693 105.132,34.848 C 105.093,35.021 105.19,35.079 105.19,35.234 C 105.383,35.928 105.691,36.506 106.154,36.988 C 106.231,37.123 106.424,37.123 106.559,37.084 C 106.713,36.988 106.732,36.814 106.732,36.602 C 106.635,36.582 106.712,36.467 106.655,36.409 C 106.25,35.638 106.212,34.269 106.482,33.402 C 106.385,32.303 106.636,31.32 107.311,30.703 C 107.386,30.608 107.714,30.511 107.733,30.704 z " />
			<path
   id="path2608"
   d="M 146.599,32.247 L 146.638,32.768 C 146.561,32.826 146.561,32.884 146.542,32.98 C 146.388,33.211 146.176,33.423 145.848,33.501 C 145.347,33.598 144.961,33.308 144.634,33.077 C 144.557,32.787 144.364,32.614 144.441,32.248 C 144.499,32.132 144.538,32.036 144.576,31.92 C 144.749,31.65 145.097,31.476 145.482,31.457 C 146.04,31.456 146.464,31.822 146.599,32.247 z " />
			<path
   id="path2610"
   d="M 136.439,33.808 C 135.918,34.251 135.205,34.54 134.646,34.945 C 134.299,35.022 134.28,34.695 134.125,34.56 L 134.125,34.463 C 134.665,34.058 135.282,33.634 135.976,33.364 C 136.228,33.422 136.343,33.654 136.439,33.808 z " />
			<path
   id="path2612"
   d="M 137.114,35.081 C 136.304,35.447 135.591,35.968 134.839,36.373 C 134.646,36.257 134.473,36.103 134.434,35.872 C 134.993,35.294 135.841,34.908 136.593,34.523 C 136.902,34.579 137.056,34.811 137.114,35.081 z " />
			<path
   style="fill:#ffffff"
   id="path2614"
   d="M 112.515,36.7 L 112.515,36.912 L 112.495,36.912 C 111.801,38.281 111.242,39.727 110.703,41.211 C 110.356,41.404 110.066,41.057 109.835,40.922 C 109.681,40.826 109.758,40.575 109.739,40.401 C 109.778,40.305 109.855,40.208 109.855,40.112 C 110.376,38.762 110.877,37.451 111.494,36.198 C 111.86,35.947 112.188,36.41 112.477,36.545 L 112.515,36.7 z " />
			<path
   id="path2616"
   d="M 100.716,37.683 C 100.774,37.799 100.755,37.933 100.755,38.069 C 100.177,38.531 99.463,38.917 98.866,39.361 C 97.96,40.036 97.073,40.768 96.128,41.404 C 97.266,39.939 98.827,38.743 100.37,37.548 C 100.504,37.375 100.658,37.586 100.716,37.683 z " />
			<path
   id="path2618"
   d="M 101.391,39.572 C 101.603,40.131 100.986,40.131 100.716,40.343 C 99.328,40.96 98.191,41.731 96.899,42.406 L 96.899,42.252 C 98.094,41.115 99.482,40.131 101.083,39.283 C 101.294,39.225 101.333,39.457 101.391,39.572 z " />
			<path
   style="fill:#ffffff"
   id="path2620"
   d="M 139.37,59.294 L 139.351,59.294 C 139.293,59.622 139.447,59.776 139.524,60.007 C 140.295,60.759 141.028,61.53 141.972,62.166 C 142.165,62.262 142.377,62.455 142.666,62.436 C 143.938,61.877 145.191,61.221 146.387,60.566 L 146.637,60.566 C 147.678,61.357 148.546,62.282 149.721,62.995 C 149.856,63.091 150.068,63.091 150.184,62.995 C 151.071,61.723 151.881,60.392 152.613,59.023 C 153.269,57.751 154.04,56.536 154.579,55.187 C 154.676,55.129 154.695,54.994 154.733,54.898 C 154.868,54.512 155.08,54.223 155.215,53.818 L 155.235,53.818 C 155.293,53.683 155.293,53.49 155.408,53.394 C 155.717,52.546 156.063,51.736 156.333,50.85 C 156.815,49.597 157.143,48.209 157.471,46.84 L 157.49,46.84 C 157.471,46.628 157.567,46.185 157.24,46.339 C 155.678,47.457 153.827,48.556 151.726,48.884 C 147.677,49.616 143.706,48.575 140.641,46.512 L 140.468,46.512 C 140.237,46.608 140.292,46.917 140.333,47.264 C 140.594,50.725 140.738,53.087 139.37,59.294 z " />
			<g
   id="g2622">
				
					<ellipse
   sodipodi:ry="0.81800002"
   sodipodi:rx="1.193"
   sodipodi:cy="54.508999"
   sodipodi:cx="148.498"
   id="ellipse2624"
   ry="0.81800002"
   rx="1.193"
   cy="54.508999"
   cx="148.498"
   transform="matrix(-0.3224,0.9466,-0.9466,-0.3224,247.9671,-68.491)" />
				<path
   id="path2626"
   d="" />
			</g>
			<g
   id="g2628">
				<ellipse
   sodipodi:ry="0.81800002"
   sodipodi:rx="1.193"
   sodipodi:cy="57.689999"
   sodipodi:cx="147.101"
   id="ellipse2630"
   ry="0.81800002"
   rx="1.193"
   cy="57.689999"
   cx="147.101"
   transform="matrix(-0.3222,0.9467,-0.9467,-0.3222,249.1068,-62.981)" />
				<path
   id="path2632"
   d="" />
			</g>
			<polygon
   id="polygon2634"
   points="144.835,49.183 144.112,53.617 149.607,51.159 153.415,53.713 155.342,48.46 154.041,49.038 152.98,51.93 149.751,49.906 145.703,51.689 145.896,49.568 144.835,49.183 " />
			<g
   id="g2636">
				<line
   style="fill:none"
   id="line2638"
   y2="100.239"
   x2="143.26401"
   y1="1.148"
   x1="143.26401" />
			</g>
		</g>
	</g></svg>