<?xml version="1.0" encoding="utf-8"?>
<!-- Generator: Adobe Illustrator 15.0.0, SVG Export Plug-In . SVG Version: 6.00 Build 0)  -->
<!DOCTYPE svg PUBLIC "-//W3C//DTD SVG 1.1//EN" "http://www.w3.org/Graphics/SVG/1.1/DTD/svg11.dtd">
<svg version="1.1" id="Layer_1" xmlns="http://www.w3.org/2000/svg" xmlns:xlink="http://www.w3.org/1999/xlink" x="0px" y="0px"
	 width="60px" height="60px" viewBox="0 0 60 60" enable-background="new 0 0 60 60" xml:space="preserve">
<ellipse cx="22.205" cy="46.742" rx="6.463" ry="6.515"/>
<ellipse cx="46.817" cy="46.742" rx="6.463" ry="6.515"/>
<path d="M11.906,26.813H8.094c0,0-3.594,2.156-3.656,8.031s4.188,6.969,5.313,6.969S0.969,53.125,0.969,53.125l10.938,0.132
	l3.835-11.413l41.04-0.094v-2.094c0,0-4.5-3.406-4.563-8.75s7.5-16.969,7.5-15.531s0-3.781,0-3.781H44.125
	c0,0-4.498,0.468-4.406,6.5c0.094,6.156,3.375,7.906,3.375,8.344s0,0,0,0l-25.813-0.125l4.438-13.719l-1.813-3.375h-10.5
	l-2.25,3.469L11.906,26.813z"/>
</svg>
