<?xml version="1.0" encoding="utf-8"?>
<!-- Generator: Adobe Illustrator 15.0.0, SVG Export Plug-In . SVG Version: 6.00 Build 0)  -->
<!DOCTYPE svg PUBLIC "-//W3C//DTD SVG 1.1//EN" "http://www.w3.org/Graphics/SVG/1.1/DTD/svg11.dtd">
<svg version="1.1" id="Layer_1" xmlns="http://www.w3.org/2000/svg" xmlns:xlink="http://www.w3.org/1999/xlink" x="0px" y="0px"
	 width="100px" height="100px" viewBox="0 0 100 100" enable-background="new 0 0 100 100" xml:space="preserve">
<path fill="#C1C1C1" stroke="#5C5C5C" stroke-miterlimit="10" d="M10.167,73.25c0,0-6.75,2.583-6.75,8.333
	s11.333,12.918,31.25,3.584l9.667-4.449c0,0,4.823-3.385-5.922-5.135C27.667,73.833,10.167,73.25,10.167,73.25z"/>
<path fill="#C1C1C1" stroke="#5C5C5C" stroke-miterlimit="10" d="M10.667,78.5v2.917c0,0,4,5.834,19.167,1.5
	c0,0,5.833-2.001,8.5-3.834L38,76.917"/>
<path fill="#C1C1C1" stroke="#5C5C5C" stroke-miterlimit="10" d="M10.167,63.083c0.013,0.163,0.679,13.634,0.5,15.417
	c0,0,5.833,4.999,16.083,3.083S38,76.917,38,76.917l0.333-14.584C38.333,62.333,10.153,62.92,10.167,63.083z"/>
<path fill="#C1C1C1" stroke="#5C5C5C" stroke-miterlimit="10" d="M10.167,63.083c0,0,0.917-2.084,14-3s14.667,1.916,14.167,2.25
	s-3.584,2.418-16.167,2.834S10.167,63.083,10.167,63.083z"/>
<path fill="#C1C1C1" stroke="#5C5C5C" stroke-miterlimit="10" d="M54.22,28.087c0,0-1.957,2.324-1.224,5.076
	c0.734,2.752,2.691,5.027,5.198,4.287C60.702,36.71,54.22,28.087,54.22,28.087z"/>
<path fill="#C1C1C1" stroke="#5C5C5C" stroke-miterlimit="10" d="M94.684,21.154c-0.652,0.023-3.29,0.811-4.597,4.16
	c-1.309,3.349,0.817,6.64,4.127,6.249c3.311-0.389,4.089-5.193,4.089-5.193S98.853,21.284,94.684,21.154z"/>
<g>
	<path fill="#C1C1C1" d="M96.318,21.674c0,0-2.431-0.196-3.793,2.258c-1.362,2.452-1.255,4.386-1.063,5.165
		c0.189,0.779,0.45,2.479,2.518,2.381"/>
	<g>
		<path fill="#5C5C5C" d="M96.318,21.299c-5.125-0.28-7.917,10.384-2.338,10.553c0.484,0.015,0.482-0.735,0-0.75
			c-4.418-0.134-1.9-9.285,2.338-9.053C96.802,22.076,96.799,21.326,96.318,21.299L96.318,21.299z"/>
	</g>
</g>
<g>
	<path fill="#C1C1C1" d="M95.336,24.48c-0.558-0.057-1.571,1.457-1.51,2.583c0.062,1.125,0.517,1.471,1.105,1.428
		c0.591-0.043,1.408-0.973,1.387-1.915C96.298,25.634,96.34,24.581,95.336,24.48z"/>
	<g>
		<path fill="#5C5C5C" d="M95.336,24.255c-0.883,0.043-1.401,1.256-1.625,1.961c-0.27,0.849-0.129,2.215,0.879,2.479
			c2.054,0.537,2.882-4.06,0.806-4.432c-0.283-0.051-0.404,0.383-0.119,0.434c1.44,0.258,0.976,3.547-0.489,3.571
			c-1.388,0.023-0.633-3.505,0.549-3.563C95.625,24.691,95.626,24.241,95.336,24.255z"/>
	</g>
</g>
<path fill="#7C7C7C" stroke="#5C5C5C" stroke-miterlimit="10" d="M81.893,13.226c0,0,0.825-0.917,1.346-0.917
	c0,0,0.979-2.813,2.721-2.813c0,0,2.049,0.52,1.957,3.517c0,0,3.471,3.409,2.248,6.773c-1.224,3.364-2.446,2.645-3.104,2.309
	c-0.714-0.494-1.79-1.834-1.79-3.211"/>
<path fill="#C1C1C1" stroke="#5C5C5C" stroke-miterlimit="10" d="M85.531,20.198c0,0-1.101-8.501-7.155-8.134
	c0,0-2.385-0.062-4.403,3.73l-16.757,7.4c0,0-2.874,0.917-2.996,4.893c-0.123,3.975,0,6.421,0,6.421s0.183,2.887,8.989,2.941
	c6.316,0.039,19.741-5.462,26.897-8.676c0.073-0.381-1.293-6.64,5.007-7.741c-0.227-4.023-1.551-9.089-6.481-10.922
	c-0.794-0.295-2.549-0.622-2.673-0.616c-0.123,0.006,1.978-0.164,1.957,3.588c0,0,2.875,1.773,2.141,6.687
	c0,0-0.225,2.376-2.12,2.543C86.041,22.481,85.531,20.198,85.531,20.198z"/>
<path fill="#C1C1C1" stroke="#5C5C5C" stroke-miterlimit="10" d="M6.563,37.125v2.688c0,0,15.771,4.464,39.771-9.153l-0.021-2.534"
	/>
<path fill="#C1C1C1" stroke="#5C5C5C" stroke-miterlimit="10" d="M46.313,28.125c0.531-0.078-17.125-4.625-17.125-4.625
	S4.5,29.813,6.563,37.125C24.438,40.438,45.781,28.203,46.313,28.125z"/>
<path fill="#C1C1C1" stroke="#5C5C5C" stroke-miterlimit="10" d="M33.958,26.208c0,0,1.625,0.708,2.375,0l2.375-13.292
	c0,0,0.625-2.667-1.375-2.667s-0.954,2.458-0.954,2.458L33.958,26.208z"/>
<path fill="#C1C1C1" stroke="#5C5C5C" stroke-miterlimit="10" d="M14.083,11.167l21.5-2.875c0,0,3.051,0.834,0.796,4.167
	l-21.296,4.5"/>
<path fill="#C1C1C1" stroke="#5C5C5C" stroke-miterlimit="10" d="M14.083,11.167c0,0-1.833,0.542-1.25,3.125s1.667,2.792,2.25,2.667
	s0.875-1.75,0.792-2.667S15.625,11.25,14.083,11.167z"/>
<path fill="#C1C1C1" stroke="#5C5C5C" stroke-miterlimit="10" d="M13.75,34.319l-4-15.735c0,0-0.5-4.834,4-5.667
	c0,0,2.084,0.375,0.792,2.75c0,0-2.334-0.5-1.542,3.292s3.625,14.75,3.625,14.75S17.083,34.888,13.75,34.319z"/>
<g>
	<g>
		<path fill="#5C5C5C" d="M61.018,26.925c-0.394,0.384-0.55,1.063-0.686,1.568c-0.631,2.335-0.575,4.893-0.535,7.285
			c0.008,0.483,0.758,0.484,0.75,0c-0.038-2.285-0.041-4.621,0.454-6.863c0.095-0.431,0.248-1.167,0.548-1.459
			C61.895,27.117,61.364,26.587,61.018,26.925L61.018,26.925z"/>
	</g>
</g>
<g>
	<g>
		<path fill="#5C5C5C" d="M61.754,29.025c0,2.256,0,4.512,0,6.768c0,0.484,0.75,0.484,0.75,0c0-2.256,0-4.512,0-6.768
			C62.504,28.541,61.754,28.541,61.754,29.025L61.754,29.025z"/>
	</g>
</g>
<g>
	<g>
		<path fill="#5C5C5C" d="M59.721,26.277c-1.236,2.863-1.531,6.178-1.433,9.256c0.016,0.482,0.766,0.484,0.75,0
			c-0.094-2.929,0.173-6.197,1.331-8.877C60.559,26.216,59.912,25.834,59.721,26.277L59.721,26.277z"/>
	</g>
</g>
<g>
	<g>
		<path fill="#5C5C5C" d="M58.473,25.711c-1.602,2.717-1.761,6.456-1.826,9.5c-0.01,0.445,0.68,0.444,0.689,0
			c0.063-2.914,0.192-6.54,1.732-9.152C59.295,25.676,58.698,25.329,58.473,25.711L58.473,25.711z"/>
	</g>
</g>
<g>
	<g>
		<path fill="#5C5C5C" d="M57.22,25.451c-1.276,2.861-1.702,6.138-1.718,9.241c-0.002,0.387,0.598,0.387,0.6,0
			c0.015-2.983,0.405-6.179,1.636-8.938C57.894,25.404,57.377,25.098,57.22,25.451L57.22,25.451z"/>
	</g>
</g>
<g>
	<g>
		<path fill="#5C5C5C" d="M56.178,25.398c-1.177,2.729-1.76,5.785-1.605,8.75c0.02,0.385,0.62,0.387,0.6,0
			c-0.148-2.849,0.391-5.819,1.523-8.447C56.847,25.35,56.33,25.043,56.178,25.398L56.178,25.398z"/>
	</g>
</g>
<g>
	<g>
		<path fill="#5C5C5C" d="M55.409,25.643c-0.852,2.384-1.479,4.999-1.373,7.541c0.012,0.289,0.462,0.29,0.449,0
			c-0.104-2.502,0.519-5.073,1.357-7.422C55.94,25.488,55.506,25.371,55.409,25.643L55.409,25.643z"/>
	</g>
</g>
<g>
	<g>
		<path fill="#5C5C5C" d="M62.9,20.916c0.576,0.096,1.148,0.216,1.717,0.35c0.653,0.152,2,0.332,2.398,0.946
			c0.157,0.242,0.547,0.017,0.389-0.228c-0.416-0.64-1.471-0.838-2.147-1.022c-0.735-0.2-1.486-0.355-2.237-0.479
			C62.736,20.435,62.614,20.869,62.9,20.916L62.9,20.916z"/>
	</g>
</g>
<g>
	<g>
		<path fill="#5C5C5C" d="M64.152,20.334c0.576,0.096,1.148,0.217,1.717,0.35c0.653,0.153,2,0.333,2.398,0.946
			c0.157,0.242,0.547,0.017,0.389-0.228c-0.416-0.64-1.471-0.838-2.147-1.021c-0.735-0.2-1.486-0.355-2.237-0.48
			C63.988,19.854,63.866,20.287,64.152,20.334L64.152,20.334z"/>
	</g>
</g>
<g>
	<g>
		<path fill="#5C5C5C" d="M65.474,19.726c0.576,0.096,1.148,0.216,1.717,0.35c0.653,0.152,2,0.332,2.398,0.946
			c0.157,0.242,0.547,0.017,0.389-0.228c-0.416-0.64-1.471-0.838-2.147-1.022c-0.735-0.2-1.486-0.355-2.237-0.479
			C65.31,19.245,65.188,19.678,65.474,19.726L65.474,19.726z"/>
	</g>
</g>
<g>
	<g>
		<path fill="#5C5C5C" d="M66.762,19.158c0.576,0.096,1.148,0.217,1.717,0.35c0.653,0.153,2,0.333,2.398,0.946
			c0.157,0.242,0.547,0.017,0.389-0.228c-0.416-0.64-1.471-0.838-2.147-1.021c-0.735-0.2-1.486-0.355-2.237-0.48
			C66.598,18.677,66.476,19.111,66.762,19.158L66.762,19.158z"/>
	</g>
</g>
<g>
	<g>
		<path fill="#5C5C5C" d="M68.088,18.633c0.576,0.096,1.148,0.216,1.718,0.35c0.652,0.152,2,0.332,2.398,0.946
			c0.157,0.242,0.547,0.017,0.389-0.228c-0.416-0.64-1.472-0.838-2.148-1.022c-0.734-0.2-1.485-0.355-2.237-0.479
			C67.924,18.152,67.802,18.585,68.088,18.633L68.088,18.633z"/>
	</g>
</g>
<g>
	<g>
		<path fill="#5C5C5C" d="M69.357,18.015c0.576,0.096,1.148,0.216,1.717,0.35c0.653,0.152,2,0.332,2.398,0.946
			c0.157,0.242,0.547,0.017,0.389-0.228c-0.416-0.64-1.471-0.838-2.147-1.022c-0.735-0.2-1.486-0.355-2.237-0.479
			C69.193,17.534,69.071,17.967,69.357,18.015L69.357,18.015z"/>
	</g>
</g>
<g>
	<g>
		<path fill="#5C5C5C" d="M70.596,17.468c0.576,0.096,1.148,0.217,1.717,0.35c0.653,0.153,2,0.333,2.398,0.946
			c0.157,0.242,0.547,0.017,0.389-0.228c-0.416-0.64-1.471-0.838-2.147-1.021c-0.735-0.2-1.486-0.355-2.237-0.48
			C70.432,16.987,70.31,17.42,70.596,17.468L70.596,17.468z"/>
	</g>
</g>
<g>
	<g>
		<path fill="#5C5C5C" d="M71.62,17.051c0.576,0.096,1.148,0.216,1.717,0.35c0.653,0.152,2,0.332,2.398,0.946
			c0.157,0.242,0.547,0.017,0.389-0.228c-0.416-0.64-1.471-0.838-2.147-1.022c-0.735-0.2-1.486-0.355-2.237-0.479
			C71.456,16.57,71.334,17.004,71.62,17.051L71.62,17.051z"/>
	</g>
</g>
<g>
	<g>
		<path fill="#5C5C5C" d="M72.645,16.616c0.576,0.096,1.148,0.216,1.717,0.35c0.653,0.152,2,0.332,2.398,0.946
			c0.157,0.242,0.547,0.017,0.389-0.228c-0.416-0.64-1.471-0.838-2.147-1.022c-0.735-0.2-1.486-0.355-2.237-0.479
			C72.48,16.135,72.358,16.569,72.645,16.616L72.645,16.616z"/>
	</g>
</g>
<g>
	<g>
		<path fill="#5C5C5C" d="M61.283,21.624c3.916,0.137,6.861,2.972,6.954,6.912c0.007,0.29,0.456,0.291,0.449,0
			c-0.099-4.189-3.225-7.215-7.403-7.362C60.993,21.164,60.994,21.614,61.283,21.624L61.283,21.624z"/>
	</g>
</g>
<path fill="none" stroke="#5C5C5C" stroke-width="0.15" stroke-miterlimit="10" d="M74.075,15.947c0,0,8.989,0.48,7.817,9.755"/>
<g>
	<g>
		<path fill="#8D8D8E" d="M68.684,23.962c0.249,0.191,0.438,0.584,0.583,0.872c0.555,1.104,0.802,2.369,1.011,3.575
			c0.017,0.095,0.161,0.055,0.145-0.04c-0.222-1.274-0.5-2.566-1.086-3.729c-0.14-0.279-0.321-0.61-0.576-0.807
			C68.683,23.774,68.608,23.904,68.684,23.962L68.684,23.962z"/>
	</g>
</g>
<g>
	<g>
		<path fill="#8D8D8E" d="M69.963,23.426c0.249,0.191,0.438,0.584,0.583,0.872c0.555,1.104,0.801,2.369,1.01,3.575
			c0.017,0.095,0.161,0.055,0.145-0.04c-0.221-1.274-0.5-2.566-1.085-3.729c-0.14-0.279-0.321-0.611-0.576-0.807
			C69.962,23.237,69.888,23.368,69.963,23.426L69.963,23.426z"/>
	</g>
</g>
<g>
	<g>
		<path fill="#8D8D8E" d="M71.277,23.051c0.249,0.191,0.438,0.584,0.583,0.872c0.555,1.103,0.8,2.369,1.009,3.574
			c0.017,0.095,0.161,0.055,0.145-0.04c-0.221-1.274-0.499-2.565-1.084-3.729c-0.14-0.279-0.321-0.61-0.576-0.807
			C71.276,22.863,71.202,22.993,71.277,23.051L71.277,23.051z"/>
	</g>
</g>
<g>
	<g>
		<path fill="#8D8D8E" d="M72.599,22.37c0.249,0.191,0.438,0.584,0.583,0.872c0.555,1.103,0.801,2.369,1.01,3.574
			c0.017,0.095,0.161,0.055,0.145-0.04c-0.221-1.274-0.5-2.566-1.085-3.729c-0.14-0.279-0.321-0.61-0.576-0.807
			C72.598,22.182,72.523,22.312,72.599,22.37L72.599,22.37z"/>
	</g>
</g>
<g>
	<g>
		<path fill="#8D8D8E" d="M73.954,21.772c0.249,0.191,0.438,0.584,0.582,0.872c0.555,1.104,0.801,2.369,1.01,3.575
			c0.017,0.095,0.161,0.055,0.145-0.04c-0.221-1.274-0.499-2.566-1.084-3.73c-0.141-0.279-0.321-0.61-0.576-0.807
			C73.953,21.583,73.879,21.714,73.954,21.772L73.954,21.772z"/>
	</g>
</g>
<g>
	<g>
		<path fill="#8D8D8E" d="M75.318,21.106c0.249,0.191,0.438,0.583,0.583,0.871c0.555,1.103,0.8,2.369,1.009,3.574
			c0.017,0.095,0.161,0.055,0.145-0.04c-0.221-1.274-0.499-2.565-1.084-3.729c-0.14-0.279-0.321-0.61-0.576-0.806
			C75.317,20.918,75.243,21.048,75.318,21.106L75.318,21.106z"/>
	</g>
</g>
<g>
	<g>
		<path fill="#8D8D8E" d="M76.479,20.567c0.249,0.191,0.438,0.584,0.582,0.871c0.555,1.104,0.801,2.369,1.01,3.575
			c0.017,0.095,0.161,0.055,0.145-0.04c-0.221-1.274-0.499-2.566-1.084-3.729c-0.141-0.279-0.321-0.61-0.576-0.807
			C76.478,20.379,76.403,20.509,76.479,20.567L76.479,20.567z"/>
	</g>
</g>
<g>
	<g>
		<path fill="#8D8D8E" d="M77.358,20.064c0.249,0.191,0.438,0.583,0.583,0.871c0.556,1.103,0.802,2.369,1.011,3.574
			c0.017,0.095,0.161,0.055,0.145-0.04c-0.221-1.274-0.5-2.565-1.085-3.729c-0.141-0.279-0.322-0.61-0.577-0.806
			C77.357,19.875,77.283,20.006,77.358,20.064L77.358,20.064z"/>
	</g>
</g>
<g>
	<g>
		<path fill="#8D8D8E" d="M78.242,19.443c0.249,0.191,0.438,0.583,0.583,0.871c0.556,1.104,0.802,2.369,1.011,3.575
			c0.017,0.095,0.161,0.055,0.145-0.04c-0.221-1.274-0.5-2.566-1.085-3.729c-0.141-0.279-0.322-0.611-0.577-0.807
			C78.241,19.255,78.167,19.385,78.242,19.443L78.242,19.443z"/>
	</g>
</g>
<polygon fill="#C1C1C1" stroke="#5C5C5C" stroke-width="0.25" stroke-miterlimit="10" points="76.235,34.36 75.054,34.101 
	76.235,30.126 89.833,25.702 90.71,26.089 91.618,28.087 "/>
<path fill="#C1C1C1" stroke="#5C5C5C" stroke-width="0.25" stroke-miterlimit="10" d="M76.235,34.36
	C76.052,34.478,77.174,31,77.174,31s13.577-5.013,13.536-4.911c-0.041,0.103,0.908,1.999,0.908,1.999s-0.215,0.087-0.595,0.241
	C88.212,29.467,76.397,34.256,76.235,34.36z"/>
<path fill="#C1C1C1" stroke="#5C5C5C" stroke-width="0.15" stroke-miterlimit="10" d="M81.21,26.272v2.386
	c0,0,0.796,0.326,1.081-0.225v-2.161"/>
<g>
	<ellipse fill="#C1C1C1" cx="81.75" cy="26.272" rx="0.541" ry="0.327"/>
	<g>
		<path fill="#5C5C5C" d="M82.248,26.261c-0.166,0.098-0.331,0.195-0.497,0.293c-0.161-0.662,0.004-0.752,0.497-0.27
			c0.013,0.057,0.099,0.033,0.086-0.023c-0.104-0.469-1.169-0.509-1.169,0.012c0,0.522,1.064,0.482,1.169,0.012
			C82.347,26.228,82.26,26.204,82.248,26.261z"/>
	</g>
</g>
<path fill="#C1C1C1" stroke="#5C5C5C" stroke-width="0.15" stroke-miterlimit="10" d="M79.906,26.599v2.385
	c0,0,0.796,0.326,1.08-0.225v-2.161"/>
<g>
	<ellipse fill="#C1C1C1" cx="80.446" cy="26.599" rx="0.54" ry="0.326"/>
	<g>
		<path fill="#5C5C5C" d="M80.943,26.587c-0.166,0.098-0.331,0.196-0.497,0.293c-0.161-0.663,0.004-0.752,0.497-0.269
			c0.012,0.057,0.099,0.032,0.086-0.024c-0.104-0.469-1.168-0.509-1.168,0.012s1.064,0.481,1.168,0.012
			C81.042,26.555,80.955,26.53,80.943,26.587z"/>
	</g>
</g>
<path fill="#C1C1C1" stroke="#5C5C5C" stroke-width="0.15" stroke-miterlimit="10" d="M78.58,27.027v2.386
	c0,0,0.797,0.326,1.081-0.225v-2.161"/>
<g>
	<ellipse fill="#C1C1C1" cx="79.121" cy="27.027" rx="0.541" ry="0.327"/>
	<g>
		<path fill="#5C5C5C" d="M79.618,27.016c-0.166,0.098-0.331,0.195-0.497,0.293c-0.161-0.662,0.004-0.752,0.497-0.27
			c0.012,0.057,0.099,0.033,0.086-0.023c-0.104-0.469-1.169-0.509-1.169,0.012c0,0.522,1.065,0.482,1.169,0.012
			C79.717,26.983,79.63,26.958,79.618,27.016z"/>
	</g>
</g>
<path fill="#C1C1C1" stroke="#5C5C5C" stroke-width="0.15" stroke-miterlimit="10" d="M77.379,27.435v2.386
	c0,0,0.797,0.326,1.081-0.225v-2.161"/>
<g>
	<ellipse fill="#C1C1C1" cx="77.919" cy="27.435" rx="0.541" ry="0.326"/>
	<g>
		<path fill="#5C5C5C" d="M78.417,27.423c-0.166,0.098-0.331,0.195-0.497,0.293c-0.161-0.662,0.004-0.751,0.497-0.27
			c0.012,0.057,0.099,0.033,0.086-0.023c-0.104-0.469-1.169-0.509-1.169,0.012c0,0.521,1.065,0.481,1.169,0.012
			C78.516,27.39,78.429,27.366,78.417,27.423z"/>
	</g>
</g>
<path fill="#C1C1C1" stroke="#5C5C5C" stroke-width="0.15" stroke-miterlimit="10" d="M76.235,27.676v2.386
	c0,0,0.796,0.326,1.081-0.225v-2.161"/>
<g>
	<ellipse fill="#C1C1C1" cx="76.776" cy="27.676" rx="0.541" ry="0.326"/>
	<g>
		<path fill="#5C5C5C" d="M77.273,27.664c-0.166,0.098-0.331,0.196-0.497,0.293c-0.161-0.662,0.004-0.751,0.497-0.269
			c0.013,0.056,0.099,0.032,0.086-0.024c-0.104-0.468-1.169-0.509-1.169,0.012c0,0.521,1.064,0.481,1.169,0.012
			C77.372,27.632,77.285,27.607,77.273,27.664z"/>
	</g>
</g>
<path fill="#C1C1C1" stroke="#5C5C5C" stroke-miterlimit="10" d="M70.701,28.485c-0.979,0.033-4.923,1.146-6.88,5.878
	s1.223,9.38,6.177,8.83c4.953-0.55,6.115-7.339,6.115-7.339S76.938,28.668,70.701,28.485z"/>
<g>
	<path fill="#C1C1C1" d="M73.147,29.219c0,0-3.639-0.275-5.678,3.19c-2.038,3.466-1.875,6.197-1.59,7.298
		c0.286,1.101,0.674,3.503,3.767,3.363"/>
	<g>
		<path fill="#5C5C5C" d="M73.147,28.844c-7.302-0.374-11.584,14.374-3.501,14.602c0.484,0.014,0.482-0.736,0-0.75
			c-6.938-0.195-2.886-13.428,3.501-13.102C73.631,29.619,73.629,28.868,73.147,28.844L73.147,28.844z"/>
	</g>
</g>
<path fill="#C1C1C1" stroke="#5C5C5C" stroke-miterlimit="10" d="M61.373,84.737L59.725,94.75c0,0,29.855-3.359,35.533-15.173
	c0,0-0.923-6.48-1.038-6.44C94.105,73.177,61.373,84.737,61.373,84.737z"/>
<g>
	<path fill="#C1C1C1" d="M71.68,33.184c-0.838-0.08-2.354,2.059-2.263,3.649c0.092,1.59,0.771,2.079,1.654,2.018
		c0.884-0.061,2.106-1.375,2.076-2.706C73.116,34.814,73.178,33.327,71.68,33.184z"/>
	<g>
		<path fill="#5C5C5C" d="M71.68,32.958c-2.322,0.108-3.734,5.517-1.06,6.096c2.916,0.631,4.046-5.59,1.119-6.088
			c-0.283-0.048-0.405,0.385-0.119,0.434c2.347,0.4,1.474,5.73-1.063,5.181c-1.976-0.428-0.575-5.093,1.123-5.172
			C71.969,33.395,71.97,32.945,71.68,32.958z"/>
	</g>
</g>
<path fill="#C1C1C1" stroke="#5C5C5C" stroke-width="0.75" stroke-miterlimit="10" d="M61.373,84.737
	c-0.184,0.488,27.107-2.32,32.847-11.601C94.342,72.832,75.477,74.785,61.373,84.737z"/>
<g>
	<ellipse fill="#C1C1C1" cx="64.334" cy="89.438" rx="0.824" ry="0.732"/>
	<g>
		<path fill="#5C5C5C" d="M65.038,89.438c-0.073,0.806-1.335,0.806-1.408,0C63.558,88.64,64.966,88.637,65.038,89.438
			c0.014,0.152,0.254,0.154,0.24,0c-0.101-1.11-1.788-1.11-1.889,0c-0.1,1.103,1.788,1.103,1.889,0
			C65.292,89.284,65.052,89.286,65.038,89.438z"/>
	</g>
</g>
<g>
	<ellipse fill="#C1C1C1" cx="68.303" cy="88.706" rx="0.824" ry="0.732"/>
	<g>
		<path fill="#5C5C5C" d="M69.007,88.706c-0.073,0.806-1.335,0.806-1.408,0C67.525,87.906,68.934,87.903,69.007,88.706
			c0.014,0.152,0.254,0.154,0.24,0c-0.101-1.111-1.788-1.111-1.889,0c-0.1,1.103,1.788,1.103,1.889,0
			C69.261,88.552,69.021,88.554,69.007,88.706z"/>
	</g>
</g>
<g>
	<ellipse fill="#C1C1C1" cx="72.026" cy="87.973" rx="0.824" ry="0.733"/>
	<g>
		<path fill="#5C5C5C" d="M72.73,87.973c-0.073,0.808-1.335,0.808-1.408,0C71.25,87.174,72.658,87.171,72.73,87.973
			c0.014,0.152,0.254,0.154,0.24,0c-0.101-1.11-1.788-1.11-1.889,0c-0.101,1.104,1.788,1.104,1.889,0
			C72.984,87.818,72.744,87.82,72.73,87.973z"/>
	</g>
</g>
<g>
	<ellipse fill="#C1C1C1" cx="75.522" cy="86.954" rx="0.824" ry="0.732"/>
	<g>
		<path fill="#5C5C5C" d="M76.227,86.954c-0.073,0.806-1.335,0.806-1.408,0C74.746,86.155,76.154,86.152,76.227,86.954
			c0.014,0.152,0.254,0.154,0.24,0c-0.101-1.11-1.788-1.11-1.889,0c-0.1,1.103,1.788,1.103,1.889,0
			C76.48,86.8,76.24,86.802,76.227,86.954z"/>
	</g>
</g>
<g>
	<ellipse fill="#C1C1C1" cx="78.668" cy="86.078" rx="0.709" ry="0.733"/>
	<g>
		<path fill="#5C5C5C" d="M79.258,86.078c-0.068,0.786-1.11,0.786-1.179,0C78.011,85.293,79.19,85.302,79.258,86.078
			c0.014,0.153,0.254,0.154,0.24,0c-0.095-1.093-1.564-1.093-1.659,0c-0.042,0.482,0.401,0.813,0.829,0.854
			c0.486,0.045,0.794-0.436,0.83-0.854C79.512,85.924,79.271,85.925,79.258,86.078z"/>
	</g>
</g>
<g>
	<ellipse fill="#C1C1C1" cx="81.416" cy="85.163" rx="0.71" ry="0.732"/>
	<g>
		<path fill="#5C5C5C" d="M82.006,85.163c-0.068,0.785-1.111,0.785-1.18,0C80.758,84.377,81.938,84.386,82.006,85.163
			c0.014,0.153,0.254,0.154,0.24,0c-0.095-1.094-1.565-1.094-1.66,0c-0.042,0.482,0.402,0.813,0.83,0.853
			c0.485,0.045,0.794-0.435,0.83-0.853C82.26,85.009,82.02,85.01,82.006,85.163z"/>
	</g>
</g>
<g>
	<ellipse fill="#C1C1C1" cx="83.97" cy="84.267" rx="0.618" ry="0.733"/>
	<g>
		<path fill="#5C5C5C" d="M84.468,84.267c0.002,0.325-0.164,0.529-0.497,0.613c-0.334-0.084-0.5-0.288-0.498-0.613
			c-0.002-0.325,0.165-0.529,0.498-0.612C84.304,83.738,84.47,83.942,84.468,84.267c0.013,0.153,0.253,0.154,0.24,0
			c-0.092-1.078-1.384-1.078-1.476,0c-0.038,0.451,0.321,0.804,0.738,0.854c0.466,0.056,0.706-0.486,0.737-0.854
			C84.721,84.112,84.48,84.113,84.468,84.267z"/>
	</g>
</g>
<g>
	<ellipse fill="#C1C1C1" cx="86.086" cy="83.211" rx="0.618" ry="0.732"/>
	<g>
		<path fill="#5C5C5C" d="M86.584,83.211c0.001,0.324-0.164,0.528-0.497,0.612c-0.333-0.083-0.5-0.287-0.498-0.612
			c-0.002-0.325,0.165-0.529,0.498-0.612C86.42,82.683,86.585,82.887,86.584,83.211c0.013,0.153,0.253,0.154,0.24,0
			c-0.092-1.077-1.384-1.078-1.476,0c-0.038,0.45,0.321,0.803,0.738,0.853c0.465,0.056,0.706-0.486,0.737-0.853
			C86.837,83.057,86.597,83.058,86.584,83.211z"/>
	</g>
</g>
<g>
	<ellipse fill="#C1C1C1" cx="88.264" cy="82.274" rx="0.557" ry="0.732"/>
	<g>
		<path fill="#5C5C5C" d="M88.7,82.274c0.01,0.287-0.136,0.491-0.436,0.612c-0.302-0.12-0.447-0.324-0.438-0.612
			c-0.01-0.288,0.136-0.493,0.438-0.613C88.564,81.782,88.71,81.986,88.7,82.274c0.012,0.153,0.252,0.154,0.24,0
			c-0.033-0.43-0.221-0.793-0.676-0.854c-0.45-0.06-0.652,0.521-0.678,0.854c-0.032,0.427,0.268,0.798,0.678,0.853
			c0.449,0.06,0.65-0.521,0.676-0.853C88.952,82.12,88.712,82.121,88.7,82.274z"/>
	</g>
</g>
<g>
	<ellipse fill="#C1C1C1" cx="89.933" cy="81.317" rx="0.557" ry="0.732"/>
	<g>
		<path fill="#5C5C5C" d="M90.369,81.317c0.01,0.288-0.136,0.492-0.437,0.612c-0.301-0.12-0.446-0.324-0.437-0.612
			c-0.01-0.288,0.136-0.492,0.437-0.612C90.233,80.825,90.379,81.029,90.369,81.317c0.012,0.153,0.252,0.154,0.24,0
			c-0.033-0.431-0.222-0.792-0.677-0.853c-0.449-0.06-0.651,0.521-0.677,0.853c-0.032,0.427,0.268,0.798,0.677,0.853
			c0.449,0.06,0.651-0.521,0.677-0.853C90.621,81.163,90.381,81.164,90.369,81.317z"/>
	</g>
</g>
<g>
	<ellipse fill="#C1C1C1" cx="91.459" cy="80.382" rx="0.557" ry="0.732"/>
	<g>
		<path fill="#5C5C5C" d="M91.896,80.382c0.01,0.288-0.136,0.492-0.437,0.612c-0.301-0.12-0.446-0.324-0.437-0.612
			c-0.01-0.288,0.136-0.492,0.437-0.613C91.76,79.89,91.905,80.094,91.896,80.382c0.012,0.153,0.252,0.154,0.24,0
			c-0.033-0.431-0.222-0.793-0.677-0.854c-0.449-0.06-0.651,0.521-0.677,0.854c-0.032,0.427,0.268,0.798,0.677,0.853
			c0.449,0.06,0.651-0.521,0.677-0.853C92.147,80.228,91.907,80.229,91.896,80.382z"/>
	</g>
</g>
<g>
	<ellipse fill="#C1C1C1" cx="92.544" cy="79.335" rx="0.529" ry="0.701"/>
	<g>
		<path fill="#5C5C5C" d="M92.953,79.335c0.01,0.271-0.126,0.466-0.408,0.581c-0.282-0.115-0.419-0.31-0.409-0.581
			c-0.01-0.272,0.127-0.466,0.409-0.582C92.827,78.869,92.963,79.063,92.953,79.335c0.012,0.153,0.252,0.154,0.24,0
			c-0.031-0.413-0.211-0.764-0.648-0.822c-0.433-0.058-0.625,0.504-0.649,0.822c-0.031,0.41,0.255,0.769,0.649,0.821
			c0.432,0.058,0.624-0.503,0.648-0.821C93.205,79.181,92.965,79.182,92.953,79.335z"/>
	</g>
</g>
<g>
	<ellipse fill="#C1C1C1" cx="93.621" cy="78.298" rx="0.5" ry="0.65"/>
	<g>
		<path fill="#5C5C5C" d="M94,78.298c-0.031,0.115-0.063,0.23-0.093,0.346c-0.452,0.185-0.674,0.069-0.666-0.346
			c0.031-0.115,0.063-0.23,0.094-0.346C93.786,77.768,94.008,77.883,94,78.298c0.014,0.153,0.254,0.154,0.24,0
			c-0.086-0.97-1.153-0.97-1.239,0c-0.031,0.35,0.247,0.771,0.62,0.771c0.415,0,0.588-0.423,0.619-0.771
			C94.254,78.144,94.014,78.145,94,78.298z"/>
	</g>
</g>
<g>
	<ellipse fill="#C1C1C1" cx="94.486" cy="77.25" rx="0.49" ry="0.6"/>
	<g>
		<path fill="#5C5C5C" d="M94.855,77.25c-0.055,0.579-0.685,0.579-0.739,0c0.049-0.128,0.099-0.255,0.148-0.383
			C94.644,76.729,94.84,76.857,94.855,77.25c0.015,0.152,0.255,0.154,0.24,0c-0.086-0.909-1.134-0.909-1.22,0
			c-0.032,0.341,0.26,0.72,0.61,0.72c0.396,0,0.577-0.381,0.609-0.72C95.11,77.096,94.87,77.098,94.855,77.25z"/>
	</g>
</g>
<rect x="79.792" y="62.655" fill="#C1C1C1" stroke="#5C5C5C" stroke-width="0.5" stroke-miterlimit="10" width="3.053" height="8.284"/>
<ellipse fill="#C1C1C1" stroke="#5C5C5C" stroke-width="0.5" stroke-miterlimit="10" cx="81.402" cy="61.526" rx="2.391" ry="0.539"/>
<path fill="#C1C1C1" stroke="#5C5C5C" stroke-width="0.5" stroke-miterlimit="10" d="M83.793,61.526c0.064-0.103,0,1.129,0,1.129
	s-0.603,0.388-2.392,0.388c-1.788,0-2.391-0.51-2.391-0.51s0-1.073,0-1.007C79.011,61.592,81.399,62.706,83.793,61.526z"/>
<rect x="84.92" y="61.578" fill="#C1C1C1" stroke="#5C5C5C" stroke-width="0.5" stroke-miterlimit="10" width="3.053" height="8.283"/>
<rect x="84.92" y="66.329" fill="#C1C1C1" stroke="#5C5C5C" stroke-width="0.25" stroke-miterlimit="10" width="1.634" height="4.152"/>
<ellipse fill="#696969" stroke="#5C5C5C" stroke-width="0.25" stroke-miterlimit="10" cx="85.737" cy="66.299" rx="0.817" ry="0.336"/>
<rect x="83.76" y="66.454" fill="#C1C1C1" stroke="#5C5C5C" stroke-width="0.25" stroke-miterlimit="10" width="1.634" height="4.152"/>
<ellipse fill="#696969" stroke="#5C5C5C" stroke-width="0.25" stroke-miterlimit="10" cx="84.577" cy="66.424" rx="0.817" ry="0.336"/>
<rect x="82.693" y="66.589" fill="#C1C1C1" stroke="#5C5C5C" stroke-width="0.25" stroke-miterlimit="10" width="1.634" height="4.151"/>
<ellipse fill="#696969" stroke="#5C5C5C" stroke-width="0.25" stroke-miterlimit="10" cx="83.51" cy="66.559" rx="0.817" ry="0.336"/>
<path fill="#C1C1C1" stroke="#5C5C5C" stroke-width="0.5" stroke-miterlimit="10" d="M88.264,71.233c0,0,0.828-2.188,0.828-2.31
	s-1.385-0.244-1.385-0.244l-0.63,0.733L88.264,71.233l-2.795,1.049c0,0-1.582-1.847-1.498-2.015s3.106-0.854,3.106-0.854"/>
<path fill="#C1C1C1" stroke="#5C5C5C" stroke-width="0.25" stroke-miterlimit="10" d="M92.145,73.107l1.477-1.405
	c0,0-0.152-0.732-0.738-0.763l-0.867,0.59L92.145,73.107z"/>
<path fill="#C1C1C1" stroke="#5C5C5C" stroke-width="0.25" stroke-miterlimit="10" d="M90.252,75.555c0,0,1.831-0.494,1.923-0.77
	l-0.159-4.029c0,0-0.255-0.55-1.681-0.488L90.252,75.555z"/>
<path fill="#C1C1C1" stroke="#5C5C5C" stroke-width="0.25" stroke-miterlimit="10" d="M92.016,70.756c0,0-0.513,0.519-1.764,0.366"
	/>
<polygon fill="#C1C1C1" stroke="#5C5C5C" stroke-width="0.5" stroke-miterlimit="10" points="83.971,70.268 82.62,70.268 
	81.416,71.144 81.416,78.948 82.62,79.051 "/>
<rect x="89.092" y="65.277" fill="#C1C1C1" stroke="#5C5C5C" stroke-width="0.25" stroke-miterlimit="10" width="1.397" height="5.479"/>
<ellipse fill="#C1C1C1" stroke="#5C5C5C" stroke-width="0.5" stroke-miterlimit="10" cx="89.791" cy="63.979" rx="1.664" ry="1.68"/>
<path fill="#C1C1C1" stroke="#5C5C5C" stroke-width="0.5" stroke-miterlimit="10" d="M90.489,76.189l-7.869,2.861v-6.463
	c0,0,1.255-2.263,1.351-2.32c0.096-0.059,1.498,2.015,1.498,2.015l2.795-1.049c0,0,0.721-2.294,0.828-2.31
	c0.106-0.015,1.397,1.526,1.397,1.526V76.189z"/>
<line fill="none" stroke="#5C5C5C" stroke-width="0.25" stroke-miterlimit="10" x1="83.129" y1="73.687" x2="89.947" y2="71.244"/>
<line fill="none" stroke="#5C5C5C" stroke-width="0.25" stroke-miterlimit="10" x1="83.129" y1="73.972" x2="89.947" y2="71.529"/>
<polygon fill="#C1C1C1" stroke="#5C5C5C" stroke-width="0.25" stroke-miterlimit="10" points="87.973,64.061 89.702,64.061 
	89.702,65.445 87.973,66.95 "/>
<line fill="none" stroke="#5C5C5C" stroke-width="0.25" stroke-miterlimit="10" x1="83.12" y1="74.603" x2="89.938" y2="72.14"/>
<line fill="none" stroke="#5C5C5C" stroke-width="0.25" stroke-miterlimit="10" x1="83.146" y1="78.298" x2="89.964" y2="75.844"/>
<line fill="none" stroke="#5C5C5C" stroke-width="0.25" stroke-miterlimit="10" x1="89.702" y1="64.061" x2="87.973" y2="65.658"/>
<ellipse fill="#C1C1C1" stroke="#5C5C5C" stroke-width="0.5" stroke-miterlimit="10" cx="86.53" cy="60.448" rx="2.391" ry="0.539"/>
<path fill="#C1C1C1" stroke="#5C5C5C" stroke-width="0.5" stroke-miterlimit="10" d="M88.921,60.448c0.063-0.103,0,1.13,0,1.13
	s-0.604,0.387-2.392,0.387c-1.789,0-2.391-0.51-2.391-0.51s0-1.073,0-1.007C84.139,60.514,86.527,61.628,88.921,60.448z"/>
<path fill="#9C9B9B" stroke="#5C5C5C" stroke-width="0.5" stroke-miterlimit="10" d="M73.951,69.148c0,0,0.06-1.567,3.846-1.659
	l3.619,0.184l-0.75,6.014L73.951,69.148z"/>
<path fill="#9C9B9B" stroke="#5C5C5C" stroke-width="0.75" stroke-miterlimit="10" d="M73.666,75.844c0,0-0.052-2.005,5.84-2.157
	l1.951,1.221l-1.005,2.534L73.666,75.844z"/>
<line fill="none" stroke="#5C5C5C" stroke-width="0.25" stroke-miterlimit="10" x1="82.62" y1="72.588" x2="81.318" y2="72.588"/>
<path fill="#C1C1C1" stroke="#5C5C5C" stroke-width="0.5" stroke-miterlimit="10" d="M81.416,78.948c0,0,0.139-11.133,0-11.144
	c-0.14-0.01,0.554,1.548-7.465,1.344v2.096l1.912,0.778l-0.122,3.231c0,0,3.869,0.326,5.577-0.366c0,0-4.152,1.708-7.652,0.956
	l0.04,4.589C73.706,80.433,79.194,81.016,81.416,78.948z"/>
<path fill="#C1C1C1" stroke="#5C5C5C" stroke-width="0.75" stroke-miterlimit="10" d="M67.845,76.881c-0.031,0.743,0,4.66,0,4.66
	s2.85,2.261,6.636,0c0,0,0.01-4.598-0.001-4.891C74.637,75.609,69.615,74.725,67.845,76.881z"/>
<path fill="none" stroke="#5C5C5C" stroke-width="0.75" stroke-miterlimit="10" d="M67.845,76.88
	c-0.152,0.317,1.241,1.042,3.113,0.97c1.873-0.072,3.277-0.86,3.521-1.199"/>
<g>
	<path fill="#C1C1C1" d="M68.669,77.854H64.99c0,0-1.145,1.296,0.26,2.35h3.969C69.219,80.204,70.592,78.237,68.669,77.854z"/>
	<g>
		<path fill="#5C5C5C" d="M68.669,77.72c-1.227,0-2.452,0-3.679,0c-0.412,0-0.571,1.078-0.572,1.346
			c-0.002,0.549,0.461,1.273,1.04,1.273c0.756,0,1.512,0,2.268,0c0.363,0,1.233,0.174,1.562-0.019
			c0.295-0.173,0.49-0.91,0.524-1.213c0.087-0.784-0.383-1.204-1.106-1.383c-0.169-0.042-0.241,0.218-0.072,0.26
			c0.987,0.245,1.067,0.962,0.689,1.767c-0.061,0.131-0.135,0.256-0.214,0.376c0.084-0.128,0.033-0.058-0.184-0.058
			c-1.127,0-2.254,0-3.381,0c-0.89,0-0.969-1.22-0.641-1.85c0.048-0.09,0.108-0.177,0.171-0.257
			c-0.038,0.049-0.117,0.026,0.002,0.026c0.195,0,0.391,0,0.586,0c1.002,0,2.005,0,3.007,0C68.843,77.989,68.843,77.72,68.669,77.72
			z"/>
	</g>
</g>
<g>
	<g>
		<path fill="#5C5C5C" d="M64.922,77.971c0.848,0.435,0.579,1.503,0.212,2.165c-0.085,0.152,0.148,0.289,0.232,0.137
			c0.439-0.791,0.683-2.027-0.308-2.534C64.903,77.659,64.767,77.892,64.922,77.971L64.922,77.971z"/>
	</g>
</g>
<path fill="#C1C1C1" stroke="#5C5C5C" stroke-width="0.5" stroke-miterlimit="10" d="M79.159,58.348
	c0.11,4.387,0.236,9.672,0.209,9.752c-0.366,0.306-2.197,0.321-2.319,0.016c0.003-0.098,0.152-5.368,0.276-9.753"/>
<path fill="#C1C1C1" stroke="#5C5C5C" stroke-width="0.5" stroke-miterlimit="10" d="M75.436,58.077c0,0.147,0,1.526,0,1.526
	s2.279,2.097,5.556,0v-1.526C79.131,57.233,77.186,57.248,75.436,58.077z"/>
<path fill="#C1C1C1" stroke="#5C5C5C" stroke-width="0.5" stroke-miterlimit="10" d="M79.159,58.348
	c-0.079-3.129-0.148-5.801-0.148-5.801l-1.52-0.016c0,0-0.076,2.688-0.166,5.831C77.325,58.362,77.728,58.639,79.159,58.348z"/>
<path fill="none" stroke="#5C5C5C" stroke-width="0.5" stroke-miterlimit="10" d="M75.436,58.077c0,0.163,2.646,1.689,5.556,0"/>
<path fill="#C1C1C1" stroke="#5C5C5C" stroke-width="0.75" stroke-miterlimit="10" d="M59.012,80.85
	c-0.065-0.02,3.501-2.217,3.501-2.217s3.744,1.327,3.744,1.403S59.077,80.87,59.012,80.85z"/>
<path fill="#C1C1C1" stroke="#5C5C5C" stroke-width="0.75" stroke-miterlimit="10" d="M59.012,85.896c0,0-0.075-4.984,0-5.046
	c0.075-0.061,7.169-0.875,7.245-0.813c0.077,0.061,0.015,4.755,0.015,4.755L59.012,85.896z"/>
</svg>
