<?xml version="1.0" encoding="utf-8"?>
<!-- Generator: Adobe Illustrator 15.0.0, SVG Export Plug-In . SVG Version: 6.00 Build 0)  -->
<!DOCTYPE svg PUBLIC "-//W3C//DTD SVG 1.1//EN" "http://www.w3.org/Graphics/SVG/1.1/DTD/svg11.dtd">
<svg version="1.1" id="Layer_1" xmlns="http://www.w3.org/2000/svg" xmlns:xlink="http://www.w3.org/1999/xlink" x="0px" y="0px"
	 width="60px" height="60px" viewBox="0 0 60 60" enable-background="new 0 0 60 60" xml:space="preserve">
<path fill="#010202" stroke="#000000" stroke-miterlimit="10" d="M34.563,8.763c0,0.594-0.537,1.075-1.198,1.075h-1.902
	c-0.661,0-1.196-0.481-1.196-1.075l0,0c0-0.594,0.535-1.075,1.196-1.075h1.902C34.025,7.688,34.563,8.168,34.563,8.763L34.563,8.763
	z"/>
<rect x="30.656" y="8.875" fill="#010202" stroke="#000000" stroke-miterlimit="10" width="3.344" height="11.188"/>
<rect x="25.524" y="10.978" fill="#010202" stroke="#000000" stroke-miterlimit="10" width="14.439" height="3.303"/>
<path fill="#FDFDFD" stroke="#000000" stroke-miterlimit="10" d="M34.318,17.064c0,1.173-0.792,2.124-1.771,2.124H32.39
	c-0.979,0-1.771-0.951-1.771-2.124l0,0c0-1.173,0.792-2.124,1.771-2.124h0.158C33.526,14.94,34.318,15.891,34.318,17.064
	L34.318,17.064z"/>
<path fill="#FDFDFD" stroke="#000000" stroke-miterlimit="10" d="M34.862,12.391c0,1.408-1.141,2.55-2.546,2.55
	c-1.413,0-2.554-1.142-2.554-2.55s1.141-2.55,2.554-2.55C33.722,9.841,34.862,10.983,34.862,12.391z"/>
<circle fill="#FDFDFD" stroke="#000000" stroke-miterlimit="10" cx="23.056" cy="12.391" r="2.85"/>
<circle fill="#FDFDFD" stroke="#000000" stroke-miterlimit="10" cx="42.083" cy="12.391" r="2.85"/>
<g>
	<g>
		<path d="M28.833,19.938c2.32,0,4.639,0,6.958,0c0.968,0,0.968-1.5,0-1.5c-2.319,0-4.639,0-6.958,0
			C27.866,18.438,27.866,19.938,28.833,19.938L28.833,19.938z"/>
	</g>
</g>
<g>
	<polyline fill="#FFFFFF" points="28.163,23.833 25.906,23.833 29.792,19.625 34.688,19.625 38.542,23.833 28.163,23.833 	"/>
	<g>
		<path d="M28.163,23.083c-0.752,0-1.504,0-2.257,0c0.177,0.427,0.354,0.854,0.53,1.28c0.925-1.002,1.85-2.004,2.775-3.006
			c0.263-0.285,0.527-0.57,0.79-0.855c0.411-0.445,0.3-0.127-0.147-0.127c0.713,0,1.427,0,2.141,0c0.818,0,1.637,0,2.454,0
			c0.555,0-0.495-0.441-0.145-0.059c0.219,0.239,0.438,0.478,0.656,0.717c1.018,1.11,2.034,2.221,3.051,3.331
			c0.177-0.427,0.354-0.854,0.53-1.28C35.082,23.083,31.623,23.083,28.163,23.083c-0.967,0-0.967,1.5,0,1.5c3.46,0,6.919,0,10.379,0
			c0.676,0,0.964-0.807,0.53-1.28c-1.104-1.207-2.21-2.413-3.314-3.619c-0.976-1.065-1.841-0.809-3.273-0.809
			c-1.198,0-2.669-0.379-3.543,0.566c-1.188,1.288-2.377,2.575-3.565,3.862c-0.437,0.473-0.144,1.28,0.53,1.28
			c0.752,0,1.504,0,2.257,0C29.13,24.583,29.13,23.083,28.163,23.083L28.163,23.083z"/>
	</g>
</g>
<path fill="#FFFFFF" stroke="#000000" stroke-miterlimit="10" d="M37.709,25.33c0,0.826-0.669,1.496-1.496,1.496h-8.05
	c-0.826,0-1.496-0.669-1.496-1.496l0,0c0-0.826,0.67-1.496,1.496-1.496h8.05C37.04,23.833,37.709,24.503,37.709,25.33L37.709,25.33z
	"/>
<path fill="#010202" stroke="#000000" stroke-width="0.5" stroke-miterlimit="10" d="M26.938,40h7.438c0,0-0.125,1.688-1,1.75
	s-5.563,0-5.563,0s-0.875,0.027-0.875-0.861S26.938,40,26.938,40z"/>
<path fill="#FFFFFF" stroke="#000000" stroke-miterlimit="10" d="M14.703,26.609c0,0,0.484-7.359-5.766-7.422
	s-6.625,12.5-6.688,13.625S2.125,42.625,7.313,43s4.488-6.363,5.238-6.363s12.324,0.051,12.324,0.051s-1.75,1.438,0.813,1.5
	s9.5,0,9.5,0s1.563,0.375,0.563-1.313l9.438,0.094c0,0,4.969,0.281,4.938,5.281s0,12.844,0,12.844H59V36.625
	c0,0,0.469-9.781-12.438-9.781s-31.781-0.156-31.781-0.156L14.703,26.609z"/>
<line fill="none" stroke="#000000" stroke-miterlimit="10" x1="34.688" y1="34.875" x2="36.125" y2="37.5"/>
<line fill="none" stroke="#000000" stroke-miterlimit="10" x1="26.938" y1="34.875" x2="24.875" y2="36.688"/>
<line fill="none" stroke="#000000" stroke-miterlimit="10" x1="12.535" y1="36.62" x2="9.667" y2="36.62"/>
<path fill="none" stroke="#000000" stroke-miterlimit="10" d="M14.781,26.688l-3.898,0.008c-0.25,0.25-1.82,0.305-1.758,4.992
	s0.688,5.188,0.688,5.188C9.75,37.813,9,38.5,8.094,38.5S5.438,37.375,5.5,32.25s2.594-7.375,2.594-7.375"/>
<line fill="none" stroke="#000000" stroke-miterlimit="10" x1="37.709" y1="26.826" x2="37.709" y2="28.257"/>
<line fill="none" stroke="#000000" stroke-miterlimit="10" x1="38.896" y1="27.021" x2="36.875" y2="29.167"/>
<line fill="none" stroke="#000000" stroke-miterlimit="10" x1="26.667" y1="26.769" x2="27.167" y2="28.667"/>
</svg>
